AsbirSans-DisplayThin.ufo
<glyph name="numbersign" format="2">
  <advance width="1170"/>
  <unicode hex="0023"/>
  <outline>
    <contour>
      <point x="702" y="0" type="line"/>
      <point x="748" y="0" type="line"/>
      <point x="992" y="1490" type="line"/>
      <point x="946" y="1490" type="line"/>
    </contour>
    <contour>
      <point x="-18" y="462" type="line"/>
      <point x="1094" y="462" type="line"/>
      <point x="1102" y="510" type="line"/>
      <point x="-8" y="510" type="line"/>
    </contour>
    <contour>
      <point x="178" y="0" type="line"/>
      <point x="224" y="0" type="line"/>
      <point x="468" y="1490" type="line"/>
      <point x="422" y="1490" type="line"/>
    </contour>
    <contour>
      <point x="66" y="980" type="line"/>
      <point x="1178" y="980" type="line"/>
      <point x="1186" y="1026" type="line"/>
      <point x="76" y="1026" type="line"/>
    </contour>
  </outline>
</glyph>
<glyph name="dollar" format="2">
  <advance width="1126"/>
  <unicode hex="0024"/>
  <anchor x="564" y="0" name="bottom"/>
  <anchor x="564" y="0" name="cedilla"/>
  <anchor x="564" y="1490" name="top"/>
  <outline>
    <contour>
      <point x="549" y="-186" type="line"/>
      <point x="595" y="-186" type="line"/>
      <point x="595" y="1676" type="line"/>
      <point x="549" y="1676" type="line"/>
    </contour>
    <component base="S"/>
  </outline>
</glyph>
<glyph name="ampersand" format="2">
  <advance width="1094"/>
  <unicode hex="0026"/>
  <outline>
    <contour>
      <point x="489" y="-16" type="curve" smooth="yes"/>
      <point x="653" y="-16"/>
      <point x="797" y="62"/>
      <point x="897" y="190" type="curve"/>
      <point x="915" y="214" type="line"/>
      <point x="997" y="329"/>
      <point x="1046" y="480"/>
      <point x="1046" y="648" type="curve"/>
      <point x="1000" y="648" type="line"/>
      <point x="1000" y="297.327"/>
      <point x="777.227" y="30"/>
      <point x="489" y="30" type="curve" smooth="yes"/>
      <point x="273.851" y="30"/>
      <point x="112" y="176.217"/>
      <point x="112" y="368" type="curve" smooth="yes"/>
      <point x="112" y="508.825"/>
      <point x="203" y="591"/>
      <point x="360.934" y="711.701" type="curve" smooth="yes"/>
      <point x="570.942" y="871.708" type="line" smooth="yes"/>
      <point x="651" y="933"/>
      <point x="787" y="1029.985"/>
      <point x="787" y="1201" type="curve" smooth="yes"/>
      <point x="787" y="1374"/>
      <point x="654" y="1506"/>
      <point x="481" y="1506" type="curve" smooth="yes"/>
      <point x="308" y="1506"/>
      <point x="175" y="1374"/>
      <point x="175" y="1201" type="curve" smooth="yes"/>
      <point x="175" y="1048.839"/>
      <point x="283" y="952"/>
      <point x="386.989" y="819.696" type="curve" smooth="yes"/>
      <point x="1035.669" y="0" type="line"/>
      <point x="1094.331" y="0" type="line"/>
      <point x="423.011" y="848.304" type="line" smooth="yes"/>
      <point x="316" y="983"/>
      <point x="221" y="1069.161"/>
      <point x="221" y="1201" type="curve" smooth="yes"/>
      <point x="221" y="1349.419"/>
      <point x="332.473" y="1460"/>
      <point x="481" y="1460" type="curve" smooth="yes"/>
      <point x="629.527" y="1460"/>
      <point x="741" y="1349.419"/>
      <point x="741" y="1201" type="curve" smooth="yes"/>
      <point x="741" y="1053.815"/>
      <point x="623" y="969"/>
      <point x="543.058" y="908.292" type="curve" smooth="yes"/>
      <point x="333.066" y="748.299" type="line" smooth="yes"/>
      <point x="173" y="626"/>
      <point x="66" y="529.975"/>
      <point x="66" y="368" type="curve" smooth="yes"/>
      <point x="66" y="151"/>
      <point x="250" y="-16"/>
    </contour>
  </outline>
</glyph>
<glyph name="quotesingle" format="2">
  <advance width="248"/>
  <unicode hex="0027"/>
  <outline>
    <contour>
      <point x="104" y="1056" type="line"/>
      <point x="144" y="1056" type="line"/>
      <point x="148" y="1490" type="line"/>
      <point x="100" y="1490" type="line"/>
    </contour>
  </outline>
</glyph>
<glyph name="parenleft" format="2">
  <advance width="518"/>
  <unicode hex="0028"/>
  <outline>
    <contour>
      <point x="174" y="635" type="curve" smooth="yes"/>
      <point x="175" y="324"/>
      <point x="250" y="4"/>
      <point x="390" y="-295" type="curve"/>
      <point x="440" y="-295" type="line"/>
      <point x="296" y="4"/>
      <point x="222" y="321"/>
      <point x="222" y="635" type="curve" smooth="yes"/>
      <point x="222" y="947"/>
      <point x="295" y="1265"/>
      <point x="440" y="1567" type="curve"/>
      <point x="390" y="1567" type="line"/>
      <point x="250" y="1270"/>
      <point x="175" y="950"/>
    </contour>
  </outline>
</glyph>
<glyph name="parenright" format="2">
  <advance width="518"/>
  <unicode hex="0029"/>
  <outline>
    <contour>
      <point x="78" y="-294" type="curve"/>
      <point x="128" y="-294" type="line"/>
      <point x="268" y="5"/>
      <point x="344" y="325"/>
      <point x="344" y="636" type="curve" smooth="yes"/>
      <point x="344" y="951"/>
      <point x="268" y="1271"/>
      <point x="128" y="1568" type="curve"/>
      <point x="78" y="1568" type="line"/>
      <point x="223" y="1266"/>
      <point x="296" y="948"/>
      <point x="296" y="636" type="curve" smooth="yes"/>
      <point x="296" y="322"/>
      <point x="222" y="5"/>
    </contour>
  </outline>
</glyph>
<glyph name="asterisk" format="2">
  <advance width="896"/>
  <unicode hex="002A"/>
  <outline>
    <contour>
      <point x="424" y="652" type="line"/>
      <point x="472" y="652" type="line"/>
      <point x="472" y="1030" type="line"/>
      <point x="800" y="840" type="line"/>
      <point x="824" y="882" type="line"/>
      <point x="494" y="1070" type="line"/>
      <point x="824" y="1260" type="line"/>
      <point x="800" y="1300" type="line"/>
      <point x="472" y="1112" type="line"/>
      <point x="472" y="1490" type="line"/>
      <point x="424" y="1490" type="line"/>
      <point x="424" y="1112" type="line"/>
      <point x="96" y="1300" type="line"/>
      <point x="72" y="1260" type="line"/>
      <point x="402" y="1070" type="line"/>
      <point x="72" y="882" type="line"/>
      <point x="96" y="840" type="line"/>
      <point x="424" y="1030" type="line"/>
    </contour>
  </outline>
</glyph>
<glyph name="plus" format="2">
  <advance width="1176"/>
  <unicode hex="002B"/>
  <outline>
    <contour>
      <point x="565" y="160" type="line"/>
      <point x="611" y="160" type="line"/>
      <point x="611" y="1004" type="line"/>
      <point x="565" y="1004" type="line"/>
    </contour>
    <contour>
      <point x="166" y="559" type="line"/>
      <point x="1010" y="559" type="line"/>
      <point x="1010" y="605" type="line"/>
      <point x="166" y="605" type="line"/>
    </contour>
  </outline>
</glyph>
<glyph name="hyphen" format="2">
  <advance width="770"/>
  <unicode hex="002D"/>
  <outline>
    <contour>
      <point x="664" y="630" type="line"/>
      <point x="108" y="630" type="line"/>
      <point x="108" y="584" type="line"/>
      <point x="664" y="584" type="line"/>
    </contour>
  </outline>
</glyph>
<glyph name="period" format="2">
  <advance width="400"/>
  <unicode hex="002E"/>
  <outline>
    <contour>
      <point x="200" y="-12" type="curve" smooth="yes"/>
      <point x="230" y="-12"/>
      <point x="254" y="12"/>
      <point x="254" y="42" type="curve" smooth="yes"/>
      <point x="254" y="72"/>
      <point x="230" y="96"/>
      <point x="200" y="96" type="curve" smooth="yes"/>
      <point x="170" y="96"/>
      <point x="146" y="72"/>
      <point x="146" y="42" type="curve" smooth="yes"/>
      <point x="146" y="12"/>
      <point x="170" y="-12"/>
    </contour>
  </outline>
</glyph>
<glyph name="slash" format="2">
  <advance width="534"/>
  <unicode hex="002F"/>
  <outline>
    <contour>
      <point x="532" y="1560" type="line"/>
      <point x="482" y="1560" type="line"/>
      <point x="2" y="-224" type="line"/>
      <point x="52" y="-224" type="line"/>
    </contour>
  </outline>
</glyph>
<glyph name="zero" format="2">
  <advance width="1138"/>
  <unicode hex="0030"/>
  <anchor x="569" y="745" name="center"/>
  <anchor x="569" y="1490" name="top"/>
  <outline>
    <contour>
      <point x="570" y="-16" type="curve" smooth="yes"/>
      <point x="866" y="-16"/>
      <point x="1074" y="295"/>
      <point x="1074" y="744" type="curve" smooth="yes"/>
      <point x="1074" y="1194"/>
      <point x="866" y="1506"/>
      <point x="570" y="1506" type="curve" smooth="yes"/>
      <point x="273" y="1506"/>
      <point x="64" y="1194"/>
      <point x="64" y="744" type="curve" smooth="yes"/>
      <point x="64" y="295"/>
      <point x="273" y="-16"/>
    </contour>
    <contour>
      <point x="570" y="30" type="curve" smooth="yes"/>
      <point x="300" y="30"/>
      <point x="110" y="322"/>
      <point x="110" y="744" type="curve" smooth="yes"/>
      <point x="110" y="1167"/>
      <point x="300" y="1460"/>
      <point x="570" y="1460" type="curve" smooth="yes"/>
      <point x="839" y="1460"/>
      <point x="1028" y="1167"/>
      <point x="1028" y="744" type="curve" smooth="yes"/>
      <point x="1028" y="322"/>
      <point x="839" y="30"/>
    </contour>
  </outline>
</glyph>
<glyph name="two" format="2">
  <advance width="1098"/>
  <unicode hex="0032"/>
  <anchor x="613" y="580" name="cross"/>
  <anchor x="582" y="1490" name="top"/>
  <outline>
    <contour>
      <point x="92" y="0" type="line"/>
      <point x="1006" y="0" type="line"/>
      <point x="1006" y="46" type="line"/>
      <point x="158" y="46" type="line"/>
      <point x="158" y="47" type="line"/>
      <point x="652" y="542" type="line" smooth="yes"/>
      <point x="890" y="781"/>
      <point x="980" y="916"/>
      <point x="980" y="1088" type="curve" smooth="yes"/>
      <point x="980" y="1331"/>
      <point x="797" y="1510"/>
      <point x="536" y="1510" type="curve" smooth="yes"/>
      <point x="275" y="1510"/>
      <point x="92" y="1331"/>
      <point x="92" y="1088" type="curve"/>
      <point x="138" y="1088" type="line"/>
      <point x="138" y="1305"/>
      <point x="301" y="1464"/>
      <point x="536" y="1464" type="curve" smooth="yes"/>
      <point x="771" y="1464"/>
      <point x="934" y="1305"/>
      <point x="934" y="1088" type="curve" smooth="yes"/>
      <point x="934" y="929"/>
      <point x="847" y="802"/>
      <point x="615" y="570" type="curve" smooth="yes"/>
      <point x="92" y="46" type="line"/>
    </contour>
  </outline>
</glyph>
<glyph name="three" format="2">
  <advance width="1088"/>
  <unicode hex="0033"/>
  <anchor x="547" y="1490" name="top"/>
  <outline>
    <contour>
      <point x="547" y="-20" type="curve" smooth="yes"/>
      <point x="829" y="-20"/>
      <point x="1024" y="158"/>
      <point x="1024" y="386" type="curve" smooth="yes"/>
      <point x="1024" y="576"/>
      <point x="882" y="728"/>
      <point x="661" y="769" type="curve"/>
      <point x="661" y="770" type="line"/>
      <point x="857" y="814"/>
      <point x="976" y="954"/>
      <point x="976" y="1128" type="curve" smooth="yes"/>
      <point x="976" y="1347"/>
      <point x="796" y="1510"/>
      <point x="545" y="1510" type="curve" smooth="yes"/>
      <point x="292" y="1510"/>
      <point x="107" y="1347"/>
      <point x="107" y="1118" type="curve"/>
      <point x="153" y="1118" type="line"/>
      <point x="153" y="1321"/>
      <point x="318" y="1464"/>
      <point x="545" y="1464" type="curve" smooth="yes"/>
      <point x="772" y="1464"/>
      <point x="930" y="1320"/>
      <point x="930" y="1128" type="curve" smooth="yes"/>
      <point x="930" y="922"/>
      <point x="743" y="792"/>
      <point x="499" y="792" type="curve" smooth="yes"/>
      <point x="477" y="792" type="line"/>
      <point x="477" y="744" type="line"/>
      <point x="499" y="744" type="line" smooth="yes"/>
      <point x="776" y="744"/>
      <point x="978" y="601"/>
      <point x="978" y="386" type="curve" smooth="yes"/>
      <point x="978" y="187"/>
      <point x="806" y="26"/>
      <point x="547" y="26" type="curve" smooth="yes"/>
      <point x="304" y="26"/>
      <point x="116" y="171"/>
      <point x="116" y="372" type="curve"/>
      <point x="70" y="372" type="line"/>
      <point x="70" y="145"/>
      <point x="277" y="-20"/>
    </contour>
  </outline>
</glyph>
<glyph name="four" format="2">
  <advance width="1186"/>
  <unicode hex="0034"/>
  <outline>
    <contour>
      <point x="64" y="422" type="line"/>
      <point x="1122" y="422" type="line"/>
      <point x="1122" y="468" type="line"/>
      <point x="131" y="468" type="line"/>
      <point x="131" y="469" type="line"/>
      <point x="882" y="1490" type="line"/>
      <point x="825" y="1490" type="line"/>
      <point x="64" y="456" type="line"/>
    </contour>
    <contour>
      <point x="841" y="0" type="line"/>
      <point x="887" y="0" type="line"/>
      <point x="887" y="898" type="line"/>
      <point x="841" y="898" type="line"/>
      <point x="841" y="450" type="line"/>
      <point x="841" y="436" type="line"/>
    </contour>
  </outline>
</glyph>
<glyph name="five" format="2">
  <advance width="1042"/>
  <unicode hex="0035"/>
  <outline>
    <contour>
      <point x="493" y="-20" type="curve" smooth="yes"/>
      <point x="776" y="-20"/>
      <point x="978" y="186"/>
      <point x="978" y="462" type="curve" smooth="yes"/>
      <point x="978" y="740"/>
      <point x="781" y="940"/>
      <point x="507" y="940" type="curve" smooth="yes"/>
      <point x="333" y="940"/>
      <point x="206" y="859"/>
      <point x="148" y="784" type="curve"/>
      <point x="147" y="784" type="line"/>
      <point x="205" y="1444" type="line"/>
      <point x="953" y="1444" type="line"/>
      <point x="953" y="1490" type="line"/>
      <point x="163" y="1490" type="line"/>
      <point x="93" y="688" type="line"/>
      <point x="135" y="688" type="line"/>
      <point x="187" y="815"/>
      <point x="343" y="894"/>
      <point x="508" y="894" type="curve" smooth="yes"/>
      <point x="756" y="894"/>
      <point x="932" y="715"/>
      <point x="932" y="462" type="curve" smooth="yes"/>
      <point x="932" y="215"/>
      <point x="753" y="26"/>
      <point x="493" y="26" type="curve" smooth="yes"/>
      <point x="261" y="26"/>
      <point x="110" y="170"/>
      <point x="110" y="372" type="curve"/>
      <point x="64" y="372" type="line"/>
      <point x="64" y="145"/>
      <point x="237" y="-20"/>
    </contour>
  </outline>
</glyph>
<glyph name="six" format="2">
  <advance width="1068"/>
  <unicode hex="0036"/>
  <outline>
    <contour>
      <point x="547" y="-16" type="curve" smooth="yes"/>
      <point x="820" y="-16"/>
      <point x="1004" y="202"/>
      <point x="1004" y="450" type="curve" smooth="yes"/>
      <point x="1004" y="716"/>
      <point x="792" y="914"/>
      <point x="537" y="914" type="curve" smooth="yes"/>
      <point x="328" y="914"/>
      <point x="149" y="782"/>
      <point x="110" y="609" type="curve"/>
      <point x="109" y="609" type="line"/>
      <point x="101" y="1187"/>
      <point x="281" y="1460"/>
      <point x="562" y="1460" type="curve" smooth="yes"/>
      <point x="756" y="1460"/>
      <point x="899" y="1336"/>
      <point x="926" y="1152" type="curve"/>
      <point x="972" y="1152" type="line"/>
      <point x="945" y="1364"/>
      <point x="779" y="1506"/>
      <point x="562" y="1506" type="curve" smooth="yes"/>
      <point x="186" y="1506"/>
      <point x="64" y="1081"/>
      <point x="64" y="678" type="curve" smooth="yes"/>
      <point x="64" y="212"/>
      <point x="271" y="-16"/>
    </contour>
    <contour>
      <point x="547" y="30" type="curve" smooth="yes"/>
      <point x="343" y="30"/>
      <point x="194" y="163"/>
      <point x="137" y="426" type="curve" smooth="yes"/>
      <point x="87" y="659"/>
      <point x="283" y="868"/>
      <point x="537" y="868" type="curve" smooth="yes"/>
      <point x="774" y="868"/>
      <point x="958" y="684"/>
      <point x="958" y="450" type="curve" smooth="yes"/>
      <point x="958" y="220"/>
      <point x="785" y="30"/>
    </contour>
  </outline>
</glyph>
<glyph name="seven" format="2">
  <advance width="1056"/>
  <unicode hex="0037"/>
  <outline>
    <contour>
      <point x="221" y="0" type="line"/>
      <point x="272" y="0" type="line"/>
      <point x="996" y="1442" type="line"/>
      <point x="996" y="1490" type="line"/>
      <point x="60" y="1490" type="line"/>
      <point x="60" y="1444" type="line"/>
      <point x="945" y="1444" type="line"/>
      <point x="945" y="1443" type="line"/>
    </contour>
  </outline>
</glyph>
<glyph name="eight" format="2">
  <advance width="1062"/>
  <unicode hex="0038"/>
  <outline>
    <contour>
      <point x="531" y="-16" type="curve" smooth="yes"/>
      <point x="790" y="-16"/>
      <point x="998" y="160"/>
      <point x="998" y="384" type="curve" smooth="yes"/>
      <point x="998" y="578"/>
      <point x="845" y="737"/>
      <point x="645" y="770" type="curve"/>
      <point x="645" y="769" type="line"/>
      <point x="843" y="818"/>
      <point x="949" y="969"/>
      <point x="949" y="1132" type="curve" smooth="yes"/>
      <point x="949" y="1345"/>
      <point x="759" y="1506"/>
      <point x="531" y="1506" type="curve" smooth="yes"/>
      <point x="301" y="1506"/>
      <point x="115" y="1343"/>
      <point x="115" y="1132" type="curve" smooth="yes"/>
      <point x="115" y="968"/>
      <point x="221" y="819"/>
      <point x="417" y="769" type="curve"/>
      <point x="417" y="770" type="line"/>
      <point x="216" y="737"/>
      <point x="64" y="578"/>
      <point x="64" y="384" type="curve" smooth="yes"/>
      <point x="64" y="160"/>
      <point x="274" y="-16"/>
    </contour>
    <contour>
      <point x="531" y="30" type="curve" smooth="yes"/>
      <point x="295" y="30"/>
      <point x="110" y="184"/>
      <point x="110" y="385" type="curve" smooth="yes"/>
      <point x="110" y="587"/>
      <point x="295" y="745"/>
      <point x="531" y="745" type="curve" smooth="yes"/>
      <point x="767" y="745"/>
      <point x="952" y="587"/>
      <point x="952" y="385" type="curve" smooth="yes"/>
      <point x="952" y="184"/>
      <point x="767" y="30"/>
    </contour>
    <contour>
      <point x="531" y="791" type="curve" smooth="yes"/>
      <point x="324" y="791"/>
      <point x="161" y="941"/>
      <point x="161" y="1133" type="curve" smooth="yes"/>
      <point x="161" y="1318"/>
      <point x="324" y="1460"/>
      <point x="531" y="1460" type="curve" smooth="yes"/>
      <point x="739" y="1460"/>
      <point x="903" y="1318"/>
      <point x="903" y="1133" type="curve" smooth="yes"/>
      <point x="903" y="941"/>
      <point x="739" y="791"/>
    </contour>
  </outline>
</glyph>
<glyph name="nine" format="2">
  <advance width="1068"/>
  <unicode hex="0039"/>
  <outline>
    <contour>
      <point x="506" y="-16" type="curve" smooth="yes"/>
      <point x="882" y="-16"/>
      <point x="1004" y="409"/>
      <point x="1004" y="812" type="curve" smooth="yes"/>
      <point x="1004" y="1278"/>
      <point x="797" y="1506"/>
      <point x="521" y="1506" type="curve" smooth="yes"/>
      <point x="248" y="1506"/>
      <point x="64" y="1288"/>
      <point x="64" y="1040" type="curve" smooth="yes"/>
      <point x="64" y="774"/>
      <point x="276" y="576"/>
      <point x="531" y="576" type="curve" smooth="yes"/>
      <point x="740" y="576"/>
      <point x="919" y="708"/>
      <point x="958" y="881" type="curve"/>
      <point x="959" y="881" type="line"/>
      <point x="967" y="303"/>
      <point x="787" y="30"/>
      <point x="506" y="30" type="curve" smooth="yes"/>
      <point x="312" y="30"/>
      <point x="169" y="154"/>
      <point x="142" y="338" type="curve"/>
      <point x="96" y="338" type="line"/>
      <point x="123" y="126"/>
      <point x="289" y="-16"/>
    </contour>
    <contour>
      <point x="531" y="622" type="curve" smooth="yes"/>
      <point x="294" y="622"/>
      <point x="110" y="806"/>
      <point x="110" y="1040" type="curve" smooth="yes"/>
      <point x="110" y="1270"/>
      <point x="283" y="1460"/>
      <point x="521" y="1460" type="curve" smooth="yes"/>
      <point x="725" y="1460"/>
      <point x="874" y="1327"/>
      <point x="931" y="1064" type="curve" smooth="yes"/>
      <point x="981" y="831"/>
      <point x="785" y="622"/>
    </contour>
  </outline>
</glyph>
<glyph name="less" format="2">
  <advance width="1176"/>
  <unicode hex="003C"/>
  <outline>
    <contour>
      <point x="158" y="558" type="line"/>
      <point x="954" y="40" type="line"/>
      <point x="954" y="96" type="line"/>
      <point x="200" y="584" type="line"/>
      <point x="210" y="570" type="line"/>
      <point x="210" y="594" type="line"/>
      <point x="200" y="578" type="line"/>
      <point x="954" y="1068" type="line"/>
      <point x="954" y="1122" type="line"/>
      <point x="158" y="606" type="line"/>
    </contour>
  </outline>
</glyph>
<glyph name="equal" format="2">
  <advance width="1176"/>
  <unicode hex="003D"/>
  <outline>
    <contour>
      <point x="242" y="754" type="line"/>
      <point x="934" y="754" type="line"/>
      <point x="934" y="800" type="line"/>
      <point x="242" y="800" type="line"/>
    </contour>
    <contour>
      <point x="242" y="364" type="line"/>
      <point x="934" y="364" type="line"/>
      <point x="934" y="410" type="line"/>
      <point x="242" y="410" type="line"/>
    </contour>
  </outline>
</glyph>
<glyph name="greater" format="2">
  <advance width="1176"/>
  <unicode hex="003E"/>
  <outline>
    <contour>
      <point x="1018" y="558" type="line"/>
      <point x="1018" y="606" type="line"/>
      <point x="222" y="1122" type="line"/>
      <point x="222" y="1068" type="line"/>
      <point x="974" y="578" type="line"/>
      <point x="966" y="594" type="line"/>
      <point x="966" y="570" type="line"/>
      <point x="974" y="584" type="line"/>
      <point x="222" y="96" type="line"/>
      <point x="222" y="40" type="line"/>
    </contour>
  </outline>
</glyph>
<glyph name="question" format="2">
  <advance width="919"/>
  <unicode hex="003F"/>
  <outline>
    <contour>
      <point x="393" y="354" type="line"/>
      <point x="439" y="354" type="line"/>
      <point x="439" y="501" type="line" smooth="yes"/>
      <point x="439" y="657"/>
      <point x="527" y="719"/>
      <point x="632" y="791" type="curve" smooth="yes"/>
      <point x="769" y="885"/>
      <point x="832" y="999"/>
      <point x="832" y="1142" type="curve" smooth="yes"/>
      <point x="832" y="1359"/>
      <point x="679" y="1506"/>
      <point x="454" y="1506" type="curve" smooth="yes"/>
      <point x="226" y="1506"/>
      <point x="64" y="1344"/>
      <point x="64" y="1114" type="curve"/>
      <point x="110" y="1114" type="line"/>
      <point x="110" y="1318"/>
      <point x="252" y="1460"/>
      <point x="454" y="1460" type="curve" smooth="yes"/>
      <point x="653" y="1460"/>
      <point x="786" y="1333"/>
      <point x="786" y="1142" type="curve" smooth="yes"/>
      <point x="786" y="1012"/>
      <point x="726" y="910"/>
      <point x="606" y="829" type="curve" smooth="yes"/>
      <point x="492" y="752"/>
      <point x="393" y="676"/>
      <point x="393" y="501" type="curve" smooth="yes"/>
    </contour>
    <contour>
      <point x="416" y="-12" type="curve" smooth="yes"/>
      <point x="446" y="-12"/>
      <point x="470" y="12"/>
      <point x="470" y="42" type="curve" smooth="yes"/>
      <point x="470" y="72"/>
      <point x="446" y="96"/>
      <point x="416" y="96" type="curve" smooth="yes"/>
      <point x="386" y="96"/>
      <point x="362" y="72"/>
      <point x="362" y="42" type="curve" smooth="yes"/>
      <point x="362" y="12"/>
      <point x="386" y="-12"/>
    </contour>
  </outline>
</glyph>
<glyph name="at" format="2">
  <advance width="1930"/>
  <unicode hex="0040"/>
  <outline>
    <contour>
      <point x="965" y="-385" type="curve" smooth="yes"/>
      <point x="1142" y="-385"/>
      <point x="1309" y="-334"/>
      <point x="1448" y="-246" type="curve"/>
      <point x="1424" y="-208" type="line"/>
      <point x="1290" y="-292"/>
      <point x="1135" y="-339"/>
      <point x="965" y="-339" type="curve" smooth="yes"/>
      <point x="495" y="-339"/>
      <point x="130" y="40"/>
      <point x="130" y="528" type="curve" smooth="yes"/>
      <point x="130" y="1016"/>
      <point x="495" y="1395"/>
      <point x="965" y="1395" type="curve" smooth="yes"/>
      <point x="1435" y="1395"/>
      <point x="1800" y="1016"/>
      <point x="1800" y="528" type="curve" smooth="yes"/>
      <point x="1800" y="264"/>
      <point x="1687" y="100"/>
      <point x="1504" y="100" type="curve" smooth="yes"/>
      <point x="1393" y="100"/>
      <point x="1347" y="157"/>
      <point x="1347" y="295" type="curve" smooth="yes"/>
      <point x="1347" y="992" type="line"/>
      <point x="1301" y="992" type="line"/>
      <point x="1301" y="761" type="line"/>
      <point x="1300" y="761" type="line"/>
      <point x="1244" y="915"/>
      <point x="1129" y="1011"/>
      <point x="957" y="1011" type="curve" smooth="yes"/>
      <point x="711" y="1011"/>
      <point x="542" y="797"/>
      <point x="542" y="528" type="curve" smooth="yes"/>
      <point x="542" y="259"/>
      <point x="711" y="45"/>
      <point x="957" y="45" type="curve" smooth="yes"/>
      <point x="1129" y="45"/>
      <point x="1244" y="141"/>
      <point x="1300" y="295" type="curve"/>
      <point x="1301" y="295" type="line"/>
      <point x="1301" y="133"/>
      <point x="1367" y="55"/>
      <point x="1504" y="55" type="curve" smooth="yes"/>
      <point x="1715" y="55"/>
      <point x="1846" y="241"/>
      <point x="1846" y="528" type="curve" smooth="yes"/>
      <point x="1846" y="1032"/>
      <point x="1470" y="1441"/>
      <point x="965" y="1441" type="curve" smooth="yes"/>
      <point x="460" y="1441"/>
      <point x="84" y="1032"/>
      <point x="84" y="528" type="curve" smooth="yes"/>
      <point x="84" y="24"/>
      <point x="460" y="-385"/>
    </contour>
    <contour>
      <point x="957" y="91" type="curve" smooth="yes"/>
      <point x="739" y="91"/>
      <point x="588" y="281"/>
      <point x="588" y="528" type="curve" smooth="yes"/>
      <point x="588" y="775"/>
      <point x="739" y="965"/>
      <point x="957" y="965" type="curve" smooth="yes"/>
      <point x="1177" y="965"/>
      <point x="1300" y="779"/>
      <point x="1300" y="528" type="curve" smooth="yes"/>
      <point x="1300" y="277"/>
      <point x="1177" y="91"/>
    </contour>
  </outline>
</glyph>
<glyph name="A" format="2">
  <advance width="1218"/>
  <unicode hex="0041"/>
  <anchor x="609" y="0" name="bottom"/>
  <anchor x="1198" y="0" name="ogonek"/>
  <anchor x="480" y="1490" name="tonos"/>
  <anchor x="609" y="1490" name="top"/>
  <outline>
    <contour>
      <point x="20" y="0" type="line"/>
      <point x="69" y="0" type="line"/>
      <point x="499" y="1154" type="line" smooth="yes"/>
      <point x="539" y="1261"/>
      <point x="578" y="1367"/>
      <point x="617" y="1474" type="curve"/>
      <point x="599" y="1474" type="line"/>
      <point x="638" y="1367"/>
      <point x="677" y="1261"/>
      <point x="717" y="1154" type="curve" smooth="yes"/>
      <point x="1149" y="0" type="line"/>
      <point x="1198" y="0" type="line"/>
      <point x="640" y="1490" type="line"/>
      <point x="577" y="1490" type="line"/>
    </contour>
    <contour>
      <point x="241" y="491" type="line"/>
      <point x="977" y="491" type="line"/>
      <point x="977" y="537" type="line"/>
      <point x="241" y="537" type="line"/>
    </contour>
  </outline>
</glyph>
<glyph name="B" format="2">
  <advance width="1236"/>
  <unicode hex="0042"/>
  <anchor x="599" y="0" name="bottom"/>
  <anchor x="214" y="390" name="cross"/>
  <anchor x="581" y="1479" name="top"/>
  <anchor x="168" y="1490" name="topl"/>
  <outline>
    <contour>
      <point x="168" y="0" type="line"/>
      <point x="682" y="0" type="line" smooth="yes"/>
      <point x="961" y="0"/>
      <point x="1136" y="161"/>
      <point x="1136" y="396" type="curve" smooth="yes"/>
      <point x="1136" y="602"/>
      <point x="975" y="732"/>
      <point x="814" y="758" type="curve"/>
      <point x="814" y="759" type="line"/>
      <point x="956" y="800"/>
      <point x="1078" y="936"/>
      <point x="1078" y="1112" type="curve" smooth="yes"/>
      <point x="1078" y="1346"/>
      <point x="898" y="1490"/>
      <point x="632" y="1490" type="curve" smooth="yes"/>
      <point x="168" y="1490" type="line"/>
    </contour>
    <contour>
      <point x="214" y="46" type="line"/>
      <point x="214" y="734" type="line"/>
      <point x="682" y="734" type="line" smooth="yes"/>
      <point x="892" y="734"/>
      <point x="1090" y="610"/>
      <point x="1090" y="396" type="curve" smooth="yes"/>
      <point x="1090" y="189"/>
      <point x="937" y="46"/>
      <point x="682" y="46" type="curve" smooth="yes"/>
    </contour>
    <contour>
      <point x="214" y="780" type="line"/>
      <point x="214" y="1444" type="line"/>
      <point x="632" y="1444" type="line" smooth="yes"/>
      <point x="868" y="1444"/>
      <point x="1032" y="1323"/>
      <point x="1032" y="1112" type="curve" smooth="yes"/>
      <point x="1032" y="934"/>
      <point x="885" y="780"/>
      <point x="682" y="780" type="curve" smooth="yes"/>
    </contour>
  </outline>
</glyph>
<glyph name="C" format="2">
  <advance width="1352"/>
  <unicode hex="0043"/>
  <anchor x="702" y="0" name="cedilla"/>
  <anchor x="696" y="745" name="center"/>
  <anchor x="702" y="1490" name="top"/>
  <anchor x="1272" y="1024" name="topr"/>
  <outline>
    <contour>
      <point x="702" y="-16" type="curve" smooth="yes"/>
      <point x="1052" y="-16"/>
      <point x="1235" y="256"/>
      <point x="1272" y="466" type="curve"/>
      <point x="1225" y="466" type="line"/>
      <point x="1185" y="263"/>
      <point x="1010" y="30"/>
      <point x="702" y="30" type="curve" smooth="yes"/>
      <point x="396" y="30"/>
      <point x="130" y="276"/>
      <point x="130" y="744" type="curve" smooth="yes"/>
      <point x="130" y="1207"/>
      <point x="396" y="1460"/>
      <point x="702" y="1460" type="curve" smooth="yes"/>
      <point x="1011" y="1460"/>
      <point x="1185" y="1228"/>
      <point x="1225" y="1024" type="curve"/>
      <point x="1272" y="1024" type="line"/>
      <point x="1235" y="1236"/>
      <point x="1052" y="1506"/>
      <point x="702" y="1506" type="curve" smooth="yes"/>
      <point x="335" y="1506"/>
      <point x="84" y="1201"/>
      <point x="84" y="744" type="curve" smooth="yes"/>
      <point x="84" y="288"/>
      <point x="335" y="-16"/>
    </contour>
  </outline>
</glyph>
<glyph name="D" format="2">
  <advance width="1334"/>
  <unicode hex="0044"/>
  <anchor x="526" y="0" name="bottom"/>
  <anchor x="338" y="745" name="cross"/>
  <anchor x="568" y="1490" name="top"/>
  <anchor x="168" y="1490" name="topl"/>
  <outline>
    <contour>
      <point x="558" y="0" type="line" smooth="yes"/>
      <point x="996" y="0"/>
      <point x="1250" y="275"/>
      <point x="1250" y="750" type="curve" smooth="yes"/>
      <point x="1250" y="1214"/>
      <point x="1007" y="1490"/>
      <point x="596" y="1490" type="curve" smooth="yes"/>
      <point x="192" y="1490" type="line"/>
      <point x="192" y="1444" type="line"/>
      <point x="596" y="1444" type="line" smooth="yes"/>
      <point x="983" y="1444"/>
      <point x="1204" y="1185"/>
      <point x="1204" y="750" type="curve" smooth="yes"/>
      <point x="1204" y="309"/>
      <point x="972" y="46"/>
      <point x="558" y="46" type="curve" smooth="yes"/>
      <point x="192" y="46" type="line"/>
      <point x="192" y="0" type="line"/>
    </contour>
    <contour>
      <point x="214" y="1490" type="line"/>
      <point x="168" y="1490" type="line"/>
      <point x="168" y="0" type="line"/>
      <point x="214" y="0" type="line"/>
    </contour>
  </outline>
</glyph>
<glyph name="E" format="2">
  <advance width="1145"/>
  <unicode hex="0045"/>
  <anchor x="619" y="0" name="bottom"/>
  <anchor x="616" y="0" name="cedilla"/>
  <anchor x="1070" y="0" name="ogonek"/>
  <anchor x="168" y="1490" name="tonos"/>
  <anchor x="619" y="1490" name="top"/>
  <outline>
    <contour>
      <point x="168" y="0" type="line"/>
      <point x="1070" y="0" type="line"/>
      <point x="1070" y="46" type="line"/>
      <point x="214" y="46" type="line"/>
      <point x="214" y="738" type="line"/>
      <point x="993" y="738" type="line"/>
      <point x="993" y="784" type="line"/>
      <point x="214" y="784" type="line"/>
      <point x="214" y="1444" type="line"/>
      <point x="1070" y="1444" type="line"/>
      <point x="1070" y="1490" type="line"/>
      <point x="168" y="1490" type="line"/>
    </contour>
  </outline>
</glyph>
<glyph name="F" format="2">
  <advance width="1090"/>
  <unicode hex="0046"/>
  <anchor x="191" y="0" name="bottom"/>
  <anchor x="191" y="410" name="cross"/>
  <anchor x="168" y="0" name="lfthook"/>
  <anchor x="600" y="1490" name="top"/>
  <outline>
    <contour>
      <point x="168" y="0" type="line"/>
      <point x="214" y="0" type="line"/>
      <point x="214" y="738" type="line"/>
      <point x="936" y="738" type="line"/>
      <point x="936" y="784" type="line"/>
      <point x="214" y="784" type="line"/>
      <point x="214" y="1444" type="line"/>
      <point x="1030" y="1444" type="line"/>
      <point x="1030" y="1490" type="line"/>
      <point x="168" y="1490" type="line"/>
    </contour>
  </outline>
</glyph>
<glyph name="G" format="2">
  <advance width="1422"/>
  <unicode hex="0047"/>
  <anchor x="692" y="0" name="bottom"/>
  <anchor x="996" y="354" name="cross"/>
  <anchor x="692" y="1490" name="top"/>
  <anchor x="1272" y="1024" name="topr"/>
  <outline>
    <contour>
      <point x="706" y="-16" type="curve" smooth="yes"/>
      <point x="1055" y="-16"/>
      <point x="1278" y="236"/>
      <point x="1278" y="628" type="curve" smooth="yes"/>
      <point x="1278" y="636" type="line"/>
      <point x="1239" y="636" type="line"/>
      <point x="1239" y="262"/>
      <point x="1031" y="30"/>
      <point x="706" y="30" type="curve" smooth="yes"/>
      <point x="355" y="30"/>
      <point x="130" y="319"/>
      <point x="130" y="744" type="curve" smooth="yes"/>
      <point x="130" y="1175"/>
      <point x="359" y="1460"/>
      <point x="702" y="1460" type="curve" smooth="yes"/>
      <point x="1007" y="1460"/>
      <point x="1190" y="1227"/>
      <point x="1225" y="1024" type="curve"/>
      <point x="1272" y="1024" type="line"/>
      <point x="1236" y="1236"/>
      <point x="1049" y="1506"/>
      <point x="702" y="1506" type="curve" smooth="yes"/>
      <point x="332" y="1506"/>
      <point x="84" y="1203"/>
      <point x="84" y="744" type="curve" smooth="yes"/>
      <point x="84" y="289"/>
      <point x="329" y="-16"/>
    </contour>
    <contour>
      <point x="1244" y="0" type="line"/>
      <point x="1282" y="0" type="line"/>
      <point x="1282" y="672" type="line"/>
      <point x="720" y="672" type="line"/>
      <point x="720" y="626" type="line"/>
      <point x="1248" y="626" type="line"/>
      <point x="1236" y="448" type="line"/>
    </contour>
  </outline>
</glyph>
<glyph name="H" format="2">
  <advance width="1376"/>
  <unicode hex="0048"/>
  <anchor x="688" y="0" name="bottom"/>
  <anchor x="191" y="0" name="cedilla"/>
  <anchor x="1208" y="0" name="cyrtic"/>
  <anchor x="1162" y="0" name="lfthook"/>
  <anchor x="1208" y="0" name="right"/>
  <anchor x="168" y="1490" name="tonos"/>
  <anchor x="688" y="1490" name="top"/>
  <outline>
    <contour>
      <point x="168" y="0" type="line"/>
      <point x="214" y="0" type="line"/>
      <point x="214" y="738" type="line"/>
      <point x="1162" y="738" type="line"/>
      <point x="1162" y="0" type="line"/>
      <point x="1208" y="0" type="line"/>
      <point x="1208" y="1490" type="line"/>
      <point x="1162" y="1490" type="line"/>
      <point x="1162" y="784" type="line"/>
      <point x="214" y="784" type="line"/>
      <point x="214" y="1490" type="line"/>
      <point x="168" y="1490" type="line"/>
    </contour>
  </outline>
</glyph>
<glyph name="I" format="2">
  <advance width="382"/>
  <unicode hex="0049"/>
  <anchor x="191" y="0" name="bottom"/>
  <anchor x="191" y="768" name="cross"/>
  <anchor x="214" y="0" name="ogonek"/>
  <anchor x="222" y="0" name="right"/>
  <anchor x="168" y="1490" name="tonos"/>
  <anchor x="191" y="1490" name="top"/>
  <outline>
    <contour>
      <point x="257" y="1490" type="line"/>
      <point x="125" y="1490" type="line"/>
      <point x="125" y="1426" type="line"/>
      <point x="168" y="1426" type="line"/>
      <point x="168" y="64" type="line"/>
      <point x="125" y="64" type="line"/>
      <point x="125" y="0" type="line"/>
      <point x="257" y="0" type="line"/>
      <point x="257" y="64" type="line"/>
      <point x="214" y="64" type="line"/>
      <point x="214" y="1426" type="line"/>
      <point x="257" y="1426" type="line"/>
    </contour>
  </outline>
</glyph>
<glyph name="J" format="2">
  <advance width="1034"/>
  <unicode hex="004A"/>
  <anchor x="870" y="884" name="cross"/>
  <anchor x="870" y="1490" name="top"/>
  <outline>
    <contour>
      <point x="502" y="-20" type="curve" smooth="yes"/>
      <point x="743" y="-20"/>
      <point x="894" y="140"/>
      <point x="894" y="396" type="curve" smooth="yes"/>
      <point x="894" y="1490" type="line"/>
      <point x="848" y="1490" type="line"/>
      <point x="848" y="396" type="line" smooth="yes"/>
      <point x="848" y="167"/>
      <point x="718" y="26"/>
      <point x="502" y="26" type="curve" smooth="yes"/>
      <point x="286" y="26"/>
      <point x="156" y="167"/>
      <point x="156" y="396" type="curve" smooth="yes"/>
      <point x="156" y="464" type="line"/>
      <point x="110" y="464" type="line"/>
      <point x="110" y="396" type="line" smooth="yes"/>
      <point x="110" y="140"/>
      <point x="261" y="-20"/>
    </contour>
  </outline>
</glyph>
<glyph name="K" format="2">
  <advance width="1119"/>
  <unicode hex="004B"/>
  <anchor x="598" y="0" name="bottom"/>
  <anchor x="598" y="1490" name="top"/>
  <outline>
    <contour>
      <point x="209" y="536" type="line"/>
      <point x="469" y="817" type="line"/>
      <point x="481" y="828" type="line"/>
      <point x="1094" y="1490" type="line"/>
      <point x="1032.643" y="1490" type="line"/>
      <point x="534" y="952" type="line" smooth="yes"/>
      <point x="414" y="823"/>
      <point x="314" y="713"/>
      <point x="194" y="584" type="curve"/>
    </contour>
    <contour>
      <point x="168" y="0" type="line"/>
      <point x="214" y="0" type="line"/>
      <point x="214" y="560" type="line"/>
      <point x="214" y="592" type="line"/>
      <point x="214" y="960" type="line"/>
      <point x="214" y="1490" type="line"/>
      <point x="168" y="1490" type="line"/>
    </contour>
    <contour>
      <point x="1037" y="0" type="line"/>
      <point x="1092.228" y="0" type="line"/>
      <point x="485.74" y="852.335" type="line"/>
      <point x="449" y="826" type="line"/>
    </contour>
  </outline>
</glyph>
<glyph name="L" format="2">
  <advance width="1044"/>
  <unicode hex="004C"/>
  <anchor x="564" y="0" name="bottom"/>
  <anchor x="338" y="745" name="cross"/>
  <anchor x="542" y="748" name="dot"/>
  <anchor x="562" y="1490" name="raccent"/>
  <anchor x="192" y="1490" name="top"/>
  <outline>
    <contour>
      <point x="168" y="0" type="line"/>
      <point x="984" y="0" type="line"/>
      <point x="984" y="46" type="line"/>
      <point x="216" y="46" type="line"/>
      <point x="216" y="1490" type="line"/>
      <point x="168" y="1490" type="line"/>
    </contour>
  </outline>
</glyph>
<glyph name="M" format="2">
  <advance width="1704"/>
  <unicode hex="004D"/>
  <anchor x="852" y="0" name="bottom"/>
  <anchor x="1504" y="0" name="cyrtic"/>
  <anchor x="852" y="1490" name="top"/>
  <outline>
    <contour>
      <point x="168" y="0" type="line"/>
      <point x="214" y="0" type="line"/>
      <point x="214" y="1136" type="line" smooth="yes"/>
      <point x="214" y="1243"/>
      <point x="213" y="1349"/>
      <point x="213" y="1456" type="curve"/>
      <point x="199" y="1456" type="line"/>
      <point x="244" y="1349"/>
      <point x="290" y="1243"/>
      <point x="336" y="1136" type="curve" smooth="yes"/>
      <point x="829" y="0" type="line"/>
      <point x="875" y="0" type="line"/>
      <point x="1368" y="1136" type="line" smooth="yes"/>
      <point x="1414" y="1243"/>
      <point x="1460" y="1349"/>
      <point x="1505" y="1456" type="curve"/>
      <point x="1491" y="1456" type="line"/>
      <point x="1491" y="1349"/>
      <point x="1490" y="1243"/>
      <point x="1490" y="1136" type="curve" smooth="yes"/>
      <point x="1490" y="0" type="line"/>
      <point x="1536" y="0" type="line"/>
      <point x="1536" y="1490" type="line"/>
      <point x="1472" y="1490" type="line"/>
      <point x="958" y="304" type="line" smooth="yes"/>
      <point x="919" y="213"/>
      <point x="879" y="123"/>
      <point x="840" y="32" type="curve"/>
      <point x="864" y="32" type="line"/>
      <point x="825" y="123"/>
      <point x="786" y="213"/>
      <point x="747" y="304" type="curve" smooth="yes"/>
      <point x="232" y="1490" type="line"/>
      <point x="168" y="1490" type="line"/>
    </contour>
  </outline>
</glyph>
<glyph name="N" format="2">
  <advance width="1452"/>
  <unicode hex="004E"/>
  <anchor x="726" y="0" name="bottom"/>
  <anchor x="168" y="0" name="lfthook"/>
  <anchor x="1284" y="0" name="lfthook2"/>
  <anchor x="726" y="1490" name="top"/>
  <outline>
    <contour>
      <point x="168" y="0" type="line"/>
      <point x="214" y="0" type="line"/>
      <point x="214" y="1129" type="line" smooth="yes"/>
      <point x="214" y="1233"/>
      <point x="212" y="1337"/>
      <point x="212" y="1441" type="curve"/>
      <point x="195" y="1441" type="line"/>
      <point x="271" y="1337"/>
      <point x="343" y="1233"/>
      <point x="419" y="1129" type="curve" smooth="yes"/>
      <point x="1240" y="0" type="line"/>
      <point x="1284" y="0" type="line"/>
      <point x="1284" y="1490" type="line"/>
      <point x="1238" y="1490" type="line"/>
      <point x="1238" y="359" type="line" smooth="yes"/>
      <point x="1238" y="255"/>
      <point x="1240" y="152"/>
      <point x="1240" y="48" type="curve"/>
      <point x="1258" y="48" type="line"/>
      <point x="1183" y="152"/>
      <point x="1110" y="255"/>
      <point x="1035" y="359" type="curve" smooth="yes"/>
      <point x="212" y="1490" type="line"/>
      <point x="168" y="1490" type="line"/>
    </contour>
  </outline>
</glyph>
<glyph name="O" format="2">
  <advance width="1402"/>
  <unicode hex="004F"/>
  <anchor x="702" y="0" name="bottom"/>
  <anchor x="702" y="745" name="center"/>
  <anchor x="1318" y="744" name="ogonek"/>
  <anchor x="206" y="1490" name="tonos"/>
  <anchor x="702" y="1490" name="top"/>
  <anchor x="702" y="1506" name="tophorn"/>
  <outline>
    <contour>
      <point x="702" y="-16" type="curve" smooth="yes"/>
      <point x="1068" y="-16"/>
      <point x="1318" y="289"/>
      <point x="1318" y="744" type="curve" smooth="yes"/>
      <point x="1318" y="1200"/>
      <point x="1068" y="1506"/>
      <point x="702" y="1506" type="curve" smooth="yes"/>
      <point x="334" y="1506"/>
      <point x="84" y="1199"/>
      <point x="84" y="744" type="curve" smooth="yes"/>
      <point x="84" y="291"/>
      <point x="333" y="-16"/>
    </contour>
    <contour>
      <point x="702" y="30" type="curve" smooth="yes"/>
      <point x="359" y="30"/>
      <point x="130" y="320"/>
      <point x="130" y="744" type="curve" smooth="yes"/>
      <point x="130" y="1175"/>
      <point x="364" y="1460"/>
      <point x="702" y="1460" type="curve" smooth="yes"/>
      <point x="1040" y="1460"/>
      <point x="1272" y="1172"/>
      <point x="1272" y="744" type="curve" smooth="yes"/>
      <point x="1272" y="317"/>
      <point x="1040" y="30"/>
    </contour>
  </outline>
</glyph>
<glyph name="P" format="2">
  <advance width="1125"/>
  <unicode hex="0050"/>
  <anchor x="126" y="1490" name="tonos"/>
  <anchor x="574" y="1490" name="top"/>
  <anchor x="168" y="1490" name="topl"/>
  <outline>
    <contour>
      <point x="168" y="0" type="line"/>
      <point x="214" y="0" type="line"/>
      <point x="214" y="1444" type="line"/>
      <point x="654" y="1444" type="line" smooth="yes"/>
      <point x="877" y="1444"/>
      <point x="1034" y="1293"/>
      <point x="1034" y="1064" type="curve" smooth="yes"/>
      <point x="1034" y="838"/>
      <point x="877" y="688"/>
      <point x="654" y="688" type="curve" smooth="yes"/>
      <point x="192" y="688" type="line"/>
      <point x="192" y="642" type="line"/>
      <point x="654" y="642" type="line" smooth="yes"/>
      <point x="903" y="642"/>
      <point x="1080" y="811"/>
      <point x="1080" y="1064" type="curve" smooth="yes"/>
      <point x="1080" y="1320"/>
      <point x="902" y="1490"/>
      <point x="654" y="1490" type="curve" smooth="yes"/>
      <point x="168" y="1490" type="line"/>
    </contour>
  </outline>
</glyph>
<glyph name="Q" format="2">
  <advance width="1402"/>
  <unicode hex="0051"/>
  <anchor x="702" y="0" name="bottom"/>
  <anchor x="702" y="745" name="center"/>
  <anchor x="1318" y="744" name="ogonek"/>
  <anchor x="206" y="1490" name="tonos"/>
  <anchor x="702" y="1490" name="top"/>
  <anchor x="702" y="1506" name="tophorn"/>
  <outline>
    <contour>
      <point x="760" y="466" type="line"/>
      <point x="1018" y="122" type="line"/>
      <point x="1028" y="110" type="line"/>
      <point x="1216" y="-140" type="line"/>
      <point x="1274" y="-140" type="line"/>
      <point x="1068" y="134" type="line"/>
      <point x="1058" y="146" type="line"/>
      <point x="818" y="466" type="line"/>
    </contour>
    <component base="O"/>
  </outline>
</glyph>
<glyph name="R" format="2">
  <advance width="1184"/>
  <unicode hex="0052"/>
  <anchor x="596" y="0" name="bottom"/>
  <anchor x="596" y="1490" name="top"/>
  <outline>
    <contour>
      <point x="168" y="0" type="line"/>
      <point x="214" y="0" type="line"/>
      <point x="214" y="1444" type="line"/>
      <point x="654" y="1444" type="line" smooth="yes"/>
      <point x="877" y="1444"/>
      <point x="1034" y="1293"/>
      <point x="1034" y="1064" type="curve" smooth="yes"/>
      <point x="1034" y="838"/>
      <point x="877" y="688"/>
      <point x="654" y="688" type="curve" smooth="yes"/>
      <point x="192" y="688" type="line"/>
      <point x="192" y="642" type="line"/>
      <point x="654" y="642" type="line" smooth="yes"/>
      <point x="903" y="642"/>
      <point x="1080" y="811"/>
      <point x="1080" y="1064" type="curve" smooth="yes"/>
      <point x="1080" y="1320"/>
      <point x="902" y="1490"/>
      <point x="654" y="1490" type="curve" smooth="yes"/>
      <point x="168" y="1490" type="line"/>
    </contour>
    <contour>
      <point x="1042" y="0" type="line"/>
      <point x="1094" y="0" type="line"/>
      <point x="736" y="678" type="line"/>
      <point x="684" y="678" type="line"/>
    </contour>
  </outline>
</glyph>
<glyph name="S" format="2">
  <advance width="1126"/>
  <unicode hex="0053"/>
  <anchor x="564" y="0" name="bottom"/>
  <anchor x="564" y="0" name="cedilla"/>
  <anchor x="564" y="1490" name="top"/>
  <outline>
    <contour>
      <point x="558" y="-22" type="curve" smooth="yes"/>
      <point x="841" y="-22"/>
      <point x="1032" y="145"/>
      <point x="1032" y="378" type="curve" smooth="yes"/>
      <point x="1032" y="561"/>
      <point x="915" y="677"/>
      <point x="658" y="756" type="curve" smooth="yes"/>
      <point x="488" y="808" type="line" smooth="yes"/>
      <point x="277" y="873"/>
      <point x="174" y="979"/>
      <point x="174" y="1128" type="curve" smooth="yes"/>
      <point x="174" y="1324"/>
      <point x="343" y="1466"/>
      <point x="570" y="1466" type="curve" smooth="yes"/>
      <point x="801" y="1466"/>
      <point x="951" y="1321"/>
      <point x="966" y="1118" type="curve"/>
      <point x="1012" y="1118" type="line"/>
      <point x="998" y="1347"/>
      <point x="825" y="1512"/>
      <point x="570" y="1512" type="curve" smooth="yes"/>
      <point x="316" y="1512"/>
      <point x="128" y="1348"/>
      <point x="128" y="1128" type="curve" smooth="yes"/>
      <point x="128" y="956"/>
      <point x="243" y="837"/>
      <point x="478" y="764" type="curve" smooth="yes"/>
      <point x="646" y="712" type="line" smooth="yes"/>
      <point x="887" y="637"/>
      <point x="986" y="538"/>
      <point x="986" y="378" type="curve" smooth="yes"/>
      <point x="986" y="167"/>
      <point x="815" y="24"/>
      <point x="558" y="24" type="curve" smooth="yes"/>
      <point x="313" y="24"/>
      <point x="154" y="156"/>
      <point x="140" y="350" type="curve"/>
      <point x="94" y="350" type="line"/>
      <point x="108" y="130"/>
      <point x="287" y="-22"/>
    </contour>
  </outline>
</glyph>
<glyph name="T" format="2">
  <advance width="1206"/>
  <unicode hex="0054"/>
  <anchor x="603" y="0" name="bottom"/>
  <anchor x="626" y="0" name="bottomr"/>
  <anchor x="603" y="0" name="cedilla"/>
  <anchor x="602" y="768" name="cross"/>
  <anchor x="626" y="0" name="cyrtic"/>
  <anchor x="614" y="0" name="right"/>
  <anchor x="602" y="1490" name="top"/>
  <outline>
    <contour>
      <point x="60" y="1444" type="line"/>
      <point x="580" y="1444" type="line"/>
      <point x="580" y="0" type="line"/>
      <point x="626" y="0" type="line"/>
      <point x="626" y="1444" type="line"/>
      <point x="1146" y="1444" type="line"/>
      <point x="1146" y="1490" type="line"/>
      <point x="60" y="1490" type="line"/>
    </contour>
  </outline>
</glyph>
<glyph name="U" format="2">
  <advance width="1352"/>
  <unicode hex="0055"/>
  <anchor x="676" y="0" name="bottom"/>
  <anchor x="1212" y="510" name="ogonek"/>
  <anchor x="738" y="0" name="right"/>
  <anchor x="1164" y="1490" name="rtophorn"/>
  <anchor x="676" y="1490" name="top"/>
  <outline>
    <contour>
      <point x="676" y="-16" type="curve" smooth="yes"/>
      <point x="982" y="-16"/>
      <point x="1212" y="207"/>
      <point x="1212" y="510" type="curve" smooth="yes"/>
      <point x="1212" y="1490" type="line"/>
      <point x="1166" y="1490" type="line"/>
      <point x="1166" y="510" type="line" smooth="yes"/>
      <point x="1166" y="234"/>
      <point x="957" y="30"/>
      <point x="676" y="30" type="curve" smooth="yes"/>
      <point x="395" y="30"/>
      <point x="186" y="234"/>
      <point x="186" y="510" type="curve" smooth="yes"/>
      <point x="186" y="1490" type="line"/>
      <point x="140" y="1490" type="line"/>
      <point x="140" y="510" type="line" smooth="yes"/>
      <point x="140" y="208"/>
      <point x="371" y="-16"/>
    </contour>
  </outline>
</glyph>
<glyph name="V" format="2">
  <advance width="1218"/>
  <unicode hex="0056"/>
  <anchor x="609" y="0" name="bottom"/>
  <anchor x="609" y="1490" name="top"/>
  <outline>
    <contour>
      <point x="578" y="0" type="line"/>
      <point x="641" y="0" type="line"/>
      <point x="1198" y="1490" type="line"/>
      <point x="1149" y="1490" type="line"/>
      <point x="719" y="336" type="line" smooth="yes"/>
      <point x="679" y="229"/>
      <point x="640" y="123"/>
      <point x="601" y="16" type="curve"/>
      <point x="619" y="16" type="line"/>
      <point x="580" y="123"/>
      <point x="541" y="229"/>
      <point x="501" y="336" type="curve" smooth="yes"/>
      <point x="69" y="1490" type="line"/>
      <point x="20" y="1490" type="line"/>
    </contour>
  </outline>
</glyph>
<glyph name="W" format="2">
  <advance width="1810"/>
  <unicode hex="0057"/>
  <anchor x="905" y="0" name="bottom"/>
  <anchor x="905" y="1490" name="top"/>
  <outline>
    <contour>
      <point x="442" y="0" type="line"/>
      <point x="512" y="0" type="line"/>
      <point x="813" y="1104" type="line" smooth="yes"/>
      <point x="846" y="1227"/>
      <point x="879" y="1349"/>
      <point x="912" y="1472" type="curve"/>
      <point x="898" y="1472" type="line"/>
      <point x="931" y="1349"/>
      <point x="964" y="1227"/>
      <point x="997" y="1104" type="curve" smooth="yes"/>
      <point x="1298" y="0" type="line"/>
      <point x="1368" y="0" type="line"/>
      <point x="1790" y="1490" type="line"/>
      <point x="1742" y="1490" type="line"/>
      <point x="1420" y="352" type="line" smooth="yes"/>
      <point x="1388" y="240"/>
      <point x="1358" y="128"/>
      <point x="1326" y="16" type="curve"/>
      <point x="1340" y="16" type="line"/>
      <point x="1310" y="128"/>
      <point x="1280" y="240"/>
      <point x="1250" y="352" type="curve" smooth="yes"/>
      <point x="940" y="1490" type="line"/>
      <point x="870" y="1490" type="line"/>
      <point x="560" y="352" type="line" smooth="yes"/>
      <point x="530" y="240"/>
      <point x="500" y="128"/>
      <point x="470" y="16" type="curve"/>
      <point x="484" y="16" type="line"/>
      <point x="452" y="128"/>
      <point x="422" y="240"/>
      <point x="390" y="352" type="curve" smooth="yes"/>
      <point x="68" y="1490" type="line"/>
      <point x="20" y="1490" type="line"/>
    </contour>
  </outline>
</glyph>
<glyph name="X" format="2">
  <advance width="1188"/>
  <unicode hex="0058"/>
  <anchor x="594" y="0" name="bottom"/>
  <anchor x="594" y="756" name="cross"/>
  <anchor x="1134" y="0" name="cyrtic"/>
  <anchor x="594" y="1490" name="top"/>
  <outline>
    <contour>
      <point x="25" y="0" type="line"/>
      <point x="81" y="0" type="line"/>
      <point x="435" y="496" type="line" smooth="yes"/>
      <point x="492" y="575"/>
      <point x="547" y="655"/>
      <point x="603" y="734" type="curve"/>
      <point x="585" y="734" type="line"/>
      <point x="641" y="655"/>
      <point x="696" y="575"/>
      <point x="753" y="496" type="curve" smooth="yes"/>
      <point x="1107" y="0" type="line"/>
      <point x="1163" y="0" type="line"/>
      <point x="610" y="774" type="line"/>
      <point x="610" y="739" type="line"/>
      <point x="1147" y="1490" type="line"/>
      <point x="1091" y="1490" type="line"/>
      <point x="757" y="1024" type="line" smooth="yes"/>
      <point x="698" y="942"/>
      <point x="641" y="861"/>
      <point x="584" y="779" type="curve"/>
      <point x="604" y="779" type="line"/>
      <point x="547" y="861"/>
      <point x="490" y="942"/>
      <point x="431" y="1024" type="curve" smooth="yes"/>
      <point x="97" y="1490" type="line"/>
      <point x="41" y="1490" type="line"/>
      <point x="578" y="739" type="line"/>
      <point x="578" y="774" type="line"/>
    </contour>
  </outline>
</glyph>
<glyph name="Y" format="2">
  <advance width="1220"/>
  <unicode hex="0059"/>
  <anchor x="611" y="0" name="bottom"/>
  <anchor x="611" y="433" name="cross"/>
  <anchor x="634" y="0" name="ogonek"/>
  <anchor x="20" y="1490" name="tonos"/>
  <anchor x="610" y="1490" name="top"/>
  <outline>
    <contour>
      <point x="588" y="0" type="line"/>
      <point x="634" y="0" type="line"/>
      <point x="634" y="706" type="line"/>
      <point x="1200" y="1490" type="line"/>
      <point x="1144" y="1490" type="line"/>
      <point x="785" y="992" type="line" smooth="yes"/>
      <point x="723" y="907"/>
      <point x="663" y="821"/>
      <point x="602" y="736" type="curve"/>
      <point x="620" y="736" type="line"/>
      <point x="559" y="821"/>
      <point x="499" y="907"/>
      <point x="437" y="992" type="curve" smooth="yes"/>
      <point x="76" y="1490" type="line"/>
      <point x="20" y="1490" type="line"/>
      <point x="588" y="706" type="line"/>
    </contour>
  </outline>
</glyph>
<glyph name="Z" format="2">
  <advance width="1218"/>
  <unicode hex="005A"/>
  <anchor x="609" y="0" name="bottom"/>
  <anchor x="1143" y="0" name="bottomr"/>
  <anchor x="603" y="744" name="cross"/>
  <anchor x="609" y="1490" name="top"/>
  <outline>
    <contour>
      <point x="75" y="0" type="line"/>
      <point x="1143" y="0" type="line"/>
      <point x="1143" y="46" type="line"/>
      <point x="426" y="46" type="line" smooth="yes"/>
      <point x="321" y="46"/>
      <point x="215" y="46"/>
      <point x="110" y="46" type="curve"/>
      <point x="110" y="24" type="line"/>
      <point x="172" y="109"/>
      <point x="233" y="194"/>
      <point x="295" y="279" type="curve" smooth="yes"/>
      <point x="1135" y="1436" type="line"/>
      <point x="1135" y="1490" type="line"/>
      <point x="116" y="1490" type="line"/>
      <point x="116" y="1444" type="line"/>
      <point x="786" y="1444" type="line" smooth="yes"/>
      <point x="891" y="1444"/>
      <point x="995" y="1444"/>
      <point x="1100" y="1444" type="curve"/>
      <point x="1100" y="1466" type="line"/>
      <point x="1037" y="1380"/>
      <point x="975" y="1293"/>
      <point x="912" y="1207" type="curve" smooth="yes"/>
      <point x="75" y="54" type="line"/>
    </contour>
  </outline>
</glyph>
<glyph name="bracketleft" format="2">
  <advance width="518"/>
  <unicode hex="005B"/>
  <anchor x="215" y="636" name="cross"/>
  <outline>
    <contour>
      <point x="192" y="-295" type="line"/>
      <point x="424" y="-295" type="line"/>
      <point x="424" y="-249" type="line"/>
      <point x="238" y="-249" type="line"/>
      <point x="238" y="1521" type="line"/>
      <point x="424" y="1521" type="line"/>
      <point x="424" y="1567" type="line"/>
      <point x="192" y="1567" type="line"/>
    </contour>
  </outline>
</glyph>
<glyph name="backslash" format="2">
  <advance width="532"/>
  <unicode hex="005C"/>
  <outline>
    <contour>
      <point x="482" y="-224" type="line"/>
      <point x="530" y="-224" type="line"/>
      <point x="50" y="1560" type="line"/>
      <point x="2" y="1560" type="line"/>
    </contour>
  </outline>
</glyph>
<glyph name="bracketright" format="2">
  <advance width="518"/>
  <unicode hex="005D"/>
  <anchor x="303" y="636" name="cross"/>
  <outline>
    <contour>
      <point x="94" y="-295" type="line"/>
      <point x="326" y="-295" type="line"/>
      <point x="326" y="1567" type="line"/>
      <point x="94" y="1567" type="line"/>
      <point x="94" y="1521" type="line"/>
      <point x="280" y="1521" type="line"/>
      <point x="280" y="-249" type="line"/>
      <point x="94" y="-249" type="line"/>
    </contour>
  </outline>
</glyph>
<glyph name="asciicircum" format="2">
  <advance width="692"/>
  <unicode hex="005E"/>
  <outline>
    <contour>
      <point x="332" y="1414" type="line"/>
      <point x="332" y="1368" type="line"/>
      <point x="360" y="1368" type="line"/>
      <point x="360" y="1414" type="line"/>
    </contour>
    <contour>
      <point x="32" y="814" type="line"/>
      <point x="84" y="814" type="line"/>
      <point x="358" y="1396" type="line"/>
      <point x="334" y="1396" type="line"/>
      <point x="608" y="814" type="line"/>
      <point x="660" y="814" type="line"/>
      <point x="364" y="1442" type="line"/>
      <point x="328" y="1442" type="line"/>
    </contour>
  </outline>
</glyph>
<glyph name="b" format="2">
  <advance width="1118"/>
  <unicode hex="0062"/>
  <anchor x="580" y="0" name="bottom"/>
  <anchor x="180" y="1262" name="cross"/>
  <anchor x="588" y="1262" name="top"/>
  <anchor x="134" y="1490" name="topbar"/>
  <outline>
    <contour>
      <point x="588" y="-16" type="curve" smooth="yes"/>
      <point x="853" y="-16"/>
      <point x="1052" y="197"/>
      <point x="1052" y="528" type="curve" smooth="yes"/>
      <point x="1052" y="856"/>
      <point x="850" y="1072"/>
      <point x="588" y="1072" type="curve" smooth="yes"/>
      <point x="387" y="1072"/>
      <point x="220" y="939"/>
      <point x="181" y="770" type="curve"/>
      <point x="180" y="770" type="line"/>
      <point x="180" y="1490" type="line"/>
      <point x="134" y="1490" type="line"/>
      <point x="134" y="0" type="line"/>
      <point x="180" y="0" type="line"/>
      <point x="180" y="280" type="line"/>
      <point x="181" y="280" type="line"/>
      <point x="225" y="113"/>
      <point x="387" y="-16"/>
    </contour>
    <contour>
      <point x="588" y="30" type="curve" smooth="yes"/>
      <point x="344" y="30"/>
      <point x="180" y="222"/>
      <point x="180" y="528" type="curve" smooth="yes"/>
      <point x="180" y="834"/>
      <point x="344" y="1026"/>
      <point x="588" y="1026" type="curve" smooth="yes"/>
      <point x="825" y="1026"/>
      <point x="1006" y="834"/>
      <point x="1006" y="528" type="curve" smooth="yes"/>
      <point x="1006" y="222"/>
      <point x="825" y="30"/>
    </contour>
  </outline>
</glyph>
<glyph name="c" format="2">
  <advance width="1018"/>
  <unicode hex="0063"/>
  <anchor x="530" y="0" name="bottom"/>
  <anchor x="530" y="0" name="cedilla"/>
  <anchor x="530" y="528" name="center"/>
  <anchor x="530" y="1056" name="top"/>
  <anchor x="952" y="712" name="topr"/>
  <outline>
    <contour>
      <point x="530" y="-16" type="curve" smooth="yes"/>
      <point x="745" y="-16"/>
      <point x="909" y="128"/>
      <point x="952" y="344" type="curve"/>
      <point x="905" y="344" type="line"/>
      <point x="864" y="153"/>
      <point x="719" y="30"/>
      <point x="530" y="30" type="curve" smooth="yes"/>
      <point x="285" y="30"/>
      <point x="112" y="236"/>
      <point x="112" y="528" type="curve" smooth="yes"/>
      <point x="112" y="820"/>
      <point x="285" y="1026"/>
      <point x="530" y="1026" type="curve" smooth="yes"/>
      <point x="719" y="1026"/>
      <point x="864" y="903"/>
      <point x="905" y="712" type="curve"/>
      <point x="952" y="712" type="line"/>
      <point x="909" y="928"/>
      <point x="745" y="1072"/>
      <point x="530" y="1072" type="curve" smooth="yes"/>
      <point x="257" y="1072"/>
      <point x="66" y="843"/>
      <point x="66" y="528" type="curve" smooth="yes"/>
      <point x="66" y="213"/>
      <point x="257" y="-16"/>
    </contour>
  </outline>
</glyph>
<glyph name="e" format="2">
  <advance width="1048"/>
  <unicode hex="0065"/>
  <anchor x="526" y="0" name="bottom"/>
  <anchor x="530" y="0" name="cedilla"/>
  <anchor x="968" y="316" name="ogonek"/>
  <anchor x="526" y="1056" name="top"/>
  <outline>
    <contour>
      <point x="530" y="-16" type="curve" smooth="yes"/>
      <point x="736" y="-16"/>
      <point x="919" y="115"/>
      <point x="968" y="316" type="curve"/>
      <point x="920" y="316" type="line"/>
      <point x="874" y="141"/>
      <point x="709" y="30"/>
      <point x="530" y="30" type="curve" smooth="yes"/>
      <point x="285" y="30"/>
      <point x="112" y="236"/>
      <point x="112" y="528" type="curve" smooth="yes"/>
      <point x="112" y="530" type="line" smooth="yes"/>
      <point x="112" y="821"/>
      <point x="286" y="1026"/>
      <point x="530" y="1026" type="curve" smooth="yes"/>
      <point x="763" y="1026"/>
      <point x="939" y="834"/>
      <point x="939" y="566" type="curve"/>
      <point x="956" y="574" type="line"/>
      <point x="90" y="574" type="line"/>
      <point x="90" y="528" type="line"/>
      <point x="986" y="528" type="line"/>
      <point x="986" y="552" type="line" smooth="yes"/>
      <point x="986" y="847"/>
      <point x="801" y="1072"/>
      <point x="530" y="1072" type="curve" smooth="yes"/>
      <point x="257" y="1072"/>
      <point x="66" y="843"/>
      <point x="66" y="528" type="curve" smooth="yes"/>
      <point x="66" y="213"/>
      <point x="257" y="-16"/>
    </contour>
  </outline>
</glyph>
<glyph name="f" format="2">
  <advance width="486"/>
  <unicode hex="0066"/>
  <anchor x="211" y="0" name="bottom"/>
  <anchor x="211" y="745" name="cross"/>
  <anchor x="290" y="1490" name="top"/>
  <outline>
    <contour>
      <point x="466" y="1056" type="line"/>
      <point x="0" y="1056" type="line"/>
      <point x="0" y="1010" type="line"/>
      <point x="466" y="1010" type="line"/>
    </contour>
    <component base="_part.f_base" xOffset="-42"/>
  </outline>
</glyph>
<glyph name="g" format="2">
  <advance width="1118"/>
  <unicode hex="0067"/>
  <anchor x="554" y="-436" name="bottom"/>
  <anchor x="960" y="528" name="cross"/>
  <anchor x="530" y="1056" name="top"/>
  <anchor x="984" y="1056" name="topr"/>
  <outline>
    <contour>
      <point x="538" y="-427" type="curve" smooth="yes"/>
      <point x="824" y="-427"/>
      <point x="984" y="-258"/>
      <point x="984" y="0" type="curve" smooth="yes"/>
      <point x="984" y="1056" type="line"/>
      <point x="938" y="1056" type="line"/>
      <point x="938" y="770" type="line"/>
      <point x="937" y="770" type="line"/>
      <point x="898" y="939"/>
      <point x="731" y="1072"/>
      <point x="530" y="1072" type="curve" smooth="yes"/>
      <point x="268" y="1072"/>
      <point x="66" y="856"/>
      <point x="66" y="528" type="curve" smooth="yes"/>
      <point x="66" y="197"/>
      <point x="265" y="-16"/>
      <point x="530" y="-16" type="curve" smooth="yes"/>
      <point x="731" y="-16"/>
      <point x="893" y="113"/>
      <point x="937" y="280" type="curve"/>
      <point x="938" y="280" type="line"/>
      <point x="938" y="0" type="line" smooth="yes"/>
      <point x="938" y="-231"/>
      <point x="797" y="-381"/>
      <point x="538" y="-381" type="curve" smooth="yes"/>
      <point x="318" y="-381"/>
      <point x="200" y="-274"/>
      <point x="166" y="-112" type="curve"/>
      <point x="119" y="-112" type="line"/>
      <point x="156" y="-300"/>
      <point x="289" y="-427"/>
    </contour>
    <contour>
      <point x="530" y="30" type="curve" smooth="yes"/>
      <point x="293" y="30"/>
      <point x="112" y="222"/>
      <point x="112" y="528" type="curve" smooth="yes"/>
      <point x="112" y="834"/>
      <point x="293" y="1026"/>
      <point x="530" y="1026" type="curve" smooth="yes"/>
      <point x="774" y="1026"/>
      <point x="938" y="834"/>
      <point x="938" y="528" type="curve" smooth="yes"/>
      <point x="938" y="222"/>
      <point x="774" y="30"/>
    </contour>
  </outline>
</glyph>
<glyph name="h" format="2">
  <advance width="1068"/>
  <unicode hex="0068"/>
  <anchor x="534" y="0" name="bottom"/>
  <anchor x="157" y="0" name="cedilla"/>
  <anchor x="180" y="1262" name="cross"/>
  <anchor x="888" y="0" name="lfthook"/>
  <anchor x="157" y="1490" name="top"/>
  <outline>
    <contour>
      <point x="180" y="688" type="line" smooth="yes"/>
      <point x="180" y="884"/>
      <point x="336" y="1026"/>
      <point x="544" y="1026" type="curve" smooth="yes"/>
      <point x="747" y="1026"/>
      <point x="888" y="891"/>
      <point x="888" y="688" type="curve" smooth="yes"/>
      <point x="888" y="0" type="line"/>
      <point x="934" y="0" type="line"/>
      <point x="934" y="688" type="line" smooth="yes"/>
      <point x="934" y="917"/>
      <point x="773" y="1072"/>
      <point x="544" y="1072" type="curve" smooth="yes"/>
      <point x="374" y="1072"/>
      <point x="216" y="987"/>
      <point x="168" y="816" type="curve"/>
      <point x="180" y="816" type="line"/>
      <point x="180" y="1490" type="line"/>
      <point x="134" y="1490" type="line"/>
      <point x="134" y="0" type="line"/>
      <point x="180" y="0" type="line"/>
    </contour>
  </outline>
</glyph>
<glyph name="l" format="2">
  <advance width="314"/>
  <unicode hex="006C"/>
  <anchor x="158" y="0" name="bottom"/>
  <anchor x="180" y="0" name="bottomr"/>
  <anchor x="180" y="745" name="centerr"/>
  <anchor x="158" y="768" name="cross"/>
  <anchor x="318" y="1490" name="raccent"/>
  <anchor x="157" y="1490" name="top"/>
  <outline>
    <contour>
      <point x="180" y="1490" type="line"/>
      <point x="134" y="1490" type="line"/>
      <point x="134" y="0" type="line"/>
      <point x="180" y="0" type="line"/>
    </contour>
  </outline>
</glyph>
<glyph name="m" format="2">
  <advance width="1646"/>
  <unicode hex="006D"/>
  <anchor x="823" y="0" name="bottom"/>
  <anchor x="1466" y="0" name="lfthook"/>
  <anchor x="823" y="1056" name="top"/>
  <outline>
    <contour>
      <point x="134" y="0" type="line"/>
      <point x="180" y="0" type="line"/>
      <point x="180" y="688" type="line" smooth="yes"/>
      <point x="180" y="885"/>
      <point x="324" y="1026"/>
      <point x="512" y="1026" type="curve" smooth="yes"/>
      <point x="687" y="1026"/>
      <point x="800" y="904"/>
      <point x="800" y="688" type="curve" smooth="yes"/>
      <point x="800" y="0" type="line"/>
      <point x="846" y="0" type="line"/>
      <point x="846" y="688" type="line" smooth="yes"/>
      <point x="846" y="904"/>
      <point x="991" y="1026"/>
      <point x="1172" y="1026" type="curve" smooth="yes"/>
      <point x="1352" y="1026"/>
      <point x="1466" y="904"/>
      <point x="1466" y="688" type="curve" smooth="yes"/>
      <point x="1466" y="0" type="line"/>
      <point x="1512" y="0" type="line"/>
      <point x="1512" y="688" type="line" smooth="yes"/>
      <point x="1512" y="925"/>
      <point x="1381" y="1072"/>
      <point x="1172" y="1072" type="curve" smooth="yes"/>
      <point x="996" y="1072"/>
      <point x="853" y="967"/>
      <point x="815" y="800" type="curve"/>
      <point x="833" y="800" type="line"/>
      <point x="804" y="967"/>
      <point x="677" y="1072"/>
      <point x="512" y="1072" type="curve" smooth="yes"/>
      <point x="364" y="1072"/>
      <point x="206" y="987"/>
      <point x="164" y="816" type="curve"/>
      <point x="180" y="816" type="line"/>
      <point x="180" y="1056" type="line"/>
      <point x="134" y="1056" type="line"/>
    </contour>
  </outline>
</glyph>
<glyph name="n" format="2">
  <advance width="1068"/>
  <unicode hex="006E"/>
  <anchor x="534" y="0" name="bottom"/>
  <anchor x="934" y="0" name="bottomr"/>
  <anchor x="134" y="0" name="lfthook"/>
  <anchor x="536" y="1056" name="top"/>
  <anchor x="180" y="1056" name="topr"/>
  <outline>
    <contour>
      <point x="180" y="688" type="line" smooth="yes"/>
      <point x="180" y="884"/>
      <point x="336" y="1026"/>
      <point x="544" y="1026" type="curve" smooth="yes"/>
      <point x="747" y="1026"/>
      <point x="888" y="891"/>
      <point x="888" y="688" type="curve" smooth="yes"/>
      <point x="888" y="0" type="line"/>
      <point x="934" y="0" type="line"/>
      <point x="934" y="688" type="line" smooth="yes"/>
      <point x="934" y="917"/>
      <point x="773" y="1072"/>
      <point x="544" y="1072" type="curve" smooth="yes"/>
      <point x="374" y="1072"/>
      <point x="216" y="987"/>
      <point x="168" y="816" type="curve"/>
      <point x="180" y="816" type="line"/>
      <point x="180" y="1056" type="line"/>
      <point x="134" y="1056" type="line"/>
      <point x="134" y="0" type="line"/>
      <point x="180" y="0" type="line"/>
    </contour>
  </outline>
</glyph>
<glyph name="o" format="2">
  <advance width="1058"/>
  <unicode hex="006F"/>
  <anchor x="530" y="0" name="bottom"/>
  <anchor x="530" y="528" name="center"/>
  <anchor x="992" y="528" name="ogonek"/>
  <anchor x="530" y="1056" name="top"/>
  <anchor x="530" y="1072" name="tophorn"/>
  <outline>
    <contour>
      <point x="530" y="-16" type="curve" smooth="yes"/>
      <point x="802" y="-16"/>
      <point x="992" y="213"/>
      <point x="992" y="528" type="curve" smooth="yes"/>
      <point x="992" y="843"/>
      <point x="802" y="1072"/>
      <point x="530" y="1072" type="curve" smooth="yes"/>
      <point x="257" y="1072"/>
      <point x="66" y="843"/>
      <point x="66" y="528" type="curve" smooth="yes"/>
      <point x="66" y="213"/>
      <point x="257" y="-16"/>
    </contour>
    <contour>
      <point x="530" y="30" type="curve" smooth="yes"/>
      <point x="285" y="30"/>
      <point x="112" y="236"/>
      <point x="112" y="528" type="curve" smooth="yes"/>
      <point x="112" y="820"/>
      <point x="285" y="1026"/>
      <point x="530" y="1026" type="curve" smooth="yes"/>
      <point x="774" y="1026"/>
      <point x="946" y="820"/>
      <point x="946" y="528" type="curve" smooth="yes"/>
      <point x="946" y="236"/>
      <point x="774" y="30"/>
    </contour>
  </outline>
</glyph>
<glyph name="p" format="2">
  <advance width="1118"/>
  <unicode hex="0070"/>
  <anchor x="157" y="-418" name="bottom"/>
  <anchor x="157" y="-162" name="cross"/>
  <anchor x="588" y="1056" name="top"/>
  <anchor x="180" y="1056" name="topr"/>
  <outline>
    <contour>
      <point x="134" y="-418" type="line"/>
      <point x="180" y="-418" type="line"/>
      <point x="180" y="280" type="line"/>
      <point x="181" y="280" type="line"/>
      <point x="225" y="113"/>
      <point x="387" y="-16"/>
      <point x="588" y="-16" type="curve" smooth="yes"/>
      <point x="853" y="-16"/>
      <point x="1052" y="197"/>
      <point x="1052" y="528" type="curve" smooth="yes"/>
      <point x="1052" y="856"/>
      <point x="850" y="1072"/>
      <point x="588" y="1072" type="curve" smooth="yes"/>
      <point x="387" y="1072"/>
      <point x="220" y="939"/>
      <point x="181" y="770" type="curve"/>
      <point x="180" y="770" type="line"/>
      <point x="180" y="1056" type="line"/>
      <point x="134" y="1056" type="line"/>
    </contour>
    <contour>
      <point x="588" y="30" type="curve" smooth="yes"/>
      <point x="344" y="30"/>
      <point x="180" y="222"/>
      <point x="180" y="528" type="curve" smooth="yes"/>
      <point x="180" y="834"/>
      <point x="344" y="1026"/>
      <point x="588" y="1026" type="curve" smooth="yes"/>
      <point x="825" y="1026"/>
      <point x="1006" y="834"/>
      <point x="1006" y="528" type="curve" smooth="yes"/>
      <point x="1006" y="222"/>
      <point x="825" y="30"/>
    </contour>
  </outline>
</glyph>
<glyph name="r" format="2">
  <advance width="538"/>
  <unicode hex="0072"/>
  <anchor x="158" y="0" name="bottom"/>
  <anchor x="180" y="0" name="bottomr"/>
  <anchor x="158" y="536" name="cross"/>
  <anchor x="364" y="1056" name="top"/>
  <outline>
    <contour>
      <point x="134" y="0" type="line"/>
      <point x="180" y="0" type="line"/>
      <point x="180" y="680" type="line" smooth="yes"/>
      <point x="180" y="875"/>
      <point x="323" y="1016"/>
      <point x="520" y="1016" type="curve" smooth="yes"/>
      <point x="532" y="1016"/>
      <point x="536" y="1016"/>
      <point x="544" y="1016" type="curve"/>
      <point x="544" y="1062" type="line"/>
      <point x="532" y="1062"/>
      <point x="532" y="1062"/>
      <point x="520" y="1062" type="curve" smooth="yes"/>
      <point x="367" y="1062"/>
      <point x="233" y="984"/>
      <point x="181" y="859" type="curve"/>
      <point x="180" y="859" type="line"/>
      <point x="180" y="1056" type="line"/>
      <point x="134" y="1056" type="line"/>
    </contour>
  </outline>
</glyph>
<glyph name="s" format="2">
  <advance width="915"/>
  <unicode hex="0073"/>
  <anchor x="461" y="0" name="bottom"/>
  <anchor x="453" y="0" name="cedilla"/>
  <anchor x="80" y="316" name="rthook"/>
  <anchor x="461" y="1056" name="top"/>
  <outline>
    <contour>
      <point x="460" y="-14" type="curve" smooth="yes"/>
      <point x="689" y="-14"/>
      <point x="835" y="110"/>
      <point x="835" y="292" type="curve" smooth="yes"/>
      <point x="835" y="432"/>
      <point x="741" y="489"/>
      <point x="570" y="529" type="curve" smooth="yes"/>
      <point x="385" y="572" type="line" smooth="yes"/>
      <point x="230" y="608"/>
      <point x="147" y="661"/>
      <point x="147" y="777" type="curve" smooth="yes"/>
      <point x="147" y="926"/>
      <point x="272" y="1024"/>
      <point x="461" y="1024" type="curve" smooth="yes"/>
      <point x="650" y="1024"/>
      <point x="756" y="926"/>
      <point x="774" y="740" type="curve"/>
      <point x="820" y="740" type="line"/>
      <point x="805" y="949"/>
      <point x="675" y="1070"/>
      <point x="461" y="1070" type="curve" smooth="yes"/>
      <point x="246" y="1070"/>
      <point x="101" y="953"/>
      <point x="101" y="777" type="curve" smooth="yes"/>
      <point x="101" y="638"/>
      <point x="196" y="570"/>
      <point x="377" y="527" type="curve" smooth="yes"/>
      <point x="560" y="484" type="line" smooth="yes"/>
      <point x="709" y="449"/>
      <point x="789" y="408"/>
      <point x="789" y="292" type="curve" smooth="yes"/>
      <point x="789" y="137"/>
      <point x="663" y="32"/>
      <point x="460" y="32" type="curve" smooth="yes"/>
      <point x="253" y="32"/>
      <point x="134" y="143"/>
      <point x="126" y="316" type="curve"/>
      <point x="80" y="316" type="line"/>
      <point x="88" y="118"/>
      <point x="228" y="-14"/>
    </contour>
  </outline>
</glyph>
<glyph name="u" format="2">
  <advance width="1068"/>
  <unicode hex="0075"/>
  <anchor x="534" y="0" name="bottom"/>
  <anchor x="934" y="0" name="ogonek"/>
  <anchor x="888" y="1056" name="rtophorn"/>
  <anchor x="534" y="1056" name="top"/>
  <outline>
    <contour>
      <point x="524" y="-16" type="curve" smooth="yes"/>
      <point x="694" y="-16"/>
      <point x="852" y="69"/>
      <point x="900" y="240" type="curve"/>
      <point x="888" y="240" type="line"/>
      <point x="888" y="0" type="line"/>
      <point x="934" y="0" type="line"/>
      <point x="934" y="1056" type="line"/>
      <point x="888" y="1056" type="line"/>
      <point x="888" y="368" type="line" smooth="yes"/>
      <point x="888" y="172"/>
      <point x="732" y="30"/>
      <point x="524" y="30" type="curve" smooth="yes"/>
      <point x="321" y="30"/>
      <point x="180" y="165"/>
      <point x="180" y="368" type="curve" smooth="yes"/>
      <point x="180" y="1056" type="line"/>
      <point x="134" y="1056" type="line"/>
      <point x="134" y="368" type="line" smooth="yes"/>
      <point x="134" y="139"/>
      <point x="295" y="-16"/>
    </contour>
  </outline>
</glyph>
<glyph name="v" format="2">
  <advance width="998"/>
  <unicode hex="0076"/>
  <anchor x="499" y="0" name="bottom"/>
  <anchor x="499" y="1056" name="top"/>
  <outline>
    <contour>
      <point x="471" y="0" type="line"/>
      <point x="527" y="0" type="line"/>
      <point x="963" y="1056" type="line"/>
      <point x="914" y="1056" type="line"/>
      <point x="617" y="336" type="line" smooth="yes"/>
      <point x="575" y="235"/>
      <point x="534" y="131"/>
      <point x="493" y="30" type="curve"/>
      <point x="505" y="30" type="line"/>
      <point x="464" y="131"/>
      <point x="423" y="235"/>
      <point x="381" y="336" type="curve" smooth="yes"/>
      <point x="84" y="1056" type="line"/>
      <point x="35" y="1056" type="line"/>
    </contour>
  </outline>
</glyph>
<glyph name="w" format="2">
  <advance width="1473"/>
  <unicode hex="0077"/>
  <anchor x="739" y="0" name="bottom"/>
  <anchor x="739" y="1056" name="top"/>
  <outline>
    <contour>
      <point x="343" y="0" type="line"/>
      <point x="407" y="0" type="line"/>
      <point x="690" y="864" type="line" smooth="yes"/>
      <point x="709" y="923"/>
      <point x="727" y="981"/>
      <point x="746" y="1040" type="curve"/>
      <point x="727" y="1040" type="line"/>
      <point x="746" y="981"/>
      <point x="764" y="923"/>
      <point x="783" y="864" type="curve" smooth="yes"/>
      <point x="1066" y="0" type="line"/>
      <point x="1130" y="0" type="line"/>
      <point x="1438" y="1056" type="line"/>
      <point x="1391" y="1056" type="line"/>
      <point x="1167" y="288" type="line" smooth="yes"/>
      <point x="1141" y="197"/>
      <point x="1116" y="107"/>
      <point x="1090" y="16" type="curve"/>
      <point x="1106" y="16" type="line"/>
      <point x="1077" y="107"/>
      <point x="1049" y="197"/>
      <point x="1019" y="288" type="curve" smooth="yes"/>
      <point x="767" y="1056" type="line"/>
      <point x="706" y="1056" type="line"/>
      <point x="454" y="288" type="line" smooth="yes"/>
      <point x="424" y="197"/>
      <point x="396" y="107"/>
      <point x="367" y="16" type="curve"/>
      <point x="383" y="16" type="line"/>
      <point x="357" y="107"/>
      <point x="332" y="197"/>
      <point x="306" y="288" type="curve" smooth="yes"/>
      <point x="82" y="1056" type="line"/>
      <point x="35" y="1056" type="line"/>
    </contour>
  </outline>
</glyph>
<glyph name="x" format="2">
  <advance width="974"/>
  <unicode hex="0078"/>
  <anchor x="487" y="0" name="bottom"/>
  <anchor x="899" y="0" name="cyrtic"/>
  <anchor x="761" y="0" name="right"/>
  <anchor x="487" y="1056" name="top"/>
  <outline>
    <contour>
      <point x="35" y="0" type="line"/>
      <point x="93" y="0" type="line"/>
      <point x="330" y="304" type="line" smooth="yes"/>
      <point x="387" y="377"/>
      <point x="443" y="449"/>
      <point x="500" y="522" type="curve"/>
      <point x="474" y="522" type="line"/>
      <point x="531" y="449"/>
      <point x="587" y="377"/>
      <point x="644" y="304" type="curve" smooth="yes"/>
      <point x="881" y="0" type="line"/>
      <point x="939" y="0" type="line"/>
      <point x="504" y="557" type="line"/>
      <point x="504" y="523" type="line"/>
      <point x="920" y="1056" type="line"/>
      <point x="862" y="1056" type="line"/>
      <point x="650" y="784" type="line" smooth="yes"/>
      <point x="591" y="709"/>
      <point x="533" y="633"/>
      <point x="474" y="558" type="curve"/>
      <point x="500" y="558" type="line"/>
      <point x="441" y="633"/>
      <point x="383" y="709"/>
      <point x="324" y="784" type="curve" smooth="yes"/>
      <point x="112" y="1056" type="line"/>
      <point x="54" y="1056" type="line"/>
      <point x="470" y="523" type="line"/>
      <point x="470" y="557" type="line"/>
    </contour>
  </outline>
</glyph>
<glyph name="y" format="2">
  <advance width="998"/>
  <unicode hex="0079"/>
  <anchor x="662" y="0" name="bottom"/>
  <anchor x="528" y="0" name="ogonek"/>
  <anchor x="499" y="1056" name="top"/>
  <outline>
    <contour>
      <point x="115" y="-418" type="line"/>
      <point x="154" y="-418"/>
      <point x="166" y="-418"/>
      <point x="203" y="-418" type="curve" smooth="yes"/>
      <point x="331" y="-418"/>
      <point x="375" y="-377"/>
      <point x="443" y="-211" type="curve" smooth="yes"/>
      <point x="963" y="1056" type="line"/>
      <point x="914" y="1056" type="line"/>
      <point x="618" y="336" type="line" smooth="yes"/>
      <point x="576" y="234"/>
      <point x="535" y="132"/>
      <point x="493" y="30" type="curve"/>
      <point x="508" y="30" type="line"/>
      <point x="467" y="132"/>
      <point x="425" y="234"/>
      <point x="383" y="336" type="curve" smooth="yes"/>
      <point x="84" y="1056" type="line"/>
      <point x="35" y="1056" type="line"/>
      <point x="477" y="-8" type="line"/>
      <point x="400" y="-195" type="line" smooth="yes"/>
      <point x="339" y="-344"/>
      <point x="309" y="-372"/>
      <point x="203" y="-372" type="curve" smooth="yes"/>
      <point x="115" y="-372" type="line"/>
    </contour>
  </outline>
</glyph>
<glyph name="z" format="2">
  <advance width="914"/>
  <unicode hex="007A"/>
  <anchor x="457" y="0" name="bottom"/>
  <anchor x="835" y="0" name="bottomr"/>
  <anchor x="455" y="528" name="cross"/>
  <anchor x="459" y="1056" name="top"/>
  <outline>
    <contour>
      <point x="79" y="0" type="line"/>
      <point x="835" y="0" type="line"/>
      <point x="835" y="46" type="line"/>
      <point x="136" y="46" type="line"/>
      <point x="136" y="47" type="line"/>
      <point x="829" y="1008" type="line"/>
      <point x="829" y="1056" type="line"/>
      <point x="89" y="1056" type="line"/>
      <point x="89" y="1010" type="line"/>
      <point x="774" y="1010" type="line"/>
      <point x="774" y="1009" type="line"/>
      <point x="79" y="46" type="line"/>
    </contour>
  </outline>
</glyph>
<glyph name="braceleft" format="2">
  <advance width="682"/>
  <unicode hex="007B"/>
  <outline>
    <contour>
      <point x="108" y="614" type="line"/>
      <point x="302" y="614"/>
      <point x="370" y="683"/>
      <point x="370" y="874" type="curve" smooth="yes"/>
      <point x="370" y="1256" type="line" smooth="yes"/>
      <point x="370" y="1442"/>
      <point x="436" y="1521"/>
      <point x="588" y="1521" type="curve"/>
      <point x="588" y="1567" type="line"/>
      <point x="408" y="1567"/>
      <point x="324" y="1467"/>
      <point x="324" y="1256" type="curve" smooth="yes"/>
      <point x="324" y="874" type="line" smooth="yes"/>
      <point x="324" y="708"/>
      <point x="276" y="660"/>
      <point x="108" y="660" type="curve"/>
    </contour>
    <contour>
      <point x="588" y="-295" type="curve"/>
      <point x="588" y="-249" type="line"/>
      <point x="436" y="-249"/>
      <point x="370" y="-169"/>
      <point x="370" y="16" type="curve" smooth="yes"/>
      <point x="370" y="398" type="line" smooth="yes"/>
      <point x="370" y="589"/>
      <point x="302" y="660"/>
      <point x="108" y="660" type="curve"/>
      <point x="108" y="614" type="line"/>
      <point x="276" y="614"/>
      <point x="324" y="564"/>
      <point x="324" y="398" type="curve" smooth="yes"/>
      <point x="324" y="16" type="line" smooth="yes"/>
      <point x="324" y="-194"/>
      <point x="408" y="-295"/>
    </contour>
    <contour>
      <point x="108" y="614" type="line"/>
      <point x="256" y="614" type="line"/>
      <point x="256" y="660" type="line"/>
      <point x="108" y="660" type="line"/>
    </contour>
  </outline>
</glyph>
<glyph name="bar" format="2">
  <advance width="430"/>
  <unicode hex="007C"/>
  <outline>
    <contour>
      <point x="238" y="1970" type="line"/>
      <point x="192" y="1970" type="line"/>
      <point x="192" y="-480" type="line"/>
      <point x="238" y="-480" type="line"/>
    </contour>
  </outline>
</glyph>
<glyph name="braceright" format="2">
  <advance width="682"/>
  <unicode hex="007D"/>
  <outline>
    <contour>
      <point x="574" y="614" type="curve"/>
      <point x="574" y="660" type="line"/>
      <point x="406" y="660"/>
      <point x="358" y="708"/>
      <point x="358" y="874" type="curve" smooth="yes"/>
      <point x="358" y="1256" type="line" smooth="yes"/>
      <point x="358" y="1467"/>
      <point x="274" y="1567"/>
      <point x="94" y="1567" type="curve"/>
      <point x="94" y="1521" type="line"/>
      <point x="246" y="1521"/>
      <point x="312" y="1442"/>
      <point x="312" y="1256" type="curve" smooth="yes"/>
      <point x="312" y="874" type="line" smooth="yes"/>
      <point x="312" y="683"/>
      <point x="380" y="614"/>
    </contour>
    <contour>
      <point x="94" y="-295" type="line"/>
      <point x="274" y="-295"/>
      <point x="358" y="-194"/>
      <point x="358" y="16" type="curve" smooth="yes"/>
      <point x="358" y="398" type="line" smooth="yes"/>
      <point x="358" y="564"/>
      <point x="406" y="614"/>
      <point x="574" y="614" type="curve"/>
      <point x="574" y="660" type="line"/>
      <point x="380" y="660"/>
      <point x="312" y="589"/>
      <point x="312" y="398" type="curve" smooth="yes"/>
      <point x="312" y="16" type="line" smooth="yes"/>
      <point x="312" y="-169"/>
      <point x="246" y="-249"/>
      <point x="94" y="-249" type="curve"/>
    </contour>
    <contour>
      <point x="574" y="614" type="line"/>
      <point x="574" y="660" type="line"/>
      <point x="426" y="660" type="line"/>
      <point x="426" y="614" type="line"/>
    </contour>
  </outline>
</glyph>
<glyph name="asciitilde" format="2">
  <advance width="1176"/>
  <unicode hex="007E"/>
  <outline>
    <contour>
      <point x="128" y="488" type="curve"/>
      <point x="174" y="482" type="line"/>
      <point x="188" y="577"/>
      <point x="274" y="644"/>
      <point x="390" y="642" type="curve" smooth="yes"/>
      <point x="475" y="642"/>
      <point x="531" y="604"/>
      <point x="590" y="564" type="curve" smooth="yes"/>
      <point x="649" y="525"/>
      <point x="708" y="484"/>
      <point x="794" y="482" type="curve" smooth="yes"/>
      <point x="917" y="482"/>
      <point x="1017" y="561"/>
      <point x="1048" y="674" type="curve"/>
      <point x="1000" y="686" type="line"/>
      <point x="977" y="594"/>
      <point x="896" y="530"/>
      <point x="794" y="530" type="curve" smooth="yes"/>
      <point x="723" y="530"/>
      <point x="674" y="564"/>
      <point x="616" y="602" type="curve" smooth="yes"/>
      <point x="557" y="642"/>
      <point x="489" y="690"/>
      <point x="390" y="690" type="curve" smooth="yes"/>
      <point x="252" y="690"/>
      <point x="145" y="607"/>
    </contour>
  </outline>
</glyph>
<glyph name="exclamdown" format="2">
  <advance width="400"/>
  <unicode hex="00A1"/>
  <outline>
    <contour>
      <point x="177" y="-418" type="line"/>
      <point x="223" y="-418" type="line"/>
      <point x="223" y="722" type="line"/>
      <point x="177" y="722" type="line"/>
    </contour>
    <contour>
      <point x="200" y="964" type="curve" smooth="yes"/>
      <point x="230" y="964"/>
      <point x="254" y="988"/>
      <point x="254" y="1018" type="curve" smooth="yes"/>
      <point x="254" y="1048"/>
      <point x="230" y="1072"/>
      <point x="200" y="1072" type="curve" smooth="yes"/>
      <point x="170" y="1072"/>
      <point x="146" y="1048"/>
      <point x="146" y="1018" type="curve" smooth="yes"/>
      <point x="146" y="988"/>
      <point x="170" y="964"/>
    </contour>
  </outline>
</glyph>
<glyph name="cent" format="2">
  <advance width="1018"/>
  <unicode hex="00A2"/>
  <anchor x="530" y="217" name="bottom"/>
  <anchor x="530" y="217" name="cedilla"/>
  <anchor x="530" y="745" name="center"/>
  <anchor x="530" y="1273" name="top"/>
  <anchor x="952" y="929" name="topr"/>
  <outline>
    <contour>
      <point x="504" y="0" type="line"/>
      <point x="550" y="0" type="line"/>
      <point x="550" y="1490" type="line"/>
      <point x="504" y="1490" type="line"/>
    </contour>
    <component base="c" yOffset="217"/>
  </outline>
</glyph>
<glyph name="sterling" format="2">
  <advance width="1099"/>
  <unicode hex="00A3"/>
  <outline>
    <contour>
      <point x="78" y="8" type="line"/>
      <point x="234" y="8"/>
      <point x="321" y="124"/>
      <point x="311" y="317" type="curve" smooth="yes"/>
      <point x="274" y="1057" type="line" smooth="yes"/>
      <point x="262" y="1299"/>
      <point x="409" y="1460"/>
      <point x="630" y="1460" type="curve" smooth="yes"/>
      <point x="840" y="1460"/>
      <point x="973" y="1319"/>
      <point x="973" y="1118" type="curve"/>
      <point x="1019" y="1118" type="line"/>
      <point x="1019" y="1344"/>
      <point x="865" y="1506"/>
      <point x="630" y="1506" type="curve" smooth="yes"/>
      <point x="380" y="1506"/>
      <point x="215" y="1320"/>
      <point x="228" y="1055" type="curve" smooth="yes"/>
      <point x="265" y="315" type="line" smooth="yes"/>
      <point x="274" y="142"/>
      <point x="208" y="46"/>
      <point x="78" y="46" type="curve"/>
    </contour>
    <contour>
      <point x="70" y="0" type="line"/>
      <point x="814" y="0" type="line" smooth="yes"/>
      <point x="951" y="0"/>
      <point x="1019" y="68"/>
      <point x="1019" y="205" type="curve" smooth="yes"/>
      <point x="1019" y="252" type="line"/>
      <point x="973" y="252" type="line"/>
      <point x="973" y="205" type="line" smooth="yes"/>
      <point x="973" y="93"/>
      <point x="926" y="46"/>
      <point x="814" y="46" type="curve" smooth="yes"/>
      <point x="70" y="46" type="line"/>
    </contour>
    <contour>
      <point x="70" y="699" type="line"/>
      <point x="727" y="699" type="line"/>
      <point x="727" y="745" type="line"/>
      <point x="70" y="745" type="line"/>
    </contour>
  </outline>
</glyph>
<glyph name="currency" format="2">
  <advance width="1266"/>
  <unicode hex="00A4"/>
  <outline>
    <contour>
      <point x="630" y="-20" type="curve" smooth="yes"/>
      <point x="959" y="-20"/>
      <point x="1210" y="253"/>
      <point x="1210" y="608" type="curve" smooth="yes"/>
      <point x="1210" y="963"/>
      <point x="959" y="1234"/>
      <point x="630" y="1234" type="curve" smooth="yes"/>
      <point x="305" y="1234"/>
      <point x="52" y="963"/>
      <point x="52" y="608" type="curve" smooth="yes"/>
      <point x="52" y="253"/>
      <point x="305" y="-20"/>
    </contour>
    <contour>
      <point x="630" y="26" type="curve" smooth="yes"/>
      <point x="332" y="26"/>
      <point x="98" y="279"/>
      <point x="98" y="608" type="curve" smooth="yes"/>
      <point x="98" y="938"/>
      <point x="333" y="1186"/>
      <point x="630" y="1186" type="curve" smooth="yes"/>
      <point x="929" y="1186"/>
      <point x="1164" y="938"/>
      <point x="1164" y="608" type="curve" smooth="yes"/>
      <point x="1162" y="279"/>
      <point x="931" y="26"/>
    </contour>
    <contour>
      <point x="1046" y="1004" type="line"/>
      <point x="1220" y="1184" type="line"/>
      <point x="1190" y="1218" type="line"/>
      <point x="1016" y="1038" type="line"/>
    </contour>
    <contour>
      <point x="1190" y="0" type="line"/>
      <point x="1220" y="34" type="line"/>
      <point x="1046" y="214" type="line"/>
      <point x="1016" y="180" type="line"/>
    </contour>
    <contour>
      <point x="72" y="0" type="line"/>
      <point x="246" y="180" type="line"/>
      <point x="216" y="214" type="line"/>
      <point x="40" y="34" type="line"/>
    </contour>
    <contour>
      <point x="216" y="1004" type="line"/>
      <point x="246" y="1038" type="line"/>
      <point x="72" y="1218" type="line"/>
      <point x="40" y="1184" type="line"/>
    </contour>
  </outline>
</glyph>
<glyph name="yen" format="2">
  <advance width="942"/>
  <unicode hex="00A5"/>
  <outline>
    <contour>
      <point x="32" y="1490" type="line"/>
      <point x="-20" y="1490" type="line"/>
      <point x="442" y="642" type="line"/>
      <point x="494" y="642" type="line"/>
    </contour>
    <contour>
      <point x="448" y="642" type="line"/>
      <point x="500" y="642" type="line"/>
      <point x="962" y="1490" type="line"/>
      <point x="910" y="1490" type="line"/>
    </contour>
    <contour>
      <point x="494" y="692" type="line"/>
      <point x="448" y="692" type="line"/>
      <point x="448" y="0" type="line"/>
      <point x="494" y="0" type="line"/>
    </contour>
    <contour>
      <point x="844" y="666" type="line"/>
      <point x="98" y="666" type="line"/>
      <point x="98" y="620" type="line"/>
      <point x="844" y="620" type="line"/>
    </contour>
    <contour>
      <point x="844" y="488" type="line"/>
      <point x="98" y="488" type="line"/>
      <point x="98" y="442" type="line"/>
      <point x="844" y="442" type="line"/>
    </contour>
  </outline>
</glyph>
<glyph name="section" format="2">
  <advance width="946"/>
  <unicode hex="00A7"/>
  <outline>
    <contour>
      <point x="472" y="-302" type="curve" smooth="yes"/>
      <point x="670" y="-302"/>
      <point x="824" y="-185"/>
      <point x="824" y="0" type="curve" smooth="yes"/>
      <point x="824" y="102"/>
      <point x="775" y="173"/>
      <point x="633" y="262" type="curve"/>
      <point x="633" y="263" type="line"/>
      <point x="739" y="245"/>
      <point x="882" y="335"/>
      <point x="882" y="500" type="curve" smooth="yes"/>
      <point x="882" y="635"/>
      <point x="787" y="706"/>
      <point x="546" y="852" type="curve" smooth="yes"/>
      <point x="424" y="926" type="line" smooth="yes"/>
      <point x="262" y="1024"/>
      <point x="198" y="1083"/>
      <point x="198" y="1198" type="curve" smooth="yes"/>
      <point x="198" y="1347"/>
      <point x="307" y="1460"/>
      <point x="479" y="1460" type="curve" smooth="yes"/>
      <point x="641" y="1460"/>
      <point x="750" y="1363"/>
      <point x="750" y="1198" type="curve"/>
      <point x="796" y="1198" type="line"/>
      <point x="796" y="1389"/>
      <point x="667" y="1506"/>
      <point x="479" y="1506" type="curve" smooth="yes"/>
      <point x="281" y="1506"/>
      <point x="152" y="1373"/>
      <point x="152" y="1198" type="curve" smooth="yes"/>
      <point x="152" y="1070"/>
      <point x="222" y="1008"/>
      <point x="316" y="939" type="curve"/>
      <point x="316" y="938" type="line"/>
      <point x="210" y="951"/>
      <point x="64" y="869"/>
      <point x="64" y="704" type="curve" smooth="yes"/>
      <point x="64" y="569"/>
      <point x="163" y="494"/>
      <point x="404" y="348" type="curve" smooth="yes"/>
      <point x="528" y="273" type="line" smooth="yes"/>
      <point x="744" y="143"/>
      <point x="778" y="90"/>
      <point x="778" y="0" type="curve" smooth="yes"/>
      <point x="778" y="-161"/>
      <point x="643" y="-256"/>
      <point x="472" y="-256" type="curve" smooth="yes"/>
      <point x="286" y="-256"/>
      <point x="154" y="-144"/>
      <point x="154" y="24" type="curve"/>
      <point x="108" y="24" type="line"/>
      <point x="108" y="-174"/>
      <point x="264" y="-302"/>
    </contour>
    <contour>
      <point x="526" y="328" type="curve" smooth="yes"/>
      <point x="424" y="390" type="line" smooth="yes"/>
      <point x="200" y="526"/>
      <point x="110" y="591"/>
      <point x="110" y="704" type="curve" smooth="yes"/>
      <point x="110" y="857"/>
      <point x="272" y="965"/>
      <point x="433" y="867" type="curve" smooth="yes"/>
      <point x="530" y="808" type="line" smooth="yes"/>
      <point x="754" y="672"/>
      <point x="836" y="613"/>
      <point x="836" y="500" type="curve" smooth="yes"/>
      <point x="836" y="347"/>
      <point x="683" y="233"/>
    </contour>
  </outline>
</glyph>
<glyph name="copyright" format="2">
  <advance width="1744"/>
  <unicode hex="00A9"/>
  <outline>
    <contour>
      <point x="462" y="744" type="curve" smooth="yes"/>
      <point x="461" y="506"/>
      <point x="655" y="312"/>
      <point x="894" y="312" type="curve" smooth="yes"/>
      <point x="1065" y="312"/>
      <point x="1199" y="413"/>
      <point x="1254" y="558" type="curve"/>
      <point x="1202" y="558" type="line"/>
      <point x="1151" y="439"/>
      <point x="1039" y="360"/>
      <point x="894" y="360" type="curve" smooth="yes"/>
      <point x="681" y="360"/>
      <point x="508" y="532"/>
      <point x="508" y="744" type="curve" smooth="yes"/>
      <point x="508" y="959"/>
      <point x="681" y="1130"/>
      <point x="894" y="1130" type="curve" smooth="yes"/>
      <point x="1039" y="1130"/>
      <point x="1151" y="1050"/>
      <point x="1202" y="930" type="curve"/>
      <point x="1254" y="930" type="line"/>
      <point x="1199" y="1076"/>
      <point x="1065" y="1176"/>
      <point x="894" y="1176" type="curve" smooth="yes"/>
      <point x="655" y="1176"/>
      <point x="461" y="983"/>
    </contour>
    <component base="circlewhite"/>
  </outline>
</glyph>
<glyph name="ordfeminine" format="2">
  <advance width="808"/>
  <unicode hex="00AA"/>
  <anchor x="395" y="648" name="bottom"/>
  <anchor x="701" y="648" name="ogonek"/>
  <anchor x="392" y="1493" name="top"/>
  <outline>
    <contour>
      <point x="344" y="635" type="curve" smooth="yes"/>
      <point x="491" y="635"/>
      <point x="607" y="708"/>
      <point x="654" y="818" type="curve"/>
      <point x="656" y="818" type="line"/>
      <point x="656" y="648" type="line"/>
      <point x="701" y="648" type="line"/>
      <point x="701" y="1239" type="line" smooth="yes"/>
      <point x="701" y="1392"/>
      <point x="567" y="1506"/>
      <point x="392" y="1506" type="curve" smooth="yes"/>
      <point x="214" y="1506"/>
      <point x="80" y="1389"/>
      <point x="79" y="1240" type="curve"/>
      <point x="124" y="1240" type="line"/>
      <point x="125" y="1365"/>
      <point x="241" y="1462"/>
      <point x="392" y="1462" type="curve" smooth="yes"/>
      <point x="541" y="1462"/>
      <point x="656" y="1366"/>
      <point x="656" y="1239" type="curve" smooth="yes"/>
      <point x="656" y="1218" type="line" smooth="yes"/>
      <point x="656" y="1147"/>
      <point x="556" y="1130"/>
      <point x="405" y="1110" type="curve" smooth="yes"/>
      <point x="155" y="1077"/>
      <point x="57" y="1013"/>
      <point x="57" y="872" type="curve" smooth="yes"/>
      <point x="57" y="711"/>
      <point x="195" y="635"/>
    </contour>
    <contour>
      <point x="346" y="679" type="curve" smooth="yes"/>
      <point x="212" y="679"/>
      <point x="102" y="745"/>
      <point x="102" y="871" type="curve" smooth="yes"/>
      <point x="102" y="984"/>
      <point x="184" y="1036"/>
      <point x="408" y="1067" type="curve" smooth="yes"/>
      <point x="545" y="1086"/>
      <point x="612" y="1099"/>
      <point x="656" y="1137" type="curve"/>
      <point x="656" y="996" type="line" smooth="yes"/>
      <point x="656" y="788"/>
      <point x="517" y="679"/>
    </contour>
  </outline>
</glyph>
<glyph name="logicalnot" format="2">
  <advance width="1176"/>
  <unicode hex="00AC"/>
  <outline>
    <contour>
      <point x="882" y="315" type="line"/>
      <point x="928" y="315" type="line"/>
      <point x="928" y="689" type="line"/>
      <point x="196" y="689" type="line"/>
      <point x="196" y="643" type="line"/>
      <point x="882" y="643" type="line"/>
    </contour>
  </outline>
</glyph>
<glyph name="registered" format="2">
  <advance width="1292"/>
  <unicode hex="00AE"/>
  <outline>
    <contour>
      <point x="646" y="346" type="curve" smooth="yes"/>
      <point x="968" y="346"/>
      <point x="1228" y="607"/>
      <point x="1228" y="928" type="curve" smooth="yes"/>
      <point x="1228" y="1249"/>
      <point x="968" y="1510"/>
      <point x="646" y="1510" type="curve" smooth="yes"/>
      <point x="325" y="1510"/>
      <point x="64" y="1249"/>
      <point x="64" y="928" type="curve" smooth="yes"/>
      <point x="64" y="607"/>
      <point x="325" y="346"/>
    </contour>
    <contour>
      <point x="646" y="392" type="curve" smooth="yes"/>
      <point x="351" y="392"/>
      <point x="112" y="632"/>
      <point x="112" y="928" type="curve" smooth="yes"/>
      <point x="112" y="1224"/>
      <point x="351" y="1464"/>
      <point x="646" y="1464" type="curve" smooth="yes"/>
      <point x="943" y="1464"/>
      <point x="1182" y="1224"/>
      <point x="1182" y="928" type="curve" smooth="yes"/>
      <point x="1182" y="632"/>
      <point x="943" y="392"/>
    </contour>
    <contour>
      <point x="825" y="666" type="line"/>
      <point x="878" y="666" type="line"/>
      <point x="744" y="908" type="line"/>
      <point x="694" y="908" type="line"/>
    </contour>
    <contour>
      <point x="462" y="666" type="line"/>
      <point x="508" y="666" type="line"/>
      <point x="508" y="1156" type="line"/>
      <point x="682" y="1156" type="line" smooth="yes"/>
      <point x="767" y="1156"/>
      <point x="810" y="1114"/>
      <point x="810" y="1042" type="curve" smooth="yes"/>
      <point x="810" y="972"/>
      <point x="767" y="926"/>
      <point x="682" y="926" type="curve" smooth="yes"/>
      <point x="486" y="926" type="line"/>
      <point x="486" y="880" type="line"/>
      <point x="684" y="880" type="line" smooth="yes"/>
      <point x="794" y="880"/>
      <point x="856" y="950"/>
      <point x="856" y="1042" type="curve" smooth="yes"/>
      <point x="856" y="1136"/>
      <point x="794" y="1202"/>
      <point x="684" y="1202" type="curve" smooth="yes"/>
      <point x="462" y="1202" type="line"/>
    </contour>
  </outline>
</glyph>
<glyph name="degree" format="2">
  <advance width="802"/>
  <unicode hex="00B0"/>
  <outline>
    <contour>
      <point x="402" y="904" type="curve" smooth="yes"/>
      <point x="569" y="905"/>
      <point x="704" y="1040"/>
      <point x="704" y="1208" type="curve" smooth="yes"/>
      <point x="704" y="1375"/>
      <point x="569" y="1510"/>
      <point x="402" y="1510" type="curve" smooth="yes"/>
      <point x="234" y="1510"/>
      <point x="98" y="1375"/>
      <point x="98" y="1208" type="curve" smooth="yes"/>
      <point x="98" y="1040"/>
      <point x="234" y="905"/>
    </contour>
    <contour>
      <point x="402" y="952" type="curve" smooth="yes"/>
      <point x="260" y="951"/>
      <point x="146" y="1065"/>
      <point x="146" y="1208" type="curve" smooth="yes"/>
      <point x="146" y="1349"/>
      <point x="260" y="1464"/>
      <point x="402" y="1464" type="curve" smooth="yes"/>
      <point x="543" y="1464"/>
      <point x="658" y="1349"/>
      <point x="658" y="1208" type="curve" smooth="yes"/>
      <point x="658" y="1065"/>
      <point x="543" y="951"/>
    </contour>
  </outline>
</glyph>
<glyph name="plusminus" format="2">
  <advance width="1176"/>
  <unicode hex="00B1"/>
  <outline>
    <contour>
      <point x="166" y="140" type="line"/>
      <point x="1010" y="140" type="line"/>
      <point x="1010" y="186" type="line"/>
      <point x="166" y="186" type="line"/>
    </contour>
    <contour>
      <point x="166" y="698" type="line"/>
      <point x="1010" y="698" type="line"/>
      <point x="1010" y="744" type="line"/>
      <point x="166" y="744" type="line"/>
    </contour>
    <contour>
      <point x="564" y="326" type="line"/>
      <point x="610" y="326" type="line"/>
      <point x="610" y="1118" type="line"/>
      <point x="564" y="1118" type="line"/>
    </contour>
  </outline>
</glyph>
<glyph name="two.sups" format="2">
  <advance width="746"/>
  <unicode hex="00B2"/>
  <anchor x="415" y="1190" name="cross"/>
  <anchor x="387" y="1653" name="top"/>
  <outline>
    <contour>
      <point x="94" y="886" type="line"/>
      <point x="652" y="886" type="line"/>
      <point x="652" y="930" type="line"/>
      <point x="160" y="930" type="line"/>
      <point x="160" y="931" type="line"/>
      <point x="443" y="1163" type="line" smooth="yes"/>
      <point x="582" y="1277"/>
      <point x="639" y="1349"/>
      <point x="639" y="1442" type="curve" smooth="yes"/>
      <point x="639" y="1571"/>
      <point x="527" y="1664"/>
      <point x="368" y="1664" type="curve" smooth="yes"/>
      <point x="206" y="1664"/>
      <point x="95" y="1566"/>
      <point x="95" y="1432" type="curve"/>
      <point x="141" y="1432" type="line"/>
      <point x="141" y="1543"/>
      <point x="232" y="1620"/>
      <point x="368" y="1620" type="curve" smooth="yes"/>
      <point x="502" y="1620"/>
      <point x="593" y="1546"/>
      <point x="593" y="1441" type="curve" smooth="yes"/>
      <point x="593" y="1361"/>
      <point x="542" y="1302"/>
      <point x="409" y="1191" type="curve" smooth="yes"/>
      <point x="94" y="928" type="line"/>
    </contour>
  </outline>
</glyph>
<glyph name="three.sups" format="2">
  <advance width="753"/>
  <unicode hex="00B3"/>
  <anchor x="379" y="1653" name="top"/>
  <outline>
    <contour>
      <point x="379" y="875" type="curve" smooth="yes"/>
      <point x="551" y="875"/>
      <point x="671" y="968"/>
      <point x="671" y="1091" type="curve" smooth="yes"/>
      <point x="671" y="1185"/>
      <point x="591" y="1262"/>
      <point x="461" y="1282" type="curve"/>
      <point x="461" y="1283" type="line"/>
      <point x="574" y="1307"/>
      <point x="643" y="1376"/>
      <point x="643" y="1461" type="curve" smooth="yes"/>
      <point x="643" y="1578"/>
      <point x="531" y="1664"/>
      <point x="377" y="1664" type="curve" smooth="yes"/>
      <point x="221" y="1664"/>
      <point x="107" y="1576"/>
      <point x="107" y="1451" type="curve"/>
      <point x="154" y="1451" type="line"/>
      <point x="154" y="1553"/>
      <point x="246" y="1621"/>
      <point x="377" y="1621" type="curve" smooth="yes"/>
      <point x="507" y="1621"/>
      <point x="596" y="1554"/>
      <point x="596" y="1459" type="curve" smooth="yes"/>
      <point x="596" y="1364"/>
      <point x="492" y="1303"/>
      <point x="353" y="1303" type="curve" smooth="yes"/>
      <point x="326" y="1303" type="line"/>
      <point x="326" y="1258" type="line"/>
      <point x="353" y="1258" type="line" smooth="yes"/>
      <point x="511" y="1258"/>
      <point x="624" y="1191"/>
      <point x="624" y="1091" type="curve" smooth="yes"/>
      <point x="624" y="993"/>
      <point x="526" y="919"/>
      <point x="379" y="919" type="curve" smooth="yes"/>
      <point x="237" y="919"/>
      <point x="134" y="990"/>
      <point x="134" y="1095" type="curve"/>
      <point x="86" y="1095" type="line"/>
      <point x="86" y="966"/>
      <point x="212" y="875"/>
    </contour>
  </outline>
</glyph>
<glyph name="micro" format="2">
  <advance width="1096"/>
  <unicode hex="00B5"/>
  <outline>
    <contour>
      <point x="134" y="-418" type="line"/>
      <point x="180" y="-418" type="line"/>
      <point x="180" y="368" type="line"/>
      <point x="144" y="368" type="line"/>
      <point x="144" y="86"/>
      <point x="368" y="-16"/>
      <point x="534" y="-16" type="curve" smooth="yes"/>
      <point x="700" y="-16"/>
      <point x="924" y="86"/>
      <point x="924" y="368" type="curve"/>
      <point x="888" y="368" type="line"/>
      <point x="888" y="198" type="line" smooth="yes"/>
      <point x="888" y="62"/>
      <point x="949" y="0"/>
      <point x="1072" y="0" type="curve" smooth="yes"/>
      <point x="1096" y="0" type="line"/>
      <point x="1096" y="46" type="line"/>
      <point x="1072" y="46" type="line" smooth="yes"/>
      <point x="976" y="46"/>
      <point x="934" y="89"/>
      <point x="934" y="198" type="curve" smooth="yes"/>
      <point x="934" y="1056" type="line"/>
      <point x="888" y="1056" type="line"/>
      <point x="888" y="368" type="line" smooth="yes"/>
      <point x="888" y="175"/>
      <point x="737" y="30"/>
      <point x="534" y="30" type="curve" smooth="yes"/>
      <point x="331" y="30"/>
      <point x="180" y="175"/>
      <point x="180" y="368" type="curve" smooth="yes"/>
      <point x="180" y="1056" type="line"/>
      <point x="134" y="1056" type="line"/>
    </contour>
  </outline>
</glyph>
<glyph name="paragraph" format="2">
  <advance width="975"/>
  <unicode hex="00B6"/>
  <outline>
    <contour>
      <point x="799" y="1442" type="line"/>
      <point x="799" y="1490" type="line"/>
      <point x="537" y="1490" type="line" smooth="yes"/>
      <point x="219" y="1490"/>
      <point x="45" y="1289"/>
      <point x="45" y="1022" type="curve" smooth="yes"/>
      <point x="45" y="751"/>
      <point x="219" y="552"/>
      <point x="537" y="552" type="curve" smooth="yes"/>
      <point x="621" y="552" type="line"/>
      <point x="621" y="1442" type="line"/>
    </contour>
    <contour>
      <point x="761" y="0" type="line"/>
      <point x="807" y="0" type="line"/>
      <point x="807" y="1490" type="line"/>
      <point x="761" y="1490" type="line"/>
    </contour>
  </outline>
</glyph>
<glyph name="one.sups" format="2">
  <advance width="472"/>
  <unicode hex="00B9"/>
  <outline>
    <contour>
      <point x="334" y="1653" type="line"/>
      <point x="279" y="1653" type="line"/>
      <point x="84" y="1539" type="line"/>
      <point x="84" y="1488" type="line"/>
      <point x="286" y="1605" type="line"/>
      <point x="287" y="1605" type="line"/>
      <point x="287" y="886" type="line"/>
      <point x="334" y="886" type="line"/>
    </contour>
  </outline>
</glyph>
<glyph name="ordmasculine" format="2">
  <advance width="850"/>
  <unicode hex="00BA"/>
  <anchor x="426" y="648" name="bottom"/>
  <anchor x="426" y="1070" name="center"/>
  <anchor x="797" y="1070" name="ogonek"/>
  <anchor x="426" y="1493" name="top"/>
  <anchor x="426" y="1506" name="tophorn"/>
  <outline>
    <contour>
      <point x="426" y="635" type="curve" smooth="yes"/>
      <point x="645" y="635"/>
      <point x="797" y="819"/>
      <point x="797" y="1070" type="curve" smooth="yes"/>
      <point x="797" y="1323"/>
      <point x="644" y="1506"/>
      <point x="426" y="1506" type="curve" smooth="yes"/>
      <point x="206" y="1506"/>
      <point x="53" y="1322"/>
      <point x="53" y="1070" type="curve" smooth="yes"/>
      <point x="53" y="818"/>
      <point x="206" y="635"/>
    </contour>
    <contour>
      <point x="426" y="679" type="curve" smooth="yes"/>
      <point x="233" y="679"/>
      <point x="98" y="840"/>
      <point x="98" y="1070" type="curve" smooth="yes"/>
      <point x="98" y="1300"/>
      <point x="233" y="1462"/>
      <point x="426" y="1462" type="curve" smooth="yes"/>
      <point x="618" y="1462"/>
      <point x="752" y="1300"/>
      <point x="752" y="1070" type="curve" smooth="yes"/>
      <point x="752" y="841"/>
      <point x="618" y="679"/>
    </contour>
  </outline>
</glyph>
<glyph name="AE" format="2">
  <advance width="1843"/>
  <unicode hex="00C6"/>
  <anchor x="1208" y="1490" name="top"/>
  <outline>
    <contour>
      <point x="20" y="0" type="line"/>
      <point x="72" y="0" type="line"/>
      <point x="808" y="1444" type="line"/>
      <point x="954" y="1444" type="line"/>
      <point x="954" y="0" type="line"/>
      <point x="1768" y="0" type="line"/>
      <point x="1768" y="46" type="line"/>
      <point x="1000" y="46" type="line"/>
      <point x="1000" y="722" type="line"/>
      <point x="1704" y="722" type="line"/>
      <point x="1704" y="768" type="line"/>
      <point x="1000" y="768" type="line"/>
      <point x="1000" y="1444" type="line"/>
      <point x="1746" y="1444" type="line"/>
      <point x="1746" y="1490" type="line"/>
      <point x="780" y="1490" type="line"/>
    </contour>
    <contour>
      <point x="310" y="504" type="line"/>
      <point x="978" y="504" type="line"/>
      <point x="978" y="550" type="line"/>
      <point x="310" y="550" type="line"/>
    </contour>
  </outline>
</glyph>
<glyph name="multiply" format="2">
  <advance width="1176"/>
  <unicode hex="00D7"/>
  <outline>
    <contour>
      <point x="983" y="154" type="line"/>
      <point x="1015" y="188" type="line"/>
      <point x="195" y="1008" type="line"/>
      <point x="161" y="976" type="line"/>
    </contour>
    <contour>
      <point x="195" y="154" type="line"/>
      <point x="1015" y="976" type="line"/>
      <point x="983" y="1008" type="line"/>
      <point x="161" y="188" type="line"/>
    </contour>
  </outline>
</glyph>
<glyph name="Thorn" format="2">
  <advance width="1082"/>
  <unicode hex="00DE"/>
  <outline>
    <contour>
      <point x="146" y="1490" type="line"/>
      <point x="146" y="0" type="line"/>
      <point x="192" y="0" type="line"/>
      <point x="192" y="1490" type="line"/>
    </contour>
    <contour>
      <point x="172" y="1132" type="line"/>
      <point x="172" y="1086" type="line"/>
      <point x="550" y="1086" type="line" smooth="yes"/>
      <point x="791" y="1086"/>
      <point x="938" y="960"/>
      <point x="938" y="745" type="curve" smooth="yes"/>
      <point x="938" y="531"/>
      <point x="796" y="408"/>
      <point x="550" y="408" type="curve" smooth="yes"/>
      <point x="172" y="408" type="line"/>
      <point x="172" y="362" type="line"/>
      <point x="550" y="362" type="line" smooth="yes"/>
      <point x="822" y="362"/>
      <point x="984" y="502"/>
      <point x="984" y="745" type="curve" smooth="yes"/>
      <point x="984" y="981"/>
      <point x="816" y="1132"/>
      <point x="550" y="1132" type="curve" smooth="yes"/>
    </contour>
  </outline>
</glyph>
<glyph name="germandbls" format="2">
  <advance width="1056"/>
  <unicode hex="00DF"/>
  <outline>
    <contour>
      <point x="168" y="0" type="line"/>
      <point x="214" y="0" type="line"/>
      <point x="214" y="1152" type="line" smooth="yes"/>
      <point x="214" y="1348"/>
      <point x="331" y="1464"/>
      <point x="528" y="1464" type="curve" smooth="yes"/>
      <point x="725" y="1464"/>
      <point x="842" y="1348"/>
      <point x="842" y="1152" type="curve" smooth="yes"/>
      <point x="842" y="928"/>
      <point x="694" y="791"/>
      <point x="450" y="791" type="curve" smooth="yes"/>
      <point x="428" y="791" type="line"/>
      <point x="428" y="749" type="line"/>
      <point x="450" y="749" type="line" smooth="yes"/>
      <point x="732" y="749"/>
      <point x="910" y="606"/>
      <point x="910" y="386" type="curve" smooth="yes"/>
      <point x="910" y="182"/>
      <point x="756" y="46"/>
      <point x="524" y="46" type="curve" smooth="yes"/>
      <point x="422" y="46" type="line"/>
      <point x="422" y="0" type="line"/>
      <point x="524" y="0" type="line" smooth="yes"/>
      <point x="782" y="0"/>
      <point x="956" y="156"/>
      <point x="956" y="386" type="curve" smooth="yes"/>
      <point x="956" y="590"/>
      <point x="817" y="737"/>
      <point x="608" y="771" type="curve"/>
      <point x="608" y="775" type="line"/>
      <point x="790" y="823"/>
      <point x="888" y="960"/>
      <point x="888" y="1152" type="curve" smooth="yes"/>
      <point x="888" y="1373"/>
      <point x="750" y="1510"/>
      <point x="528" y="1510" type="curve" smooth="yes"/>
      <point x="306" y="1510"/>
      <point x="168" y="1373"/>
      <point x="168" y="1152" type="curve" smooth="yes"/>
    </contour>
  </outline>
</glyph>
<glyph name="ae" format="2">
  <advance width="1774"/>
  <unicode hex="00E6"/>
  <anchor x="864" y="1056" name="top"/>
  <outline>
    <contour>
      <point x="412" y="-16" type="curve" smooth="yes"/>
      <point x="596" y="-16"/>
      <point x="834" y="85"/>
      <point x="834" y="438" type="curve"/>
      <point x="838" y="438" type="line"/>
      <point x="835" y="740" type="line"/>
      <point x="835" y="930"/>
      <point x="685" y="1072"/>
      <point x="470" y="1072" type="curve" smooth="yes"/>
      <point x="253" y="1072"/>
      <point x="98" y="928"/>
      <point x="98" y="740" type="curve"/>
      <point x="144" y="740" type="line"/>
      <point x="144" y="902"/>
      <point x="279" y="1026"/>
      <point x="470" y="1026" type="curve" smooth="yes"/>
      <point x="659" y="1026"/>
      <point x="792" y="903"/>
      <point x="792" y="740" type="curve" smooth="yes"/>
      <point x="792" y="438" type="line" smooth="yes"/>
      <point x="792" y="167"/>
      <point x="627" y="30"/>
      <point x="412" y="30" type="curve" smooth="yes"/>
      <point x="245" y="30"/>
      <point x="116" y="118"/>
      <point x="116" y="286" type="curve" smooth="yes"/>
      <point x="116" y="443"/>
      <point x="258" y="528"/>
      <point x="536" y="528" type="curve" smooth="yes"/>
      <point x="1712" y="528" type="line"/>
      <point x="1712" y="552" type="line" smooth="yes"/>
      <point x="1712" y="847"/>
      <point x="1527" y="1072"/>
      <point x="1256" y="1072" type="curve" smooth="yes"/>
      <point x="1006" y="1072"/>
      <point x="825" y="880"/>
      <point x="796" y="606" type="curve"/>
      <point x="796" y="450" type="line"/>
      <point x="825" y="176"/>
      <point x="1006" y="-16"/>
      <point x="1256" y="-16" type="curve" smooth="yes"/>
      <point x="1462" y="-16"/>
      <point x="1645" y="115"/>
      <point x="1694" y="316" type="curve"/>
      <point x="1646" y="316" type="line"/>
      <point x="1600" y="141"/>
      <point x="1435" y="30"/>
      <point x="1256" y="30" type="curve" smooth="yes"/>
      <point x="1011" y="30"/>
      <point x="838" y="236"/>
      <point x="838" y="528" type="curve" smooth="yes"/>
      <point x="838" y="530" type="line" smooth="yes"/>
      <point x="838" y="821"/>
      <point x="1012" y="1026"/>
      <point x="1256" y="1026" type="curve" smooth="yes"/>
      <point x="1489" y="1026"/>
      <point x="1665" y="834"/>
      <point x="1665" y="566" type="curve"/>
      <point x="1682" y="574" type="line"/>
      <point x="536" y="574" type="line" smooth="yes"/>
      <point x="294" y="574"/>
      <point x="70" y="507"/>
      <point x="70" y="286" type="curve" smooth="yes"/>
      <point x="70" y="77"/>
      <point x="228" y="-16"/>
    </contour>
  </outline>
</glyph>
<glyph name="eth" format="2">
  <advance width="1086"/>
  <unicode hex="00F0"/>
  <outline>
    <contour>
      <point x="916" y="1462" type="line"/>
      <point x="904" y="1506" type="line"/>
      <point x="334" y="1248" type="line"/>
      <point x="346" y="1202" type="line"/>
    </contour>
    <contour>
      <point x="544" y="-24" type="curve" smooth="yes"/>
      <point x="812" y="-23"/>
      <point x="1020" y="200"/>
      <point x="1020" y="548" type="curve" smooth="yes"/>
      <point x="1018" y="961"/>
      <point x="769" y="1367"/>
      <point x="366" y="1582" type="curve"/>
      <point x="350" y="1536" type="line"/>
      <point x="642" y="1377"/>
      <point x="848" y="1119"/>
      <point x="942" y="820" type="curve"/>
      <point x="934" y="820" type="line"/>
      <point x="844" y="980"/>
      <point x="711" y="1062"/>
      <point x="544" y="1062" type="curve" smooth="yes"/>
      <point x="276" y="1062"/>
      <point x="66" y="824"/>
      <point x="66" y="520" type="curve" smooth="yes"/>
      <point x="66" y="215"/>
      <point x="276" y="-23"/>
    </contour>
    <contour>
      <point x="544" y="24" type="curve" smooth="yes"/>
      <point x="303" y="23"/>
      <point x="114" y="241"/>
      <point x="114" y="520" type="curve" smooth="yes"/>
      <point x="114" y="796"/>
      <point x="304" y="1016"/>
      <point x="544" y="1016" type="curve" smooth="yes"/>
      <point x="785" y="1016"/>
      <point x="974" y="797"/>
      <point x="974" y="520" type="curve" smooth="yes"/>
      <point x="974" y="241"/>
      <point x="785" y="23"/>
    </contour>
  </outline>
</glyph>
<glyph name="divide" format="2">
  <advance width="1176"/>
  <unicode hex="00F7"/>
  <outline>
    <contour>
      <point x="1010" y="605" type="line"/>
      <point x="166" y="605" type="line"/>
      <point x="166" y="559" type="line"/>
      <point x="1010" y="559" type="line"/>
    </contour>
    <contour>
      <point x="588" y="198" type="curve" smooth="yes"/>
      <point x="617" y="198"/>
      <point x="640" y="221"/>
      <point x="640" y="250" type="curve" smooth="yes"/>
      <point x="640" y="279"/>
      <point x="617" y="302"/>
      <point x="588" y="302" type="curve" smooth="yes"/>
      <point x="559" y="302"/>
      <point x="536" y="279"/>
      <point x="536" y="250" type="curve" smooth="yes"/>
      <point x="536" y="221"/>
      <point x="559" y="198"/>
    </contour>
    <contour>
      <point x="588" y="862" type="curve" smooth="yes"/>
      <point x="617" y="861"/>
      <point x="640" y="884"/>
      <point x="640" y="914" type="curve" smooth="yes"/>
      <point x="640" y="943"/>
      <point x="617" y="966"/>
      <point x="588" y="966" type="curve" smooth="yes"/>
      <point x="559" y="966"/>
      <point x="536" y="943"/>
      <point x="536" y="914" type="curve" smooth="yes"/>
      <point x="536" y="884"/>
      <point x="559" y="861"/>
    </contour>
  </outline>
</glyph>
<glyph name="thorn" format="2">
  <advance width="1118"/>
  <unicode hex="00FE"/>
  <outline>
    <contour>
      <point x="588" y="-16" type="curve" smooth="yes"/>
      <point x="853" y="-16"/>
      <point x="1052" y="197"/>
      <point x="1052" y="528" type="curve" smooth="yes"/>
      <point x="1052" y="856"/>
      <point x="850" y="1072"/>
      <point x="588" y="1072" type="curve" smooth="yes"/>
      <point x="387" y="1072"/>
      <point x="220" y="939"/>
      <point x="181" y="770" type="curve"/>
      <point x="180" y="770" type="line"/>
      <point x="180" y="1490" type="line"/>
      <point x="134" y="1490" type="line"/>
      <point x="134" y="-418" type="line"/>
      <point x="180" y="-418" type="line"/>
      <point x="180" y="280" type="line"/>
      <point x="181" y="280" type="line"/>
      <point x="225" y="113"/>
      <point x="387" y="-16"/>
    </contour>
    <contour>
      <point x="588" y="30" type="curve" smooth="yes"/>
      <point x="344" y="30"/>
      <point x="180" y="222"/>
      <point x="180" y="528" type="curve" smooth="yes"/>
      <point x="180" y="834"/>
      <point x="344" y="1026"/>
      <point x="588" y="1026" type="curve" smooth="yes"/>
      <point x="825" y="1026"/>
      <point x="1006" y="834"/>
      <point x="1006" y="528" type="curve" smooth="yes"/>
      <point x="1006" y="222"/>
      <point x="825" y="30"/>
    </contour>
  </outline>
</glyph>
<glyph name="Hbar" format="2">
  <advance width="1394"/>
  <unicode hex="0126"/>
  <anchor x="698" y="0" name="bottom"/>
  <anchor x="201" y="0" name="cedilla"/>
  <anchor x="1218" y="0" name="cyrtic"/>
  <anchor x="1172" y="0" name="lfthook"/>
  <anchor x="1218" y="0" name="right"/>
  <anchor x="178" y="1490" name="tonos"/>
  <anchor x="698" y="1490" name="top"/>
  <outline>
    <contour>
      <point x="1334" y="1080" type="line"/>
      <point x="60" y="1080" type="line"/>
      <point x="60" y="1032" type="line"/>
      <point x="1334" y="1032" type="line"/>
    </contour>
    <component base="H" xOffset="10"/>
  </outline>
</glyph>
<glyph name="OE" format="2">
  <advance width="1837"/>
  <unicode hex="0152"/>
  <anchor x="1311" y="0" name="bottom"/>
  <anchor x="1308" y="0" name="cedilla"/>
  <anchor x="1762" y="0" name="ogonek"/>
  <anchor x="860" y="1490" name="tonos"/>
  <anchor x="1311" y="1490" name="top"/>
  <outline>
    <contour>
      <point x="702" y="0" type="curve" smooth="yes"/>
      <point x="884" y="0" type="line"/>
      <point x="884" y="46" type="line"/>
      <point x="702" y="46" type="line" smooth="yes"/>
      <point x="359" y="46"/>
      <point x="130" y="332"/>
      <point x="130" y="744" type="curve" smooth="yes"/>
      <point x="130" y="1164"/>
      <point x="364" y="1444"/>
      <point x="702" y="1442" type="curve" smooth="yes"/>
      <point x="884" y="1442" type="line"/>
      <point x="884" y="1490" type="line"/>
      <point x="702" y="1490" type="line" smooth="yes"/>
      <point x="334" y="1490"/>
      <point x="84" y="1188"/>
      <point x="84" y="744" type="curve" smooth="yes"/>
      <point x="84" y="303"/>
      <point x="333" y="0"/>
    </contour>
    <component base="E" xOffset="692"/>
  </outline>
</glyph>
<glyph name="tbar" format="2">
  <advance width="472"/>
  <unicode hex="0167"/>
  <anchor x="308" y="0" name="bottom"/>
  <anchor x="301" y="0" name="cedilla"/>
  <anchor x="442" y="0" name="lfthook"/>
  <anchor x="187" y="1344" name="top"/>
  <anchor x="352" y="1490" name="raccent"/>
  <outline>
    <contour>
      <point x="442" y="745" type="line"/>
      <point x="0" y="745" type="line"/>
      <point x="0" y="699" type="line"/>
      <point x="442" y="699" type="line"/>
    </contour>
    <component base="t"/>
  </outline>
</glyph>
<glyph name="Btopbar" format="2">
  <advance width="1210"/>
  <unicode hex="0182"/>
  <outline>
    <contour>
      <point x="168" y="0" type="line"/>
      <point x="728" y="0" type="line" smooth="yes"/>
      <point x="984" y="0"/>
      <point x="1144" y="155"/>
      <point x="1144" y="404" type="curve" smooth="yes"/>
      <point x="1144" y="631"/>
      <point x="980" y="777"/>
      <point x="728" y="776" type="curve" smooth="yes"/>
      <point x="216" y="776" type="line"/>
      <point x="216" y="1442" type="line"/>
      <point x="978" y="1442" type="line"/>
      <point x="978" y="1490" type="line"/>
      <point x="168" y="1490" type="line"/>
    </contour>
    <contour>
      <point x="216" y="46" type="line"/>
      <point x="216" y="730" type="line"/>
      <point x="728" y="730" type="line" smooth="yes"/>
      <point x="951" y="730"/>
      <point x="1096" y="602"/>
      <point x="1096" y="408" type="curve" smooth="yes"/>
      <point x="1096" y="180"/>
      <point x="960" y="47"/>
      <point x="728" y="46" type="curve" smooth="yes"/>
    </contour>
  </outline>
</glyph>
<glyph name="Tonesix" format="2">
  <advance width="1305"/>
  <unicode hex="0184"/>
  <anchor x="424" y="1176" name="cross"/>
  <outline>
    <contour>
      <point x="59.952" y="988.558" type="line"/>
      <point x="347.514" y="1490" type="line"/>
      <point x="294.486" y="1490" type="line"/>
      <point x="20.048" y="1011.442" type="line"/>
    </contour>
    <component base="Softsign-cy" xOffset="151"/>
  </outline>
</glyph>
<glyph name="tonesix" format="2">
  <advance width="1090"/>
  <unicode hex="0185"/>
  <outline>
    <contour>
      <point x="74.967" y="640.583" type="line"/>
      <point x="312.494" y="1056" type="line"/>
      <point x="259.506" y="1056" type="line"/>
      <point x="35.033" y="663.417" type="line"/>
    </contour>
    <component base="softsigncyrillic" xOffset="152"/>
  </outline>
</glyph>
<glyph name="Dtopbar" format="2">
  <advance width="1082"/>
  <unicode hex="018B"/>
  <outline>
    <contour>
      <point x="1028" y="0" type="line"/>
      <point x="1028" y="1490" type="line"/>
      <point x="220" y="1490" type="line"/>
      <point x="220" y="1442" type="line"/>
      <point x="982" y="1442" type="line"/>
      <point x="982" y="776" type="line"/>
      <point x="470" y="776" type="line" smooth="yes"/>
      <point x="217" y="776"/>
      <point x="54" y="631"/>
      <point x="54" y="404" type="curve" smooth="yes"/>
      <point x="54" y="155"/>
      <point x="213" y="0"/>
      <point x="470" y="0" type="curve" smooth="yes"/>
    </contour>
    <contour>
      <point x="982" y="46" type="line"/>
      <point x="470" y="46" type="line" smooth="yes"/>
      <point x="237" y="46"/>
      <point x="100" y="180"/>
      <point x="100" y="408" type="curve" smooth="yes"/>
      <point x="100" y="602"/>
      <point x="246" y="730"/>
      <point x="470" y="730" type="curve" smooth="yes"/>
      <point x="982" y="730" type="line"/>
    </contour>
  </outline>
</glyph>
<glyph name="deltaturn" format="2">
  <advance width="826"/>
  <unicode hex="018D"/>
  <outline>
    <contour>
      <point x="706" y="-376" type="line"/>
      <point x="706" y="-344" type="line"/>
      <point x="561" y="-182"/>
      <point x="411" y="-22"/>
      <point x="288" y="104" type="curve"/>
      <point x="337" y="95"/>
      <point x="378" y="90"/>
      <point x="414" y="90" type="curve" smooth="yes"/>
      <point x="665" y="90"/>
      <point x="847" y="300"/>
      <point x="846" y="590" type="curve" smooth="yes"/>
      <point x="846" y="600" type="line" smooth="yes"/>
      <point x="846" y="932"/>
      <point x="673" y="1134"/>
      <point x="414" y="1134" type="curve" smooth="yes"/>
      <point x="154" y="1134"/>
      <point x="-20" y="933"/>
      <point x="-20" y="600" type="curve" smooth="yes"/>
      <point x="-20" y="592" type="line" smooth="yes"/>
      <point x="-20" y="425"/>
      <point x="53" y="277"/>
      <point x="222" y="104" type="curve" smooth="yes"/>
      <point x="369" y="-47"/>
      <point x="503" y="-188"/>
      <point x="636" y="-330" type="curve"/>
      <point x="104" y="-328" type="line"/>
      <point x="104" y="-376" type="line"/>
    </contour>
    <contour>
      <point x="800" y="590" type="line" smooth="yes"/>
      <point x="800" y="323"/>
      <point x="639" y="136"/>
      <point x="406" y="136" type="curve" smooth="yes"/>
      <point x="356" y="136"/>
      <point x="301" y="145"/>
      <point x="230" y="162" type="curve"/>
      <point x="86" y="321"/>
      <point x="26" y="446"/>
      <point x="26" y="592" type="curve" smooth="yes"/>
      <point x="26" y="600" type="line" smooth="yes"/>
      <point x="26" y="905"/>
      <point x="180" y="1088"/>
      <point x="414" y="1088" type="curve" smooth="yes"/>
      <point x="649" y="1088"/>
      <point x="800" y="906"/>
      <point x="800" y="600" type="curve" smooth="yes"/>
    </contour>
  </outline>
</glyph>
<glyph name="Schwa" format="2">
  <advance width="1384"/>
  <unicode hex="018F"/>
  <outline>
    <contour>
      <point x="694" y="-20" type="curve" smooth="yes"/>
      <point x="1071" y="-20"/>
      <point x="1300" y="289"/>
      <point x="1300" y="744" type="curve" smooth="yes"/>
      <point x="1300" y="1203"/>
      <point x="1052" y="1510"/>
      <point x="682" y="1510" type="curve" smooth="yes"/>
      <point x="335" y="1510"/>
      <point x="148" y="1236"/>
      <point x="112" y="1024" type="curve"/>
      <point x="159" y="1024" type="line"/>
      <point x="194" y="1227"/>
      <point x="377" y="1464"/>
      <point x="682" y="1464" type="curve" smooth="yes"/>
      <point x="1025" y="1464"/>
      <point x="1254" y="1175"/>
      <point x="1254" y="744" type="curve" smooth="yes"/>
      <point x="1254" y="319"/>
      <point x="1045" y="26"/>
      <point x="694" y="26" type="curve" smooth="yes"/>
      <point x="369" y="26"/>
      <point x="148" y="262"/>
      <point x="148" y="636" type="curve"/>
      <point x="128" y="626" type="line"/>
      <point x="1271" y="626" type="line"/>
      <point x="1271" y="672" type="line"/>
      <point x="102" y="672" type="line"/>
      <point x="102" y="628" type="line" smooth="yes"/>
      <point x="102" y="236"/>
      <point x="346" y="-20"/>
    </contour>
  </outline>
</glyph>
<glyph name="florin" format="2">
  <advance width="480"/>
  <unicode hex="0192"/>
  <outline>
    <contour>
      <point x="462" y="1074" type="line"/>
      <point x="264" y="1074" type="line"/>
      <point x="264" y="1300" type="line" smooth="yes"/>
      <point x="264" y="1431"/>
      <point x="362" y="1510"/>
      <point x="472" y="1510" type="curve" smooth="yes"/>
      <point x="502" y="1510"/>
      <point x="524" y="1505"/>
      <point x="546" y="1496" type="curve"/>
      <point x="562" y="1540" type="line"/>
      <point x="534" y="1551"/>
      <point x="508" y="1556"/>
      <point x="472" y="1556" type="curve" smooth="yes"/>
      <point x="336" y="1556"/>
      <point x="217" y="1457"/>
      <point x="216" y="1300" type="curve" smooth="yes"/>
      <point x="216" y="1074" type="line"/>
      <point x="18" y="1074" type="line"/>
      <point x="18" y="1026" type="line"/>
      <point x="216" y="1026" type="line"/>
      <point x="216" y="-162" type="line" smooth="yes"/>
      <point x="216" y="-294"/>
      <point x="118" y="-372"/>
      <point x="8" y="-372" type="curve" smooth="yes"/>
      <point x="-22" y="-372"/>
      <point x="-44" y="-368"/>
      <point x="-68" y="-360" type="curve"/>
      <point x="-82" y="-402" type="line"/>
      <point x="-54" y="-413"/>
      <point x="-28" y="-418"/>
      <point x="8" y="-418" type="curve" smooth="yes"/>
      <point x="144" y="-418"/>
      <point x="263" y="-320"/>
      <point x="264" y="-162" type="curve" smooth="yes"/>
      <point x="264" y="1026" type="line"/>
      <point x="462" y="1026" type="line"/>
    </contour>
  </outline>
</glyph>
<glyph name="Gamma1" format="2">
  <advance width="930"/>
  <unicode hex="0194"/>
  <outline>
    <contour>
      <point x="-108" y="1490" type="line"/>
      <point x="448" y="110" type="line" smooth="yes"/>
      <point x="559" y="-167"/>
      <point x="588" y="-253"/>
      <point x="588" y="-294" type="curve" smooth="yes"/>
      <point x="588" y="-351"/>
      <point x="537" y="-396"/>
      <point x="466" y="-396" type="curve" smooth="yes"/>
      <point x="391" y="-396"/>
      <point x="342" y="-351"/>
      <point x="342" y="-294" type="curve" smooth="yes"/>
      <point x="342" y="-253"/>
      <point x="375" y="-164"/>
      <point x="478" y="92" type="curve" smooth="yes"/>
      <point x="1042" y="1490" type="line"/>
      <point x="990" y="1490" type="line"/>
      <point x="410" y="50" type="line" smooth="yes"/>
      <point x="314" y="-188"/>
      <point x="296" y="-244"/>
      <point x="296" y="-288" type="curve" smooth="yes"/>
      <point x="296" y="-374"/>
      <point x="361" y="-442"/>
      <point x="466" y="-442" type="curve" smooth="yes"/>
      <point x="569" y="-442"/>
      <point x="634" y="-374"/>
      <point x="634" y="-288" type="curve" smooth="yes"/>
      <point x="634" y="-244"/>
      <point x="611" y="-172"/>
      <point x="514" y="72" type="curve" smooth="yes"/>
      <point x="-56" y="1490" type="line"/>
    </contour>
  </outline>
</glyph>
<glyph name="hv" format="2">
  <advance width="1822"/>
  <unicode hex="0195"/>
  <outline>
    <contour>
      <point x="1220" y="-18" type="curve" smooth="yes"/>
      <point x="1537" y="-18"/>
      <point x="1688" y="321"/>
      <point x="1688" y="1032" type="curve" smooth="yes"/>
      <point x="1688" y="1056" type="line"/>
      <point x="1642" y="1056" type="line"/>
      <point x="1642" y="1032" type="line" smooth="yes"/>
      <point x="1642" y="351"/>
      <point x="1506" y="28"/>
      <point x="1220" y="28" type="curve" smooth="yes"/>
      <point x="1040" y="28"/>
      <point x="934" y="153"/>
      <point x="934" y="440" type="curve" smooth="yes"/>
      <point x="934" y="688" type="line" smooth="yes"/>
      <point x="934" y="917"/>
      <point x="773" y="1072"/>
      <point x="544" y="1072" type="curve" smooth="yes"/>
      <point x="374" y="1072"/>
      <point x="228" y="982"/>
      <point x="182" y="861" type="curve"/>
      <point x="180" y="861" type="line"/>
      <point x="180" y="1490" type="line"/>
      <point x="134" y="1490" type="line"/>
      <point x="134" y="0" type="line"/>
      <point x="180" y="0" type="line"/>
      <point x="180" y="688" type="line" smooth="yes"/>
      <point x="180" y="884"/>
      <point x="336" y="1026"/>
      <point x="544" y="1026" type="curve" smooth="yes"/>
      <point x="747" y="1026"/>
      <point x="888" y="891"/>
      <point x="888" y="688" type="curve" smooth="yes"/>
      <point x="888" y="440" type="line" smooth="yes"/>
      <point x="888" y="128"/>
      <point x="1013" y="-18"/>
    </contour>
  </outline>
</glyph>
<glyph name="Khook" format="2">
  <advance width="1214"/>
  <unicode hex="0198"/>
  <outline>
    <contour>
      <point x="168" y="0" type="line"/>
      <point x="216" y="0" type="line"/>
      <point x="216" y="486" type="line"/>
      <point x="440" y="734" type="line"/>
      <point x="1128" y="0" type="line"/>
      <point x="1192" y="0" type="line"/>
      <point x="472" y="768" type="line"/>
      <point x="1036" y="1388" type="line" smooth="yes"/>
      <point x="1095" y="1455"/>
      <point x="1159" y="1469"/>
      <point x="1228" y="1420" type="curve"/>
      <point x="1260" y="1450" type="line"/>
      <point x="1196" y="1520"/>
      <point x="1072" y="1505"/>
      <point x="1000" y="1420" type="curve"/>
      <point x="222" y="562" type="line"/>
      <point x="216" y="562" type="line"/>
      <point x="216" y="1490" type="line"/>
      <point x="168" y="1490" type="line"/>
    </contour>
  </outline>
</glyph>
<glyph name="mcapturn" format="2">
  <advance width="1576"/>
  <unicode hex="019C"/>
  <outline>
    <contour>
      <point x="1422" y="228" type="line"/>
      <point x="1428" y="0" type="line"/>
      <point x="1470" y="0" type="line"/>
      <point x="1470" y="1490" type="line"/>
      <point x="1422" y="1490" type="line"/>
    </contour>
    <contour>
      <point x="1422" y="366" type="line"/>
      <point x="1423" y="169"/>
      <point x="1286" y="32"/>
      <point x="1118" y="32" type="curve" smooth="yes"/>
      <point x="919" y="32"/>
      <point x="812" y="169"/>
      <point x="812" y="366" type="curve" smooth="yes"/>
      <point x="812" y="1490" type="line"/>
      <point x="766" y="1490" type="line"/>
      <point x="766" y="366" type="line" smooth="yes"/>
      <point x="766" y="143"/>
      <point x="893" y="-14"/>
      <point x="1118" y="-14" type="curve" smooth="yes"/>
      <point x="1312" y="-14"/>
      <point x="1469" y="143"/>
      <point x="1454" y="366" type="curve"/>
    </contour>
    <contour>
      <point x="766" y="366" type="line"/>
      <point x="765" y="169"/>
      <point x="628" y="32"/>
      <point x="460" y="32" type="curve" smooth="yes"/>
      <point x="262" y="32"/>
      <point x="154" y="169"/>
      <point x="154" y="366" type="curve" smooth="yes"/>
      <point x="154" y="1490" type="line"/>
      <point x="108" y="1490" type="line"/>
      <point x="108" y="366" type="line" smooth="yes"/>
      <point x="108" y="143"/>
      <point x="236" y="-14"/>
      <point x="460" y="-14" type="curve" smooth="yes"/>
      <point x="655" y="-14"/>
      <point x="812" y="143"/>
      <point x="798" y="366" type="curve"/>
    </contour>
  </outline>
</glyph>
<glyph name="Ohorn" format="2">
  <advance width="1402"/>
  <unicode hex="01A0"/>
  <anchor x="702" y="0" name="bottom"/>
  <anchor x="702" y="745" name="center"/>
  <anchor x="1318" y="744" name="ogonek"/>
  <anchor x="206" y="1490" name="tonos"/>
  <anchor x="702" y="1490" name="top"/>
  <anchor x="702" y="1506" name="tophorn"/>
  <outline>
    <contour>
      <point x="701" y="1469" type="line"/>
      <point x="866" y="1469"/>
      <point x="878" y="1444"/>
      <point x="1195" y="1444" type="curve" smooth="yes"/>
      <point x="1274" y="1444"/>
      <point x="1318" y="1488"/>
      <point x="1318" y="1567" type="curve" smooth="yes"/>
      <point x="1318" y="1730" type="line"/>
      <point x="1272" y="1730" type="line"/>
      <point x="1272" y="1567" type="line" smooth="yes"/>
      <point x="1272" y="1513"/>
      <point x="1249" y="1490"/>
      <point x="1195" y="1490" type="curve" smooth="yes"/>
      <point x="878" y="1490"/>
      <point x="866" y="1510"/>
      <point x="701" y="1510" type="curve"/>
    </contour>
    <component base="O"/>
  </outline>
</glyph>
<glyph name="ohorn" format="2">
  <advance width="1058"/>
  <unicode hex="01A1"/>
  <anchor x="530" y="0" name="bottom"/>
  <anchor x="530" y="528" name="center"/>
  <anchor x="992" y="528" name="ogonek"/>
  <anchor x="530" y="1056" name="top"/>
  <anchor x="530" y="1072" name="tophorn"/>
  <outline>
    <contour>
      <point x="529" y="1030" type="line"/>
      <point x="645" y="1025"/>
      <point x="761" y="1011"/>
      <point x="877" y="1011" type="curve" smooth="yes"/>
      <point x="956" y="1011"/>
      <point x="1000" y="1054"/>
      <point x="1000" y="1133" type="curve" smooth="yes"/>
      <point x="1000" y="1296" type="line"/>
      <point x="954" y="1296" type="line"/>
      <point x="954" y="1133" type="line" smooth="yes"/>
      <point x="954" y="1079"/>
      <point x="931" y="1056"/>
      <point x="877" y="1056" type="curve" smooth="yes"/>
      <point x="761" y="1056"/>
      <point x="645" y="1068"/>
      <point x="529" y="1072" type="curve"/>
    </contour>
    <component base="o"/>
  </outline>
</glyph>
<glyph name="OI" format="2">
  <advance width="1454"/>
  <unicode hex="01A2"/>
  <outline>
    <contour>
      <point x="1062" y="786" type="line"/>
      <point x="1016" y="786" type="line"/>
      <point x="1016" y="184" type="line"/>
      <point x="953" y="90"/>
      <point x="817" y="26"/>
      <point x="674" y="26" type="curve" smooth="yes"/>
      <point x="375" y="26"/>
      <point x="132" y="294"/>
      <point x="130" y="672" type="curve" smooth="yes"/>
      <point x="130" y="714" type="line"/>
      <point x="84" y="714" type="line"/>
      <point x="84" y="672" type="line" smooth="yes"/>
      <point x="84" y="269"/>
      <point x="351" y="-20"/>
      <point x="672" y="-20" type="curve" smooth="yes"/>
      <point x="833" y="-20"/>
      <point x="980" y="51"/>
      <point x="1062" y="174" type="curve"/>
    </contour>
    <contour>
      <point x="1062" y="1330" type="line"/>
      <point x="970" y="1444"/>
      <point x="826" y="1510"/>
      <point x="672" y="1510" type="curve" smooth="yes"/>
      <point x="336" y="1510"/>
      <point x="84" y="1199"/>
      <point x="84" y="786" type="curve" smooth="yes"/>
      <point x="84" y="702" type="line"/>
      <point x="130" y="702" type="line"/>
      <point x="130" y="786" type="line" smooth="yes"/>
      <point x="130" y="1175"/>
      <point x="364" y="1464"/>
      <point x="672" y="1464" type="curve" smooth="yes"/>
      <point x="810" y="1464"/>
      <point x="943" y="1405"/>
      <point x="1016" y="1308" type="curve"/>
      <point x="1016" y="670" type="line"/>
      <point x="1062" y="670" type="line"/>
    </contour>
    <contour>
      <point x="1284" y="1490" type="line"/>
      <point x="1218" y="1490" type="line"/>
      <point x="1026" y="1338" type="line"/>
      <point x="1026" y="1278" type="line"/>
      <point x="1238" y="1446" type="line"/>
      <point x="1238" y="-418" type="line"/>
      <point x="1284" y="-418" type="line"/>
    </contour>
  </outline>
</glyph>
<glyph name="oi" format="2">
  <advance width="934"/>
  <unicode hex="01A3"/>
  <outline>
    <contour>
      <point x="442" y="24" type="curve" smooth="yes"/>
      <point x="206" y="23"/>
      <point x="41" y="237"/>
      <point x="40" y="538" type="curve" smooth="yes"/>
      <point x="40" y="542" type="line" smooth="yes"/>
      <point x="40" y="873"/>
      <point x="207" y="1088"/>
      <point x="442" y="1088" type="curve" smooth="yes"/>
      <point x="516" y="1088"/>
      <point x="585" y="1068"/>
      <point x="642" y="1034" type="curve"/>
      <point x="642" y="444" type="line"/>
      <point x="688" y="444" type="line"/>
      <point x="688" y="1062" type="line"/>
      <point x="609" y="1108"/>
      <point x="531" y="1134"/>
      <point x="442" y="1134" type="curve" smooth="yes"/>
      <point x="179" y="1134"/>
      <point x="-6" y="900"/>
      <point x="-6" y="542" type="curve" smooth="yes"/>
      <point x="-6" y="538" type="line" smooth="yes"/>
      <point x="-6" y="211"/>
      <point x="179" y="-24"/>
      <point x="442" y="-24" type="curve" smooth="yes"/>
      <point x="530" y="-24"/>
      <point x="607" y="3"/>
      <point x="688" y="58" type="curve"/>
      <point x="688" y="738" type="line"/>
      <point x="642" y="738" type="line"/>
      <point x="642" y="82" type="line"/>
      <point x="585" y="44"/>
      <point x="516" y="23"/>
    </contour>
    <contour>
      <point x="940" y="1118" type="line"/>
      <point x="876" y="1118" type="line"/>
      <point x="676" y="984" type="line"/>
      <point x="676" y="930" type="line"/>
      <point x="894" y="1074" type="line"/>
      <point x="894" y="-418" type="line"/>
      <point x="940" y="-418" type="line"/>
    </contour>
  </outline>
</glyph>
<glyph name="YR" format="2">
  <advance width="1224"/>
  <unicode hex="01A6"/>
  <outline>
    <contour>
      <point x="46" y="1384" type="line"/>
      <point x="92" y="1384" type="line"/>
      <point x="92" y="1588" type="line"/>
      <point x="46" y="1588" type="line"/>
    </contour>
    <contour>
      <point x="46" y="1490" type="line"/>
      <point x="46" y="0" type="line"/>
      <point x="92" y="0" type="line"/>
      <point x="92" y="1442" type="line"/>
      <point x="482" y="1442" type="line" smooth="yes"/>
      <point x="704" y="1442"/>
      <point x="862" y="1293"/>
      <point x="862" y="1064" type="curve" smooth="yes"/>
      <point x="862" y="838"/>
      <point x="704" y="689"/>
      <point x="536" y="690" type="curve" smooth="yes"/>
      <point x="68" y="690" type="line"/>
      <point x="68" y="642" type="line"/>
      <point x="584" y="642" type="line"/>
      <point x="596" y="648" type="line"/>
      <point x="784" y="692"/>
      <point x="910" y="852"/>
      <point x="910" y="1064" type="curve" smooth="yes"/>
      <point x="910" y="1320"/>
      <point x="731" y="1489"/>
      <point x="482" y="1490" type="curve" smooth="yes"/>
    </contour>
    <contour>
      <point x="1112" y="-372" type="line"/>
      <point x="1160" y="-372" type="line"/>
      <point x="1160" y="-366" type="line"/>
      <point x="604" y="664" type="line"/>
      <point x="552" y="664" type="line"/>
    </contour>
  </outline>
</glyph>
<glyph name="tonetwo" format="2">
  <advance width="915"/>
  <unicode hex="01A8"/>
  <anchor x="455" y="0" name="bottom"/>
  <anchor x="455" y="0" name="cedilla"/>
  <anchor x="455" y="1056" name="top"/>
  <outline>
    <contour>
      <point x="95" y="740" type="curve"/>
      <point x="141" y="740" type="line"/>
      <point x="159" y="926"/>
      <point x="265" y="1024"/>
      <point x="454" y="1024" type="curve" smooth="yes"/>
      <point x="643" y="1024"/>
      <point x="768" y="926"/>
      <point x="768" y="777" type="curve" smooth="yes"/>
      <point x="768" y="661"/>
      <point x="685" y="608"/>
      <point x="530" y="572" type="curve" smooth="yes"/>
      <point x="345" y="529" type="line" smooth="yes"/>
      <point x="174" y="489"/>
      <point x="80" y="432"/>
      <point x="80" y="292" type="curve" smooth="yes"/>
      <point x="80" y="110"/>
      <point x="226" y="-14"/>
      <point x="455" y="-14" type="curve" smooth="yes"/>
      <point x="687" y="-14"/>
      <point x="827" y="118"/>
      <point x="835" y="316" type="curve"/>
      <point x="789" y="316" type="line"/>
      <point x="781" y="143"/>
      <point x="662" y="32"/>
      <point x="455" y="32" type="curve" smooth="yes"/>
      <point x="252" y="32"/>
      <point x="126" y="137"/>
      <point x="126" y="292" type="curve" smooth="yes"/>
      <point x="126" y="408"/>
      <point x="206" y="449"/>
      <point x="355" y="484" type="curve" smooth="yes"/>
      <point x="538" y="527" type="line" smooth="yes"/>
      <point x="719" y="570"/>
      <point x="814" y="638"/>
      <point x="814" y="777" type="curve" smooth="yes"/>
      <point x="814" y="953"/>
      <point x="669" y="1070"/>
      <point x="454" y="1070" type="curve" smooth="yes"/>
      <point x="240" y="1070"/>
      <point x="110" y="949"/>
    </contour>
  </outline>
</glyph>
<glyph name="eshlooprev" format="2">
  <advance width="782"/>
  <unicode hex="01AA"/>
  <outline>
    <contour>
      <point x="514" y="1264" type="line"/>
      <point x="514" y="-162" type="line" smooth="yes"/>
      <point x="514" y="-335"/>
      <point x="572" y="-418"/>
      <point x="688" y="-418" type="curve" smooth="yes"/>
      <point x="711" y="-418"/>
      <point x="736" y="-415"/>
      <point x="754" y="-410" type="curve"/>
      <point x="754" y="-364" type="line"/>
      <point x="735" y="-369"/>
      <point x="708" y="-372"/>
      <point x="688" y="-372" type="curve" smooth="yes"/>
      <point x="600" y="-372"/>
      <point x="561" y="-308"/>
      <point x="562" y="-162" type="curve" smooth="yes"/>
      <point x="562" y="1294" type="line"/>
    </contour>
    <contour>
      <point x="30" y="1290" type="curve" smooth="yes"/>
      <point x="28" y="1143"/>
      <point x="149" y="1024"/>
      <point x="296" y="1024" type="curve" smooth="yes"/>
      <point x="444" y="1024"/>
      <point x="562" y="1143"/>
      <point x="562" y="1290" type="curve" smooth="yes"/>
      <point x="560" y="1438"/>
      <point x="444" y="1556"/>
      <point x="296" y="1556" type="curve" smooth="yes"/>
      <point x="149" y="1556"/>
      <point x="30" y="1438"/>
    </contour>
    <contour>
      <point x="296" y="1070" type="curve" smooth="yes"/>
      <point x="175" y="1070"/>
      <point x="76" y="1169"/>
      <point x="76" y="1290" type="curve" smooth="yes"/>
      <point x="76" y="1412"/>
      <point x="175" y="1510"/>
      <point x="296" y="1510" type="curve" smooth="yes"/>
      <point x="418" y="1510"/>
      <point x="514" y="1412"/>
      <point x="514" y="1290" type="curve" smooth="yes"/>
      <point x="516" y="1169"/>
      <point x="419" y="1071"/>
    </contour>
  </outline>
</glyph>
<glyph name="thook" format="2">
  <advance width="472"/>
  <unicode hex="01AD"/>
  <anchor x="210" y="1118" name="_topr"/>
  <anchor x="292" y="0" name="bottom"/>
  <anchor x="254" y="1490" name="top"/>
  <outline>
    <contour>
      <point x="164" y="1056" type="line"/>
      <point x="164" y="200" type="line" smooth="yes"/>
      <point x="164" y="70"/>
      <point x="234" y="0"/>
      <point x="364" y="0" type="curve" smooth="yes"/>
      <point x="390" y="0"/>
      <point x="416" y="0"/>
      <point x="442" y="0" type="curve"/>
      <point x="442" y="46" type="line"/>
      <point x="416" y="46"/>
      <point x="390" y="46"/>
      <point x="364" y="46" type="curve" smooth="yes"/>
      <point x="259" y="46"/>
      <point x="210" y="95"/>
      <point x="210" y="200" type="curve" smooth="yes"/>
      <point x="210" y="1056" type="line"/>
    </contour>
    <contour>
      <point x="442" y="1056" type="line"/>
      <point x="0" y="1056" type="line"/>
      <point x="0" y="1010" type="line"/>
      <point x="442" y="1010" type="line"/>
    </contour>
    <component base="_part.top_r_hook" xOffset="30"/>
  </outline>
</glyph>
<glyph name="Uhorn" format="2">
  <advance width="1352"/>
  <unicode hex="01AF"/>
  <anchor x="676" y="0" name="bottom"/>
  <anchor x="1212" y="510" name="ogonek"/>
  <anchor x="738" y="0" name="right"/>
  <anchor x="1164" y="1490" name="rtophorn"/>
  <anchor x="676" y="1490" name="top"/>
  <outline>
    <contour>
      <point x="1166" y="1444" type="line"/>
      <point x="1275" y="1444" type="line" smooth="yes"/>
      <point x="1354" y="1444"/>
      <point x="1398" y="1488"/>
      <point x="1398" y="1567" type="curve" smooth="yes"/>
      <point x="1398" y="1730" type="line"/>
      <point x="1352" y="1730" type="line"/>
      <point x="1352" y="1567" type="line" smooth="yes"/>
      <point x="1352" y="1513"/>
      <point x="1329" y="1490"/>
      <point x="1275" y="1490" type="curve" smooth="yes"/>
      <point x="1166" y="1490" type="line"/>
    </contour>
    <component base="U"/>
  </outline>
</glyph>
<glyph name="uhorn" format="2">
  <advance width="1150"/>
  <unicode hex="01B0"/>
  <anchor x="534" y="0" name="bottom"/>
  <anchor x="934" y="0" name="ogonek"/>
  <anchor x="888" y="1056" name="rtophorn"/>
  <anchor x="534" y="1056" name="top"/>
  <outline>
    <contour>
      <point x="912" y="1010" type="line"/>
      <point x="997" y="1010" type="line" smooth="yes"/>
      <point x="1076" y="1010"/>
      <point x="1120" y="1054"/>
      <point x="1120" y="1133" type="curve" smooth="yes"/>
      <point x="1120" y="1296" type="line"/>
      <point x="1074" y="1296" type="line"/>
      <point x="1074" y="1133" type="line" smooth="yes"/>
      <point x="1074" y="1079"/>
      <point x="1051" y="1056"/>
      <point x="997" y="1056" type="curve" smooth="yes"/>
      <point x="912" y="1056" type="line"/>
    </contour>
    <component base="u"/>
  </outline>
</glyph>
<glyph name="Upsilon2" format="2">
  <advance width="1396"/>
  <unicode hex="01B1"/>
  <outline>
    <contour>
      <point x="88" y="728" type="curve" smooth="yes"/>
      <point x="87" y="297"/>
      <point x="348" y="-20"/>
      <point x="698" y="-20" type="curve" smooth="yes"/>
      <point x="1050" y="-20"/>
      <point x="1310" y="295"/>
      <point x="1310" y="728" type="curve" smooth="yes"/>
      <point x="1308" y="1044"/>
      <point x="1178" y="1283"/>
      <point x="888" y="1432" type="curve"/>
      <point x="888" y="1442" type="line"/>
      <point x="1310" y="1442" type="line"/>
      <point x="1310" y="1490" type="line"/>
      <point x="840" y="1490" type="line"/>
      <point x="840" y="1422" type="line"/>
      <point x="1078" y="1297"/>
      <point x="1264" y="1087"/>
      <point x="1262" y="730" type="curve" smooth="yes"/>
      <point x="1262" y="335"/>
      <point x="1036" y="28"/>
      <point x="698" y="26" type="curve" smooth="yes"/>
      <point x="362" y="26"/>
      <point x="132" y="335"/>
      <point x="134" y="730" type="curve" smooth="yes"/>
      <point x="134" y="1089"/>
      <point x="317" y="1296"/>
      <point x="556" y="1422" type="curve"/>
      <point x="556" y="1490" type="line"/>
      <point x="88" y="1490" type="line"/>
      <point x="88" y="1442" type="line"/>
      <point x="510" y="1442" type="line"/>
      <point x="510" y="1432" type="line"/>
      <point x="220" y="1283"/>
      <point x="88" y="1042"/>
    </contour>
  </outline>
</glyph>
<glyph name="Vcursive" format="2">
  <advance width="1088"/>
  <unicode hex="01B2"/>
  <outline>
    <contour>
      <point x="536" y="-24" type="curve" smooth="yes"/>
      <point x="832" y="-23"/>
      <point x="1028" y="159"/>
      <point x="1028" y="474" type="curve" smooth="yes"/>
      <point x="1028" y="1262" type="line" smooth="yes"/>
      <point x="1028" y="1427"/>
      <point x="960" y="1510"/>
      <point x="818" y="1510" type="curve" smooth="yes"/>
      <point x="788" y="1510"/>
      <point x="761" y="1506"/>
      <point x="732" y="1496" type="curve"/>
      <point x="732" y="1450" type="line"/>
      <point x="762" y="1460"/>
      <point x="784" y="1464"/>
      <point x="814" y="1464" type="curve" smooth="yes"/>
      <point x="934" y="1464"/>
      <point x="982" y="1404"/>
      <point x="982" y="1262" type="curve" smooth="yes"/>
      <point x="982" y="474" type="line" smooth="yes"/>
      <point x="982" y="185"/>
      <point x="806" y="24"/>
      <point x="536" y="24" type="curve" smooth="yes"/>
      <point x="273" y="24"/>
      <point x="106" y="180"/>
      <point x="106" y="474" type="curve" smooth="yes"/>
      <point x="106" y="1490" type="line"/>
      <point x="60" y="1490" type="line"/>
      <point x="60" y="474" type="line" smooth="yes"/>
      <point x="60" y="154"/>
      <point x="247" y="-23"/>
    </contour>
  </outline>
</glyph>
<glyph name="Yhook" format="2">
  <advance width="1146"/>
  <unicode hex="01B3"/>
  <outline>
    <contour>
      <point x="504" y="724" type="line"/>
      <point x="538" y="724" type="line"/>
      <point x="538" y="760" type="line"/>
      <point x="504" y="760" type="line"/>
    </contour>
    <contour>
      <point x="-38" y="1490" type="line"/>
      <point x="498" y="706" type="line"/>
      <point x="498" y="0" type="line"/>
      <point x="544" y="0" type="line"/>
      <point x="544" y="706" type="line"/>
      <point x="1016" y="1394" type="line" smooth="yes"/>
      <point x="1068" y="1468"/>
      <point x="1147" y="1477"/>
      <point x="1196" y="1446" type="curve"/>
      <point x="1228" y="1476" type="line"/>
      <point x="1180" y="1529"/>
      <point x="1047" y="1524"/>
      <point x="984" y="1434" type="curve" smooth="yes"/>
      <point x="520" y="756" type="line"/>
      <point x="20" y="1490" type="line"/>
    </contour>
  </outline>
</glyph>
<glyph name="yhook" format="2">
  <advance width="1287"/>
  <unicode hex="01B4"/>
  <anchor x="662" y="0" name="bottom"/>
  <anchor x="528" y="0" name="ogonek"/>
  <anchor x="499" y="1056" name="top"/>
  <outline>
    <contour>
      <point x="914" y="1056" type="line"/>
      <point x="963" y="1056" type="line"/>
      <point x="1053" y="1275" type="line" smooth="yes"/>
      <point x="1110" y="1414"/>
      <point x="1128" y="1444"/>
      <point x="1211" y="1444" type="curve" smooth="yes"/>
      <point x="1230" y="1444"/>
      <point x="1248" y="1444"/>
      <point x="1267" y="1444" type="curve"/>
      <point x="1267" y="1490" type="line"/>
      <point x="1248" y="1490"/>
      <point x="1230" y="1490"/>
      <point x="1211" y="1490" type="curve" smooth="yes"/>
      <point x="1095" y="1490"/>
      <point x="1068" y="1431"/>
      <point x="1011" y="1292" type="curve" smooth="yes"/>
    </contour>
    <component base="y"/>
  </outline>
</glyph>
<glyph name="Ezh" format="2">
  <advance width="1296"/>
  <unicode hex="01B7"/>
  <anchor x="644" y="1490" name="top"/>
  <outline>
    <contour>
      <point x="60" y="72" type="line"/>
      <point x="59" y="-230"/>
      <point x="311" y="-442"/>
      <point x="626" y="-442" type="curve" smooth="yes"/>
      <point x="989" y="-442"/>
      <point x="1196" y="-157"/>
      <point x="1196" y="144" type="curve" smooth="yes"/>
      <point x="1196" y="492"/>
      <point x="923" y="751"/>
      <point x="522" y="768" type="curve"/>
      <point x="522" y="774" type="line"/>
      <point x="1148" y="1452" type="line"/>
      <point x="1148" y="1490" type="line"/>
      <point x="138" y="1490" type="line"/>
      <point x="138" y="1442" type="line"/>
      <point x="1100" y="1442" type="line"/>
      <point x="1100" y="1470" type="line"/>
      <point x="452" y="768" type="line"/>
      <point x="452" y="722" type="line"/>
      <point x="520" y="722" type="line" smooth="yes"/>
      <point x="890" y="705"/>
      <point x="1150" y="471"/>
      <point x="1150" y="144" type="curve" smooth="yes"/>
      <point x="1150" y="-169"/>
      <point x="928" y="-396"/>
      <point x="626" y="-396" type="curve" smooth="yes"/>
      <point x="332" y="-396"/>
      <point x="106" y="-199"/>
      <point x="106" y="72" type="curve"/>
    </contour>
  </outline>
</glyph>
<glyph name="Ezhreversed" format="2">
  <advance width="1296"/>
  <unicode hex="01B8"/>
  <anchor x="652" y="1490" name="top"/>
  <outline>
    <contour>
      <point x="1236" y="72" type="curve"/>
      <point x="1190" y="72" type="line"/>
      <point x="1190" y="-199"/>
      <point x="964" y="-396"/>
      <point x="670" y="-396" type="curve" smooth="yes"/>
      <point x="367" y="-396"/>
      <point x="146" y="-169"/>
      <point x="146" y="144" type="curve" smooth="yes"/>
      <point x="146" y="471"/>
      <point x="405" y="705"/>
      <point x="776" y="722" type="curve" smooth="yes"/>
      <point x="844" y="722" type="line"/>
      <point x="844" y="768" type="line"/>
      <point x="196" y="1470" type="line"/>
      <point x="196" y="1442" type="line"/>
      <point x="1158" y="1442" type="line"/>
      <point x="1158" y="1490" type="line"/>
      <point x="148" y="1490" type="line"/>
      <point x="148" y="1452" type="line"/>
      <point x="774" y="774" type="line"/>
      <point x="774" y="768" type="line"/>
      <point x="373" y="751"/>
      <point x="100" y="492"/>
      <point x="100" y="144" type="curve" smooth="yes"/>
      <point x="100" y="-157"/>
      <point x="306" y="-442"/>
      <point x="670" y="-442" type="curve" smooth="yes"/>
      <point x="984" y="-442"/>
      <point x="1237" y="-230"/>
    </contour>
  </outline>
</glyph>
<glyph name="ezhreversed" format="2">
  <advance width="1020"/>
  <unicode hex="01B9"/>
  <anchor x="498" y="1056" name="top"/>
  <outline>
    <contour>
      <point x="506" y="-392" type="curve" smooth="yes"/>
      <point x="758" y="-392"/>
      <point x="950" y="-227"/>
      <point x="950" y="0" type="curve"/>
      <point x="904" y="0" type="line"/>
      <point x="904" y="-200"/>
      <point x="732" y="-346"/>
      <point x="506" y="-346" type="curve" smooth="yes"/>
      <point x="255" y="-346"/>
      <point x="110" y="-165"/>
      <point x="110" y="42" type="curve" smooth="yes"/>
      <point x="110" y="287"/>
      <point x="306" y="433"/>
      <point x="578" y="433" type="curve" smooth="yes"/>
      <point x="642" y="433" type="line"/>
      <point x="642" y="478" type="line"/>
      <point x="170" y="1009" type="line"/>
      <point x="170" y="1010" type="line"/>
      <point x="888" y="1010" type="line"/>
      <point x="888" y="1056" type="line"/>
      <point x="102" y="1056" type="line"/>
      <point x="102" y="1018" type="line"/>
      <point x="581" y="479" type="line"/>
      <point x="581" y="478" type="line"/>
      <point x="274" y="478"/>
      <point x="64" y="308"/>
      <point x="64" y="42" type="curve" smooth="yes"/>
      <point x="64" y="-195"/>
      <point x="233" y="-392"/>
    </contour>
  </outline>
</glyph>
<glyph name="ezhtail" format="2">
  <advance width="876"/>
  <unicode hex="01BA"/>
  <outline>
    <contour>
      <point x="40" y="1058" type="line" name="hr00"/>
      <point x="40" y="1010" type="line"/>
      <point x="808" y="1010" type="line"/>
      <point x="258" y="592" type="line"/>
      <point x="258" y="544" type="line"/>
      <point x="272" y="544" type="line"/>
      <point x="872" y="1004" type="line"/>
      <point x="872" y="1056" type="line"/>
    </contour>
    <contour>
      <point x="62" y="-162" type="curve" smooth="yes"/>
      <point x="62" y="-26"/>
      <point x="140" y="49"/>
      <point x="360" y="106" type="curve" smooth="yes"/>
      <point x="627" y="175"/>
      <point x="712" y="239"/>
      <point x="712" y="370" type="curve" smooth="yes"/>
      <point x="712" y="526"/>
      <point x="588" y="590"/>
      <point x="294" y="590" type="curve" smooth="yes"/>
      <point x="270" y="590" type="line"/>
      <point x="266" y="544" type="line"/>
      <point x="294" y="544" type="line" smooth="yes"/>
      <point x="561" y="544"/>
      <point x="666" y="495"/>
      <point x="666" y="370" type="curve" smooth="yes"/>
      <point x="666" y="263"/>
      <point x="593" y="212"/>
      <point x="344" y="150" type="curve" smooth="yes"/>
      <point x="109" y="91"/>
      <point x="14" y="-5"/>
      <point x="14" y="-162" type="curve" smooth="yes"/>
      <point x="14" y="-348"/>
      <point x="145" y="-442"/>
      <point x="372" y="-442" type="curve" smooth="yes"/>
      <point x="596" y="-442"/>
      <point x="751" y="-305"/>
      <point x="770" y="-94" type="curve"/>
      <point x="722" y="-94" type="line"/>
      <point x="707" y="-278"/>
      <point x="570" y="-396"/>
      <point x="372" y="-396" type="curve" smooth="yes"/>
      <point x="170" y="-396"/>
      <point x="62" y="-319"/>
    </contour>
  </outline>
</glyph>
<glyph name="tonefive" format="2">
  <advance width="704"/>
  <unicode hex="01BD"/>
  <outline>
    <contour>
      <point x="134" y="524" type="line" name="hr00"/>
      <point x="181" y="615"/>
      <point x="288" y="674"/>
      <point x="400" y="674" type="curve" smooth="yes"/>
      <point x="573" y="671"/>
      <point x="686" y="545"/>
      <point x="686" y="352" type="curve" smooth="yes"/>
      <point x="686" y="153"/>
      <point x="561" y="30"/>
      <point x="362" y="30" type="curve" smooth="yes"/>
      <point x="184" y="30"/>
      <point x="69" y="138"/>
      <point x="76" y="300" type="curve"/>
      <point x="30" y="288" type="line"/>
      <point x="30" y="105"/>
      <point x="164" y="-18"/>
      <point x="362" y="-18" type="curve" smooth="yes"/>
      <point x="590" y="-18"/>
      <point x="732" y="129"/>
      <point x="730" y="360" type="curve" smooth="yes"/>
      <point x="730" y="575"/>
      <point x="591" y="723"/>
      <point x="396" y="720" type="curve" smooth="yes"/>
      <point x="297" y="720"/>
      <point x="200" y="677"/>
      <point x="144" y="612" type="curve"/>
      <point x="190" y="1036" type="line"/>
      <point x="696" y="1036" type="line"/>
      <point x="696" y="1082" type="line"/>
      <point x="146" y="1082" type="line"/>
      <point x="88" y="528" type="line"/>
    </contour>
    <contour>
      <point x="224" y="1082" type="line"/>
      <point x="-24" y="1082" type="line"/>
      <point x="-24" y="1036" type="line"/>
      <point x="224" y="1036" type="line"/>
    </contour>
  </outline>
</glyph>
<glyph name="glottalstopbarinv" format="2">
  <advance width="904"/>
  <unicode hex="01BE"/>
  <outline>
    <contour>
      <point x="800" y="286" type="curve" smooth="yes"/>
      <point x="800" y="131"/>
      <point x="656" y="28"/>
      <point x="454" y="28" type="curve" smooth="yes"/>
      <point x="234" y="28"/>
      <point x="111" y="176"/>
      <point x="110" y="334" type="curve"/>
      <point x="64" y="334" type="line"/>
      <point x="64" y="150"/>
      <point x="209" y="-18"/>
      <point x="452" y="-18" type="curve" smooth="yes"/>
      <point x="684" y="-18"/>
      <point x="846" y="104"/>
      <point x="846" y="286" type="curve" smooth="yes"/>
      <point x="846" y="569"/>
      <point x="463" y="495"/>
      <point x="462" y="816" type="curve" smooth="yes"/>
      <point x="462" y="1334" type="line"/>
      <point x="416" y="1334" type="line"/>
      <point x="416" y="816" type="line" smooth="yes"/>
      <point x="416" y="468"/>
      <point x="800" y="529"/>
    </contour>
    <contour>
      <point x="710" y="1070" type="line"/>
      <point x="168" y="1070" type="line"/>
      <point x="168" y="1022" type="line"/>
      <point x="710" y="1022" type="line"/>
    </contour>
  </outline>
</glyph>
<glyph name="wynn" format="2">
  <advance width="1014"/>
  <unicode hex="01BF"/>
  <outline>
    <contour>
      <point x="126" y="952" type="line"/>
      <point x="118" y="1118" type="line"/>
      <point x="78" y="1118" type="line"/>
      <point x="78" y="-416" type="line"/>
      <point x="126" y="-416" type="line"/>
    </contour>
    <contour>
      <point x="114" y="890" type="line"/>
      <point x="221" y="1023"/>
      <point x="345" y="1088"/>
      <point x="480" y="1088" type="curve" smooth="yes"/>
      <point x="709" y="1088"/>
      <point x="848" y="919"/>
      <point x="848" y="644" type="curve" smooth="yes"/>
      <point x="848" y="594" type="line" smooth="yes"/>
      <point x="848" y="244"/>
      <point x="641" y="50"/>
      <point x="94" y="-118" type="curve"/>
      <point x="94" y="-164" type="line"/>
      <point x="659" y="-4"/>
      <point x="896" y="220"/>
      <point x="896" y="596" type="curve" smooth="yes"/>
      <point x="896" y="642" type="line" smooth="yes"/>
      <point x="896" y="943"/>
      <point x="735" y="1134"/>
      <point x="480" y="1134" type="curve" smooth="yes"/>
      <point x="336" y="1134"/>
      <point x="206" y="1068"/>
      <point x="92" y="932" type="curve"/>
    </contour>
  </outline>
</glyph>
<glyph name="pipe" format="2">
  <advance width="254"/>
  <unicode hex="01C0"/>
  <outline>
    <contour>
      <point x="152" y="1516" type="line"/>
      <point x="104" y="1516" type="line"/>
      <point x="104" y="0" type="line"/>
      <point x="152" y="0" type="line"/>
    </contour>
  </outline>
</glyph>
<glyph name="uni01F6" format="2">
  <advance width="2096"/>
  <unicode hex="01F6"/>
  <outline>
    <contour>
      <point x="1562" y="-16" type="curve" smooth="yes"/>
      <point x="1791" y="-16"/>
      <point x="1962" y="139"/>
      <point x="1962" y="368" type="curve" smooth="yes"/>
      <point x="1962" y="1056" type="line"/>
      <point x="1916" y="1056" type="line"/>
      <point x="1916" y="368" type="line" smooth="yes"/>
      <point x="1916" y="165"/>
      <point x="1765" y="30"/>
      <point x="1562" y="30" type="curve" smooth="yes"/>
      <point x="1359" y="30"/>
      <point x="1208" y="165"/>
      <point x="1208" y="368" type="curve" smooth="yes"/>
      <point x="1208" y="1490" type="line"/>
      <point x="1162" y="1490" type="line"/>
      <point x="1162" y="784" type="line"/>
      <point x="214" y="784" type="line"/>
      <point x="214" y="1490" type="line"/>
      <point x="168" y="1490" type="line"/>
      <point x="168" y="0" type="line"/>
      <point x="214" y="0" type="line"/>
      <point x="214" y="738" type="line"/>
      <point x="1162" y="738" type="line"/>
      <point x="1162" y="368" type="line" smooth="yes"/>
      <point x="1162" y="139"/>
      <point x="1333" y="-16"/>
    </contour>
  </outline>
</glyph>
<glyph name="uni01F7" format="2">
  <advance width="852"/>
  <unicode hex="01F7"/>
  <outline>
    <contour>
      <point x="38" y="1490" type="line"/>
      <point x="-8" y="1490" type="line"/>
      <point x="-8" y="-418" type="line"/>
      <point x="38" y="-418" type="line"/>
    </contour>
    <contour>
      <point x="6" y="-136" type="line"/>
      <point x="556" y="-14"/>
      <point x="858" y="328"/>
      <point x="858" y="856" type="curve" smooth="yes"/>
      <point x="858" y="872" type="line" smooth="yes"/>
      <point x="858" y="1308"/>
      <point x="692" y="1510"/>
      <point x="360" y="1510" type="curve" smooth="yes"/>
      <point x="225" y="1510"/>
      <point x="97" y="1476"/>
      <point x="4" y="1412" type="curve"/>
      <point x="26" y="1370" type="line"/>
      <point x="114" y="1431"/>
      <point x="233" y="1464"/>
      <point x="360" y="1464" type="curve" smooth="yes"/>
      <point x="659" y="1464"/>
      <point x="810" y="1284"/>
      <point x="810" y="876" type="curve" smooth="yes"/>
      <point x="810" y="854" type="line" smooth="yes"/>
      <point x="810" y="353"/>
      <point x="532" y="37"/>
      <point x="6" y="-90" type="curve"/>
    </contour>
  </outline>
</glyph>
<glyph name="uni021C" format="2">
  <advance width="1082"/>
  <unicode hex="021C"/>
  <outline>
    <contour>
      <point x="140" y="372" type="line"/>
      <point x="638" y="508"/>
      <point x="990" y="805"/>
      <point x="990" y="1124" type="curve" smooth="yes"/>
      <point x="990" y="1352"/>
      <point x="810" y="1510"/>
      <point x="546" y="1510" type="curve" smooth="yes"/>
      <point x="266" y="1510"/>
      <point x="68" y="1340"/>
      <point x="66" y="1116" type="curve"/>
      <point x="114" y="1116" type="line"/>
      <point x="112" y="1312"/>
      <point x="294" y="1464"/>
      <point x="546" y="1464" type="curve" smooth="yes"/>
      <point x="782" y="1464"/>
      <point x="942" y="1329"/>
      <point x="944" y="1128" type="curve" smooth="yes"/>
      <point x="947" y="834"/>
      <point x="618" y="559"/>
      <point x="140" y="418" type="curve"/>
    </contour>
    <contour>
      <point x="762" y="718" type="line"/>
      <point x="895" y="654"/>
      <point x="968" y="517"/>
      <point x="968" y="316" type="curve" smooth="yes"/>
      <point x="968" y="-15"/>
      <point x="768" y="-188"/>
      <point x="140" y="-388" type="curve"/>
      <point x="140" y="-436" type="line"/>
      <point x="800" y="-230"/>
      <point x="1016" y="-41"/>
      <point x="1016" y="318" type="curve" smooth="yes"/>
      <point x="1016" y="532"/>
      <point x="939" y="672"/>
      <point x="792" y="754" type="curve"/>
    </contour>
  </outline>
</glyph>
<glyph name="uni021D" format="2">
  <advance width="902"/>
  <unicode hex="021D"/>
  <outline>
    <contour>
      <point x="130" y="264" type="line"/>
      <point x="511" y="308"/>
      <point x="806" y="533"/>
      <point x="806" y="818" type="curve" smooth="yes"/>
      <point x="806" y="1007"/>
      <point x="680" y="1134"/>
      <point x="468" y="1134" type="curve" smooth="yes"/>
      <point x="253" y="1134"/>
      <point x="82" y="1003"/>
      <point x="82" y="792" type="curve"/>
      <point x="128" y="792" type="line"/>
      <point x="126" y="975"/>
      <point x="280" y="1088"/>
      <point x="468" y="1088" type="curve" smooth="yes"/>
      <point x="655" y="1088"/>
      <point x="756" y="979"/>
      <point x="760" y="824" type="curve" smooth="yes"/>
      <point x="764" y="560"/>
      <point x="489" y="353"/>
      <point x="130" y="312" type="curve"/>
    </contour>
    <contour>
      <point x="628" y="494" type="line"/>
      <point x="726" y="422"/>
      <point x="780" y="305"/>
      <point x="780" y="140" type="curve" smooth="yes"/>
      <point x="780" y="-189"/>
      <point x="575" y="-363"/>
      <point x="130" y="-388" type="curve"/>
      <point x="130" y="-436" type="line"/>
      <point x="607" y="-404"/>
      <point x="828" y="-214"/>
      <point x="826" y="142" type="curve" smooth="yes"/>
      <point x="826" y="320"/>
      <point x="770" y="441"/>
      <point x="662" y="526" type="curve"/>
    </contour>
  </outline>
</glyph>
<glyph name="uni0220" format="2">
  <advance width="934"/>
  <unicode hex="0220"/>
  <outline>
    <contour>
      <point x="904" y="-418" type="line"/>
      <point x="904" y="946" type="line" smooth="yes"/>
      <point x="904" y="1367"/>
      <point x="729" y="1510"/>
      <point x="414" y="1510" type="curve" smooth="yes"/>
      <point x="263" y="1510"/>
      <point x="144" y="1476"/>
      <point x="50" y="1412" type="curve"/>
      <point x="72" y="1370" type="line"/>
      <point x="164" y="1433"/>
      <point x="276" y="1464"/>
      <point x="418" y="1464" type="curve" smooth="yes"/>
      <point x="708" y="1464"/>
      <point x="857" y="1342"/>
      <point x="856" y="950" type="curve" smooth="yes"/>
      <point x="856" y="-418" type="line"/>
    </contour>
    <contour>
      <point x="84" y="1490" type="line"/>
      <point x="38" y="1490" type="line"/>
      <point x="38" y="0" type="line"/>
      <point x="84" y="0" type="line"/>
    </contour>
  </outline>
</glyph>
<glyph name="uni0222" format="2">
  <advance width="1030"/>
  <unicode hex="0222"/>
  <outline>
    <contour>
      <point x="498" y="830" type="line" smooth="yes"/>
      <point x="161" y="831"/>
      <point x="-6" y="681"/>
      <point x="-6" y="406" type="curve" smooth="yes"/>
      <point x="-6" y="124"/>
      <point x="177" y="-20"/>
      <point x="510" y="-20" type="curve" smooth="yes"/>
      <point x="522" y="-20" type="line" smooth="yes"/>
      <point x="851" y="-20"/>
      <point x="1036" y="124"/>
      <point x="1036" y="406" type="curve" smooth="yes"/>
      <point x="1036" y="680"/>
      <point x="868" y="831"/>
      <point x="532" y="830" type="curve" smooth="yes"/>
    </contour>
    <contour>
      <point x="532" y="784" type="line" smooth="yes"/>
      <point x="842" y="784"/>
      <point x="990" y="650"/>
      <point x="990" y="406" type="curve" smooth="yes"/>
      <point x="990" y="153"/>
      <point x="828" y="26"/>
      <point x="522" y="26" type="curve" smooth="yes"/>
      <point x="508" y="26" type="line" smooth="yes"/>
      <point x="201" y="26"/>
      <point x="40" y="154"/>
      <point x="40" y="406" type="curve" smooth="yes"/>
      <point x="40" y="652"/>
      <point x="185" y="784"/>
      <point x="498" y="784" type="curve" smooth="yes"/>
    </contour>
    <contour>
      <point x="498" y="830" type="line" smooth="yes"/>
      <point x="215" y="831"/>
      <point x="62" y="940"/>
      <point x="62" y="1166" type="curve" smooth="yes"/>
      <point x="62" y="1334"/>
      <point x="147" y="1433"/>
      <point x="272" y="1460" type="curve"/>
      <point x="272" y="1510" type="line"/>
      <point x="119" y="1478"/>
      <point x="14" y="1360"/>
      <point x="14" y="1166" type="curve" smooth="yes"/>
      <point x="14" y="912"/>
      <point x="192" y="784"/>
      <point x="498" y="784" type="curve" smooth="yes"/>
      <point x="532" y="784" type="line" smooth="yes"/>
      <point x="839" y="784"/>
      <point x="1016" y="915"/>
      <point x="1016" y="1166" type="curve" smooth="yes"/>
      <point x="1016" y="1371"/>
      <point x="895" y="1492"/>
      <point x="730" y="1518" type="curve"/>
      <point x="730" y="1470" type="line"/>
      <point x="870" y="1449"/>
      <point x="968" y="1344"/>
      <point x="968" y="1166" type="curve" smooth="yes"/>
      <point x="968" y="941"/>
      <point x="812" y="831"/>
      <point x="534" y="830" type="curve" smooth="yes"/>
    </contour>
  </outline>
</glyph>
<glyph name="uni0223" format="2">
  <advance width="1084"/>
  <unicode hex="0223"/>
  <outline>
    <contour>
      <point x="498" y="830" type="line" smooth="yes"/>
      <point x="168" y="829"/>
      <point x="-6" y="685"/>
      <point x="-6" y="412" type="curve" smooth="yes"/>
      <point x="-6" y="136"/>
      <point x="181" y="-20"/>
      <point x="510" y="-20" type="curve" smooth="yes"/>
      <point x="576" y="-20" type="line" smooth="yes"/>
      <point x="903" y="-20"/>
      <point x="1090" y="137"/>
      <point x="1090" y="412" type="curve" smooth="yes"/>
      <point x="1090" y="684"/>
      <point x="915" y="829"/>
      <point x="586" y="830" type="curve" smooth="yes"/>
    </contour>
    <contour>
      <point x="586" y="782" type="line" smooth="yes"/>
      <point x="887" y="783"/>
      <point x="1042" y="656"/>
      <point x="1042" y="412" type="curve" smooth="yes"/>
      <point x="1042" y="164"/>
      <point x="877" y="26"/>
      <point x="576" y="26" type="curve" smooth="yes"/>
      <point x="508" y="26" type="line" smooth="yes"/>
      <point x="207" y="26"/>
      <point x="40" y="164"/>
      <point x="40" y="412" type="curve" smooth="yes"/>
      <point x="40" y="658"/>
      <point x="194" y="783"/>
      <point x="498" y="782" type="curve" smooth="yes"/>
    </contour>
    <contour>
      <point x="602" y="830" type="curve" smooth="yes"/>
      <point x="482" y="830" type="line" smooth="yes"/>
      <point x="202" y="830"/>
      <point x="46" y="957"/>
      <point x="46" y="1188" type="curve" smooth="yes"/>
      <point x="46" y="1361"/>
      <point x="119" y="1468"/>
      <point x="258" y="1498" type="curve"/>
      <point x="258" y="1548" type="line"/>
      <point x="90" y="1513"/>
      <point x="0" y="1387"/>
      <point x="0" y="1188" type="curve" smooth="yes"/>
      <point x="0" y="932"/>
      <point x="177" y="783"/>
      <point x="482" y="782" type="curve" smooth="yes"/>
      <point x="600" y="782" type="line" smooth="yes"/>
      <point x="905" y="782"/>
      <point x="1084" y="932"/>
      <point x="1084" y="1188" type="curve" smooth="yes"/>
      <point x="1084" y="1395"/>
      <point x="981" y="1527"/>
      <point x="798" y="1556" type="curve"/>
      <point x="798" y="1508" type="line"/>
      <point x="953" y="1484"/>
      <point x="1038" y="1371"/>
      <point x="1038" y="1188" type="curve" smooth="yes"/>
      <point x="1038" y="959"/>
      <point x="880" y="829"/>
    </contour>
  </outline>
</glyph>
<glyph name="zhook" format="2">
  <advance width="914"/>
  <unicode hex="0225"/>
  <outline>
    <contour>
      <point x="862" y="-208" type="line"/>
      <point x="908" y="-208" type="line"/>
      <point x="908" y="-160" type="line" smooth="yes"/>
      <point x="908" y="-17"/>
      <point x="847" y="46"/>
      <point x="706" y="46" type="curve" smooth="yes"/>
      <point x="136" y="46" type="line"/>
      <point x="136" y="47" type="line"/>
      <point x="829" y="1008" type="line"/>
      <point x="829" y="1056" type="line"/>
      <point x="89" y="1056" type="line"/>
      <point x="89" y="1010" type="line"/>
      <point x="774" y="1010" type="line"/>
      <point x="774" y="1009" type="line"/>
      <point x="79" y="46" type="line"/>
      <point x="79" y="0" type="line"/>
      <point x="714" y="0" type="line" smooth="yes"/>
      <point x="818" y="0"/>
      <point x="862" y="-46"/>
      <point x="862" y="-152" type="curve" smooth="yes"/>
    </contour>
  </outline>
</glyph>
<glyph name="jdotless" format="2">
  <advance width="320"/>
  <unicode hex="0237"/>
  <anchor x="446" y="0" name="_right"/>
  <anchor x="134" y="-442" name="bottom"/>
  <anchor x="163" y="628" name="cross"/>
  <anchor x="163" y="1056" name="top"/>
  <outline>
    <contour>
      <point x="140" y="1056" type="line"/>
      <point x="140" y="-162" type="line" smooth="yes"/>
      <point x="140" y="-293"/>
      <point x="41" y="-372"/>
      <point x="-70" y="-372" type="curve" smooth="yes"/>
      <point x="-88" y="-372" type="line"/>
      <point x="-88" y="-418" type="line"/>
      <point x="-70" y="-418" type="line" smooth="yes"/>
      <point x="67" y="-418"/>
      <point x="186" y="-320"/>
      <point x="186" y="-162" type="curve" smooth="yes"/>
      <point x="186" y="1056" type="line"/>
    </contour>
  </outline>
</glyph>
<glyph name="uni0238" format="2">
  <advance width="1620"/>
  <unicode hex="0238"/>
  <outline>
    <contour>
      <point x="1604" y="556" type="line" smooth="yes"/>
      <point x="1604" y="911"/>
      <point x="1439" y="1134"/>
      <point x="1200" y="1134" type="curve" smooth="yes"/>
      <point x="1049" y="1134"/>
      <point x="905" y="1047"/>
      <point x="816" y="910" type="curve"/>
      <point x="816" y="202" type="line"/>
      <point x="906" y="64"/>
      <point x="1049" y="-24"/>
      <point x="1200" y="-24" type="curve" smooth="yes"/>
      <point x="1439" y="-24"/>
      <point x="1604" y="198"/>
      <point x="1604" y="552" type="curve" smooth="yes"/>
    </contour>
    <contour>
      <point x="1558" y="552" type="line" smooth="yes"/>
      <point x="1558" y="228"/>
      <point x="1417" y="24"/>
      <point x="1206" y="24" type="curve" smooth="yes"/>
      <point x="1064" y="24"/>
      <point x="915" y="113"/>
      <point x="830" y="248" type="curve"/>
      <point x="830" y="864" type="line"/>
      <point x="913" y="999"/>
      <point x="1065" y="1088"/>
      <point x="1208" y="1088" type="curve" smooth="yes"/>
      <point x="1421" y="1088"/>
      <point x="1558" y="882"/>
      <point x="1558" y="556" type="curve" smooth="yes"/>
    </contour>
    <contour>
      <point x="786" y="196" type="line"/>
      <point x="794" y="0" type="line"/>
      <point x="834" y="0" type="line"/>
      <point x="834" y="1490" type="line"/>
      <point x="786" y="1490" type="line"/>
    </contour>
    <contour>
      <point x="16" y="552" type="line" smooth="yes"/>
      <point x="16" y="198"/>
      <point x="182" y="-24"/>
      <point x="420" y="-24" type="curve" smooth="yes"/>
      <point x="572" y="-24"/>
      <point x="714" y="64"/>
      <point x="804" y="202" type="curve"/>
      <point x="804" y="910" type="line"/>
      <point x="716" y="1047"/>
      <point x="572" y="1134"/>
      <point x="420" y="1134" type="curve" smooth="yes"/>
      <point x="182" y="1134"/>
      <point x="16" y="911"/>
      <point x="16" y="556" type="curve" smooth="yes"/>
    </contour>
    <contour>
      <point x="62" y="556" type="line" smooth="yes"/>
      <point x="63" y="882"/>
      <point x="199" y="1088"/>
      <point x="414" y="1088" type="curve" smooth="yes"/>
      <point x="555" y="1088"/>
      <point x="708" y="999"/>
      <point x="790" y="864" type="curve"/>
      <point x="790" y="248" type="line"/>
      <point x="705" y="113"/>
      <point x="556" y="24"/>
      <point x="414" y="24" type="curve" smooth="yes"/>
      <point x="203" y="24"/>
      <point x="63" y="228"/>
      <point x="62" y="552" type="curve" smooth="yes"/>
    </contour>
  </outline>
</glyph>
<glyph name="uni023A" format="2">
  <advance width="1218"/>
  <unicode hex="023A"/>
  <anchor x="609" y="0" name="bottom"/>
  <anchor x="1198" y="0" name="ogonek"/>
  <anchor x="480" y="1490" name="tonos"/>
  <anchor x="609" y="1490" name="top"/>
  <outline>
    <contour>
      <point x="926" y="1678" type="line"/>
      <point x="876" y="1678" type="line"/>
      <point x="212" y="-190" type="line"/>
      <point x="262" y="-190" type="line"/>
    </contour>
    <component base="A"/>
  </outline>
</glyph>
<glyph name="Cstroke" format="2">
  <advance width="1352"/>
  <unicode hex="023B"/>
  <anchor x="702" y="0" name="cedilla"/>
  <anchor x="696" y="745" name="center"/>
  <anchor x="702" y="1490" name="top"/>
  <anchor x="1272" y="1024" name="topr"/>
  <outline>
    <contour>
      <point x="302" y="-190" type="line"/>
      <point x="352" y="-190" type="line"/>
      <point x="1076" y="1678" type="line"/>
      <point x="1026" y="1678" type="line"/>
    </contour>
    <component base="C"/>
  </outline>
</glyph>
<glyph name="cstroke" format="2">
  <advance width="1018"/>
  <unicode hex="023C"/>
  <anchor x="530" y="0" name="bottom"/>
  <anchor x="530" y="0" name="cedilla"/>
  <anchor x="530" y="528" name="center"/>
  <anchor x="530" y="1056" name="top"/>
  <anchor x="952" y="712" name="topr"/>
  <outline>
    <contour>
      <point x="159" y="-418" type="line"/>
      <point x="207" y="-418" type="line"/>
      <point x="876" y="1490" type="line"/>
      <point x="828" y="1490" type="line"/>
    </contour>
    <component base="c"/>
  </outline>
</glyph>
<glyph name="uni023E" format="2">
  <advance width="1206"/>
  <unicode hex="023E"/>
  <anchor x="603" y="0" name="bottom"/>
  <anchor x="626" y="0" name="bottomr"/>
  <anchor x="603" y="0" name="cedilla"/>
  <anchor x="602" y="768" name="cross"/>
  <anchor x="626" y="0" name="cyrtic"/>
  <anchor x="614" y="0" name="right"/>
  <anchor x="602" y="1490" name="top"/>
  <outline>
    <contour>
      <point x="222" y="-190" type="line"/>
      <point x="270" y="-190" type="line"/>
      <point x="990" y="1678" type="line"/>
      <point x="942" y="1678" type="line"/>
    </contour>
    <component base="T"/>
  </outline>
</glyph>
<glyph name="uni023F" format="2">
  <advance width="915"/>
  <unicode hex="023F"/>
  <anchor x="461" y="0" name="bottom"/>
  <anchor x="453" y="0" name="cedilla"/>
  <anchor x="80" y="316" name="rthook"/>
  <anchor x="461" y="1056" name="top"/>
  <outline>
    <contour>
      <point x="160" y="171" type="curve" name="hr00"/>
      <point x="125" y="154" type="line"/>
      <point x="371" y="-290" type="line" smooth="yes"/>
      <point x="421" y="-380"/>
      <point x="475" y="-418"/>
      <point x="547" y="-418" type="curve" smooth="yes"/>
      <point x="590" y="-418"/>
      <point x="632" y="-403"/>
      <point x="697" y="-354" type="curve"/>
      <point x="675" y="-314" type="line"/>
      <point x="620" y="-356"/>
      <point x="582" y="-372"/>
      <point x="545" y="-372" type="curve" smooth="yes"/>
      <point x="450" y="-372"/>
      <point x="435" y="-309"/>
    </contour>
    <component base="s"/>
  </outline>
</glyph>
<glyph name="uni0240" format="2">
  <advance width="914"/>
  <unicode hex="0240"/>
  <outline>
    <contour>
      <point x="79" y="0" type="line"/>
      <point x="136" y="0" type="line"/>
      <point x="136" y="47" type="line"/>
      <point x="829" y="1008" type="line"/>
      <point x="829" y="1056" type="line"/>
      <point x="89" y="1056" type="line"/>
      <point x="89" y="1010" type="line"/>
      <point x="774" y="1010" type="line"/>
      <point x="774" y="1009" type="line"/>
      <point x="79" y="46" type="line"/>
    </contour>
    <contour>
      <point x="818" y="-418" type="curve" smooth="yes"/>
      <point x="845" y="-418"/>
      <point x="877" y="-412"/>
      <point x="908" y="-398" type="curve"/>
      <point x="889" y="-356" type="line"/>
      <point x="863" y="-368"/>
      <point x="841" y="-372"/>
      <point x="818" y="-372" type="curve" smooth="yes"/>
      <point x="721" y="-372"/>
      <point x="661" y="-266"/>
      <point x="557" y="-150" type="curve" smooth="yes"/>
      <point x="472" y="-52"/>
      <point x="356" y="46"/>
      <point x="168" y="46" type="curve" smooth="yes"/>
      <point x="114" y="46" type="line"/>
      <point x="114" y="0" type="line"/>
      <point x="168" y="0" type="line" smooth="yes"/>
      <point x="337" y="0"/>
      <point x="440" y="-86"/>
      <point x="523" y="-180" type="curve" smooth="yes"/>
      <point x="623" y="-293"/>
      <point x="694" y="-418"/>
    </contour>
  </outline>
</glyph>
<glyph name="uni0241" format="2">
  <advance width="904"/>
  <unicode hex="0241"/>
  <outline>
    <contour>
      <point x="410" y="396" type="line" name="hr00"/>
      <point x="410" y="350" type="line"/>
      <point x="428" y="350" type="line"/>
      <point x="716" y="350"/>
      <point x="879" y="515"/>
      <point x="878" y="812" type="curve" smooth="yes"/>
      <point x="878" y="1054" type="line" smooth="yes"/>
      <point x="878" y="1341"/>
      <point x="724" y="1510"/>
      <point x="462" y="1510" type="curve" smooth="yes"/>
      <point x="210" y="1510"/>
      <point x="41" y="1365"/>
      <point x="26" y="1138" type="curve"/>
      <point x="72" y="1138" type="line"/>
      <point x="83" y="1336"/>
      <point x="234" y="1462"/>
      <point x="462" y="1462" type="curve" smooth="yes"/>
      <point x="700" y="1462"/>
      <point x="832" y="1316"/>
      <point x="832" y="1054" type="curve" smooth="yes"/>
      <point x="832" y="812" type="line" smooth="yes"/>
      <point x="832" y="537"/>
      <point x="690" y="394"/>
      <point x="418" y="396" type="curve"/>
    </contour>
    <contour>
      <point x="448" y="396" type="line"/>
      <point x="402" y="396" type="line"/>
      <point x="402" y="0" type="line"/>
      <point x="448" y="0" type="line"/>
    </contour>
  </outline>
</glyph>
<glyph name="uni0242" format="2">
  <advance width="874"/>
  <unicode hex="0242"/>
  <outline>
    <contour>
      <point x="88" y="712" type="curve"/>
      <point x="134" y="712" type="line"/>
      <point x="139" y="963"/>
      <point x="257" y="1088"/>
      <point x="444" y="1088" type="curve" smooth="yes"/>
      <point x="635" y="1088"/>
      <point x="742" y="958"/>
      <point x="742" y="734" type="curve" smooth="yes"/>
      <point x="742" y="516"/>
      <point x="642" y="388"/>
      <point x="456" y="390" type="curve"/>
      <point x="448" y="390" type="line" name="hr00"/>
      <point x="448" y="344" type="line"/>
      <point x="466" y="344" type="line"/>
      <point x="669" y="344"/>
      <point x="788" y="495"/>
      <point x="788" y="734" type="curve" smooth="yes"/>
      <point x="788" y="983"/>
      <point x="661" y="1134"/>
      <point x="444" y="1134" type="curve" smooth="yes"/>
      <point x="230" y="1134"/>
      <point x="94" y="991"/>
    </contour>
    <contour>
      <point x="440" y="390" type="line"/>
      <point x="440" y="0" type="line"/>
      <point x="486" y="0" type="line"/>
      <point x="486" y="390" type="line"/>
    </contour>
  </outline>
</glyph>
<glyph name="uni0244" format="2">
  <advance width="1352"/>
  <unicode hex="0244"/>
  <anchor x="638" y="0" name="bottom"/>
  <anchor x="1174" y="510" name="ogonek"/>
  <anchor x="700" y="0" name="right"/>
  <anchor x="1126" y="1490" name="rtophorn"/>
  <anchor x="638" y="1490" name="top"/>
  <outline>
    <contour>
      <point x="1420" y="876" type="line"/>
      <point x="-66" y="876" type="line"/>
      <point x="-66" y="830" type="line"/>
      <point x="1420" y="830" type="line"/>
    </contour>
    <component base="U" xOffset="-38"/>
  </outline>
</glyph>
<glyph name="uni0245" format="2">
  <advance width="1242"/>
  <unicode hex="0245"/>
  <outline>
    <contour>
      <point x="1136" y="0" type="line"/>
      <point x="1186" y="0" type="line"/>
      <point x="654" y="1490" type="line"/>
      <point x="600" y="1490" type="line"/>
      <point x="616" y="1454" type="line"/>
    </contour>
    <contour>
      <point x="626" y="1456" type="line"/>
      <point x="638" y="1490" type="line"/>
      <point x="590" y="1490" type="line"/>
      <point x="56" y="0" type="line"/>
      <point x="106" y="0" type="line"/>
    </contour>
  </outline>
</glyph>
<glyph name="uni0246" format="2">
  <advance width="1145"/>
  <unicode hex="0246"/>
  <anchor x="619" y="0" name="bottom"/>
  <anchor x="616" y="0" name="cedilla"/>
  <anchor x="1070" y="0" name="ogonek"/>
  <anchor x="168" y="1490" name="tonos"/>
  <anchor x="619" y="1490" name="top"/>
  <outline>
    <contour>
      <point x="302" y="-190" type="line"/>
      <point x="344" y="-190" type="line"/>
      <point x="884" y="1678" type="line"/>
      <point x="840" y="1678" type="line"/>
    </contour>
    <component base="E"/>
  </outline>
</glyph>
<glyph name="uni0247" format="2">
  <advance width="1080"/>
  <unicode hex="0247"/>
  <anchor x="558" y="0" name="bottom"/>
  <anchor x="562" y="0" name="cedilla"/>
  <anchor x="1000" y="316" name="ogonek"/>
  <anchor x="558" y="1056" name="top"/>
  <outline>
    <contour>
      <point x="66" y="-418" type="line"/>
      <point x="120" y="-418" type="line"/>
      <point x="990" y="1490" type="line"/>
      <point x="942" y="1490" type="line"/>
    </contour>
    <component base="e" xOffset="32"/>
  </outline>
</glyph>
<glyph name="uni024E" format="2">
  <advance width="1120"/>
  <unicode hex="024E"/>
  <anchor x="611" y="0" name="bottom"/>
  <anchor x="611" y="433" name="cross"/>
  <anchor x="634" y="0" name="ogonek"/>
  <anchor x="20" y="1490" name="tonos"/>
  <anchor x="610" y="1490" name="top"/>
  <outline>
    <contour>
      <point x="1192" y="1174" type="line"/>
      <point x="-70" y="1174" type="line"/>
      <point x="-70" y="1128" type="line"/>
      <point x="1192" y="1128" type="line"/>
    </contour>
    <component base="Y"/>
  </outline>
</glyph>
<glyph name="uni024F" format="2">
  <advance width="998"/>
  <unicode hex="024F"/>
  <anchor x="662" y="0" name="bottom"/>
  <anchor x="528" y="0" name="ogonek"/>
  <anchor x="499" y="1056" name="top"/>
  <outline>
    <contour>
      <point x="947" y="808" type="line" name="hr00"/>
      <point x="51" y="808" type="line"/>
      <point x="51" y="762" type="line"/>
      <point x="947" y="762" type="line"/>
    </contour>
    <component base="y"/>
  </outline>
</glyph>
<glyph name="bhook" format="2">
  <advance width="1118"/>
  <unicode hex="0253"/>
  <anchor x="180" y="1118" name="_topr"/>
  <anchor x="268" y="228" name="bottom"/>
  <anchor x="268" y="1490" name="top"/>
  <outline>
    <contour>
      <point x="588" y="-16" type="curve" smooth="yes"/>
      <point x="853" y="-16"/>
      <point x="1052" y="197"/>
      <point x="1052" y="528" type="curve" smooth="yes"/>
      <point x="1052" y="856"/>
      <point x="850" y="1072"/>
      <point x="588" y="1072" type="curve" smooth="yes"/>
      <point x="387" y="1072"/>
      <point x="220" y="939"/>
      <point x="181" y="770" type="curve"/>
      <point x="180" y="770" type="line"/>
      <point x="180" y="1056" type="line"/>
      <point x="134" y="1056" type="line"/>
      <point x="134" y="0" type="line"/>
      <point x="180" y="0" type="line"/>
      <point x="180" y="280" type="line"/>
      <point x="181" y="280" type="line"/>
      <point x="225" y="113"/>
      <point x="387" y="-16"/>
    </contour>
    <contour>
      <point x="588" y="30" type="curve" smooth="yes"/>
      <point x="344" y="30"/>
      <point x="180" y="222"/>
      <point x="180" y="528" type="curve" smooth="yes"/>
      <point x="180" y="834"/>
      <point x="344" y="1026"/>
      <point x="588" y="1026" type="curve" smooth="yes"/>
      <point x="825" y="1026"/>
      <point x="1006" y="834"/>
      <point x="1006" y="528" type="curve" smooth="yes"/>
      <point x="1006" y="222"/>
      <point x="825" y="30"/>
    </contour>
    <component base="_part.top_r_hook"/>
  </outline>
</glyph>
